<?xml version="1.0" encoding="UTF-8"?>
<svg id="Calque_1" data-name="Calque 1" xmlns="http://www.w3.org/2000/svg" xmlns:xlink="http://www.w3.org/1999/xlink" viewBox="0 0 1600 1000">
  <defs>
    <style>
      .cls-1 {
        fill: #ff5f57;
      }

      .cls-2 {
        opacity: .6;
      }

      .cls-3 {
        fill: #28c840;
      }

      .cls-4 {
        fill: #fff;
      }

      .cls-5 {
        fill: url(#Dégradé_sans_nom);
        opacity: .39;
      }

      .cls-6 {
        fill: #404040;
      }

      .cls-7 {
        fill: #febc2e;
      }

      .cls-8 {
        fill: #6b6868;
      }

      .cls-9 {
        fill: #3f3d3d;
        opacity: .89;
      }

      .cls-10 {
        fill: #b7b7b7;
      }
    </style>
    <linearGradient id="Dégradé_sans_nom" data-name="Dégradé sans nom" x1="1003.37" y1="-.16" x2="1004.37" y2=".84" gradientTransform="translate(-1605396 155.99) scale(1600 1000)" gradientUnits="userSpaceOnUse">
      <stop offset="0" stop-color="#1c1c1e"/>
      <stop offset="1" stop-color="#3a3a3c"/>
    </linearGradient>
  </defs>
  <rect class="cls-5" width="1600" height="1000"/>
  <g class="cls-2">
    <circle class="cls-1" cx="140" cy="110" r="10"/>
    <circle class="cls-7" cx="170" cy="110" r="10"/>
    <circle class="cls-3" cx="200" cy="110" r="10"/>
    <rect class="cls-9" x="120" y="150" width="1360" height="740" rx="24" ry="24"/>
  </g>
  <g>
    <path class="cls-4" d="M759.59,266.02c1.3,1,4.67.97,5.86,0,1.55.07,3.14-.1,4.69,0,12.19.79,31.92,4.41,43.33,9.09,2.5,1.02,7.88,3.13,8.24,5.82.54,4.03-.17,9.79-.05,14.11.07,2.49,1.66,14.72.07,15.83l-2.31.17c-17.92-41.9-77.2-51.5-111.87-24.75-31.02,23.94-33,72.23-20.57,106.55,7.11,19.62,21.3,38.14,40.42,47.15.22.97-.31,1.19-.88,1.74-.8.78-8.78,6.39-9.39,6.45-32.61-9.21-54.76-36.53-58.75-70.06-7.26-61,33.5-107.57,93.87-111.55l.93-.54h6.44-.03Z"/>
    <path class="cls-6" d="M765.45,266.02c-1.18.97-4.56,1-5.86,0h5.86Z"/>
    <path class="cls-4" d="M920.71,533.18l3.45-.07-4.23,34.14c-.73,1.38-10.27,4.94-12.45,5.7-33.09,11.54-78.84,13.14-110.21-4.01-20.5-11.21-36.09-31.54-40.03-54.83l19.92-26.09c2.56,37.02,23.2,75.02,60.92,85.22,35.08,9.48,71.34-3.96,82.64-40.05h0Z"/>
    <path class="cls-4" d="M694.1,548.82l162.77-234.12c1.07-.62,3.91,1.65,4.57,2.64l-163.07,232.75-1.06.53-3.21-1.8h0Z"/>
    <path class="cls-10" d="M738.97,632.27c37.34-3.79,37.18,53.64-2.36,48.29-25.93-3.51-26.4-45.37,2.36-48.29ZM740.74,639.85c-20.69,1.63-19.27,35.41,3.33,33.23,19.48-1.88,17.69-34.89-3.33-33.23Z"/>
    <path class="cls-4" d="M827.52,401.91l.08-3.74c.18-.77.83-.72,1.39-.96,3.01-1.25,12.77-2.54,16.41-2.92,15.48-1.61,30.93-.14,46.08,3.1,4.48.96,26.08,6.18,27.3,10.18l.61,30.26-1.38,1.01c-2.47.22-2.23-2.45-3.11-3.95-6.49-11.16-13.8-19.31-25.11-25.84-19.03-10.99-41.19-11.7-62.26-7.14h-.01Z"/>
    <path class="cls-10" d="M867.06,633.27c9.65,1.02,16.11,8.33,12.88,18.15-1.57,4.78-4.33,6.18-8.8,7.62-.62.2-1.06-.43-.85.87l11.7,19.63h-10.54l-10.07-19.2-5.74-.12v19.33h-8.78v-46.27c6.46.5,13.86-.67,20.2,0h0ZM855.64,653.18c5.96,0,18.57.85,15.55-8.82-.46-1.46-3.44-3.48-4.71-3.48h-10.83v12.3h0Z"/>
    <path class="cls-10" d="M667.06,633.27v18.16h21.08v-18.16h8.78v45.98c-1.95,1.44-6.9,1.42-8.78,0v-19.62h-21.08v19.62c-1.88,1.42-6.83,1.44-8.78,0v-45.98h8.78Z"/>
    <path class="cls-10" d="M969.83,633.27v19.33l19.03-19.33h10.83l-20.45,21.88,22.21,24.97h-10.83l-20.79-22.84v21.96c-1.95,1.44-6.9,1.42-8.78,0v-45.98h8.78,0Z"/>
    <path class="cls-10" d="M896.63,679.54l19.27-45.91,6.82-.41,20.18,46.31h-9.08l-4.33-10.18-19.89-.28-4.47,10.46h-8.5ZM912.44,661.97h14.06c-2.31-5.22-3.74-11.28-6.18-16.39-.33-.69.09-1.43-1.13-1.18l-6.74,17.58h-.01Z"/>
    <path class="cls-10" d="M795.31,633.27v31.34c0,.2,1.28,3.39,1.51,3.76,3.61,5.94,14.31,5.72,17.74-.33.23-.41,1.25-3.23,1.25-3.44v-31.34h8.2v34.26c0,.24-1.43,3.52-1.74,4.12-6.41,12.58-27.46,12.37-33.64-.37-.27-.55-1.52-3.55-1.52-3.75v-34.26h8.2Z"/>
    <path class="cls-10" d="M632.58,667.9l1.66.23c.79.99,6.03,3.69,5.81,4.57-.84,3.39-8.83,7.36-12.08,7.87-18.32,2.85-30.89-8.74-29.46-27.12,1.38-17.7,22.53-27.69,36.88-17.51,1.15.82,4.21,3.27,2.94,4.63-.35.37-5.31,3.72-5.64,3.75-5.33-4.89-12.52-6.06-18.64-1.67-12.81,9.19-6.32,32.62,10.49,30.4,2.59-.34,7.05-2.58,8.03-5.14h.01Z"/>
    <polygon class="cls-8" points="735.58 727.56 735.58 709.41 739.09 709.41 739.09 732.84 734.53 732.71 722.11 715.26 722.11 732.84 718.6 732.84 718.6 709.41 723.03 709.95 735.58 727.56"/>
    <polygon class="cls-8" points="886.67 709.41 891.4 710.24 903.66 727.56 903.66 709.41 907.17 709.41 907.17 732.84 902.74 732.29 890.19 714.68 890.19 732.84 886.67 732.84 886.67 709.41"/>
    <path class="cls-8" d="M938.8,722.88c-2.65,0-6.33.86-5.02-2.97l.72-.45,7.56.46c.14,2.32.94,10.04-.32,11.47-.72.81-4.33,1.9-5.57,2.04-23.08,2.65-18.31-30.46,1.62-23.88,4.95,1.63,3.44,4.95,1.01,4.32-3.89-1.01-5.08-3.82-10.16-.85-10.55,6.16-1.47,22.7,9.89,16.33l.27-6.47h0Z"/>
    <path class="cls-8" d="M690.33,708.96c18.82-3.21,20.29,27.25-.09,24.41-12.9-1.8-12.83-22.2.09-24.41ZM690.92,711.88c-9.22,1.59-9.53,17.28.5,18.56,14.14,1.8,13.28-20.93-.5-18.56Z"/>
    <path class="cls-8" d="M784.77,709.41v16.69c0,4.67,10.27,7.25,11.14-.57.53-4.75-.5-10.31.07-15.16.45-1.36,2.29-.94,3.43-.96v17.28c0,.42-1.34,2.95-1.75,3.52-3.83,5.26-13.27,4.4-15.52-2.06-1.04-2.99-1.46-14.17-.88-17.27.36-1.96,1.91-1.46,3.51-1.46h0Z"/>
    <path class="cls-8" d="M668.81,728.75c-2.6,6.08-12.47,5.97-16.94,2-8.81-7.82-2.77-23.11,9.56-21.86,2.61.27,9.31,3.93,5.26,5.16-2.49.76-5.44-4.93-11.64-.55-7.55,5.34-3.31,18.93,6.9,16.85,3.15-.64,3.48-4.12,6.86-1.61h0Z"/>
    <path class="cls-8" d="M756.82,713.07c-4.53,4.83,5.99,6.65,8.24,8.15,7.19,4.78.6,13.96-8.56,12.07-4.3-.89-5.29-5.22-1.34-5.17.35,0,.33.94.74,1.19,3.17,1.87,8.36,1.82,8.37-2.62.01-4.74-7.41-3.33-10.28-7.3-5.89-8.16,7.75-14.47,13.16-7.86l-1.55,1.92c-1.31.33-5.65-3.73-8.8-.37h.02Z"/>
    <polygon class="cls-8" points="856.22 709.41 856.22 712.34 848.61 712.34 848.61 732.84 845.68 732.84 845.68 712.34 838.06 712.34 838.07 709.41 856.22 709.41"/>
    <polygon class="cls-8" points="817.57 709.41 817.57 729.91 828.11 729.91 828.11 732.84 814.06 732.84 814.06 710.29 817.57 709.41"/>
    <rect class="cls-8" x="868.52" y="709.41" width="3.51" height="23.43"/>
  </g>
</svg>