<?xml version="1.0" encoding="UTF-8"?>
<svg id="Calque_1" data-name="Calque 1" xmlns="http://www.w3.org/2000/svg" viewBox="0 0 1600 1000">
  <defs>
    <style>
      .cls-1 {
        fill: #2e83c3;
      }

      .cls-2 {
        fill: #1f3b47;
      }

      .cls-3 {
        fill: #66c5ed;
      }

      .cls-4 {
        fill: #146eb4;
      }

      .cls-5 {
        fill: #ff5f57;
      }

      .cls-6 {
        fill: #244252;
      }

      .cls-7 {
        fill: #1e3a45;
      }

      .cls-8 {
        fill: #5cb8e5;
      }

      .cls-9 {
        fill: #1a3642;
      }

      .cls-10 {
        fill: #267dbe;
      }

      .cls-11 {
        fill: #3a98d2;
      }

      .cls-12 {
        fill: #146ab1;
      }

      .cls-13 {
        fill: #166fb4;
      }

      .cls-14 {
        fill: #1c3946;
      }

      .cls-15 {
        fill: #1f73b1;
      }

      .cls-16 {
        opacity: .6;
      }

      .cls-17 {
        fill: #3792cc;
      }

      .cls-18 {
        fill: #193239;
      }

      .cls-19 {
        fill: #5ebbe6;
      }

      .cls-20 {
        fill: #53afde;
      }

      .cls-21 {
        fill: #28c840;
      }

      .cls-22 {
        fill: #112b34;
      }

      .cls-23 {
        fill: #3993cd;
      }

      .cls-24 {
        fill: #3c93c6;
      }

      .cls-25 {
        fill: #50acde;
      }

      .cls-26 {
        fill: #3287c1;
      }

      .cls-27 {
        fill: #1671b6;
      }

      .cls-28 {
        fill: #1b3845;
      }

      .cls-29 {
        fill: #16333e;
      }

      .cls-30 {
        fill: #1a74b8;
      }

      .cls-31 {
        fill: #3a97d1;
      }

      .cls-32 {
        fill: #429fd6;
      }

      .cls-33 {
        fill: #1a343e;
      }

      .cls-34 {
        fill: #1a3c4a;
      }

      .cls-35 {
        fill: #3792cd;
      }

      .cls-36 {
        fill: #67c8f1;
      }

      .cls-37 {
        fill: #257dbe;
      }

      .cls-38 {
        fill: #287cbb;
      }

      .cls-39 {
        fill: #3288c6;
      }

      .cls-40 {
        fill: #227abc;
      }

      .cls-41 {
        fill: #68c8ef;
      }

      .cls-42 {
        fill: #153746;
      }

      .cls-43 {
        fill: #122c34;
      }

      .cls-44 {
        fill: #5cb9e5;
      }

      .cls-45 {
        fill: #1d414e;
      }

      .cls-46 {
        fill: #358eca;
      }

      .cls-47 {
        fill: #4fabde;
      }

      .cls-48 {
        fill: #67c5eb;
      }

      .cls-49 {
        fill: #232323;
        opacity: .39;
      }

      .cls-50 {
        fill: #2f464c;
      }

      .cls-51 {
        fill: #67c6ed;
      }

      .cls-52 {
        fill: #5bb7e5;
      }

      .cls-53 {
        fill: #3c9ad2;
      }

      .cls-54 {
        fill: #febc2e;
      }

      .cls-55 {
        fill: #166eb3;
      }

      .cls-56 {
        fill: #2178b8;
      }

      .cls-57 {
        fill: #1a3c48;
      }

      .cls-58 {
        fill: #4ca8dc;
      }

      .cls-59 {
        fill: #25424d;
      }

      .cls-60 {
        fill: #62c0e8;
      }

      .cls-61 {
        fill: #1a353f;
      }

      .cls-62 {
        fill: #1666af;
      }

      .cls-63 {
        fill: #1665af;
      }

      .cls-64 {
        fill: #49a5d9;
      }

      .cls-65 {
        fill: #1568af;
      }

      .cls-66 {
        fill: #63c2eb;
      }

      .cls-67 {
        fill: #62c0e9;
      }

      .cls-68 {
        fill: #15323b;
      }

      .cls-69 {
        fill: #113140;
      }

      .cls-70 {
        fill: #112c34;
      }

      .cls-71 {
        fill: #122d35;
      }

      .cls-72 {
        fill: #3f9cd4;
      }

      .cls-73 {
        fill: #5ab7e5;
      }

      .cls-74 {
        fill: #1d3946;
      }

      .cls-75 {
        fill: #1b3844;
      }

      .cls-76 {
        fill: #57b3e1;
      }

      .cls-77 {
        fill: #66c8f1;
      }

      .cls-78 {
        fill: #2e444b;
      }

      .cls-79 {
        fill: #4da4d2;
      }

      .cls-80 {
        fill: #1567ad;
      }

      .cls-81 {
        fill: #143442;
      }

      .cls-82 {
        fill: #112b33;
      }

      .cls-83 {
        fill: #4ba8dc;
      }

      .cls-84 {
        fill: #1c72b2;
      }

      .cls-85 {
        fill: #3f3d3d;
        opacity: .89;
      }

      .cls-86 {
        fill: #277fbf;
      }

      .cls-87 {
        fill: #45a2d7;
      }

      .cls-88 {
        fill: #203840;
      }

      .cls-89 {
        fill: #68c7ee;
      }

      .cls-90 {
        fill: #62bee5;
      }

      .cls-91 {
        fill: #fefefe;
      }

      .cls-92 {
        fill: #263e45;
      }

      .cls-93 {
        fill: #17333d;
      }

      .cls-94 {
        fill: #469bcb;
      }

      .cls-95 {
        fill: #2a4755;
      }

      .cls-96 {
        fill: #3e5a69;
      }

      .cls-97 {
        fill: #4ba8db;
      }

      .cls-98 {
        fill: #1e3b48;
      }

      .cls-99 {
        fill: #1f4554;
      }

      .cls-100 {
        fill: #fdfefe;
      }

      .cls-101 {
        fill: #fdfdfd;
      }

      .cls-102 {
        fill: #1c71b4;
      }

      .cls-103 {
        fill: #146db2;
      }

      .cls-104 {
        fill: #61bfe9;
      }
    </style>
  </defs>
  <rect class="cls-49" width="1600" height="1000"/>
  <g class="cls-16">
    <circle class="cls-5" cx="140" cy="110" r="10"/>
    <circle class="cls-54" cx="170" cy="110" r="10"/>
    <circle class="cls-21" cx="200" cy="110" r="10"/>
    <rect class="cls-85" x="120" y="150" width="1360" height="740" rx="24" ry="24"/>
  </g>
  <g>
    <path class="cls-91" d="M999.36,575.67c6.38,6.01,7.23,16.79,3.85,24.55-9.72,22.29-48.56,19.77-62.17,2.49l5.68-11.22c9.19,10.08,25.75,16.09,38.79,10.24,6.58-2.95,10.01-10.77,4.64-16.59-7.98-8.66-28.68-6.02-39.96-15.55-9.23-7.79-8.1-24.32.69-31.97,13.07-11.38,38.09-9.52,50.2,2.47l-5.57,10.82c-8.33-6.77-18.29-10.23-29.09-7.76-9.97,2.28-15.34,13.72-4.6,19.07,11.21,5.59,27.58,4.07,37.54,13.44h0Z"/>
    <path class="cls-91" d="M828.21,425.23c.47-.76,1.06-.74,1.84-.83,8.01-.94,27.26-.45,35.11,1.24,28.39,6.12,27.68,44.58,2,52.98l20.83,30.14h-14.14l-20.82-28.82h-12.54v28.02l-.8.8h-11.48v-41.63h34.96c.47,0,4.81-2.41,5.56-2.98,7.85-6.02,6.57-21.88-3-25.73-1.1-.44-5.9-1.71-6.83-1.71h-30.69v-11.48h0Z"/>
    <path class="cls-91" d="M903.21,531.18c10.89,1.03,21.96,7.09,24.97,18.27,4.12,15.29-2.5,30.63-17.77,35.92l20.57,29.09-.54,1.06h-12.81l-21.88-29.36h-12.01v28.82c-.52-.17-1.16.53-1.33.53h-10.94v-41.63h33.89c.27,0,4.32-1.69,4.91-2.03,9.1-5.09,8.94-21.71-.43-26.48-.71-.36-5.1-1.92-5.55-1.92h-32.83v-12.28c10.22.71,21.69-.95,31.76,0h0Z"/>
    <path class="cls-91" d="M1119.43,431.07c.7.62,2.3,2.23,2.25,3.14l-4.17,10.5c-.8.58-4.34-3.64-5.2-4.25-2.94-2.07-7.55-3.85-11.14-4.22-28.03-2.95-40.15,33.36-22.63,52.52,8.39,9.18,23.34,12.01,33.59,4.21.97-.73,4.6-5.06,5.38-4.49l4.17,11.05c-10.59,12.71-29.98,12.93-43.3,4.33-26.07-16.83-25.42-59.62,1.41-75.25,11.91-6.94,28.99-6.9,39.63,2.47h.01Z"/>
    <path class="cls-91" d="M653.14,591.5l33.08-61.38c2.22,5.47,1.98,11.69,3.57,17.44l-.32,1.52-35.54,68.05-35.78-67.77c-.48-6.54,2.19-13.17,2.42-19.76l1.52.87,31.04,61.04h.01Z"/>
    <path class="cls-91" d="M789.78,529.58l2.98,19.21-35.8,68.32-35.78-67.77c-.19-6.23,1.76-12.51,2.69-18.69l.79-.53,32.56,61.91,32.56-62.45h0Z"/>
    <path class="cls-91" d="M720.39,479.94v28.82h-10.68v-41.63h31.23c.79,0,3.99-2.02,4.79-2.68,7.72-6.35,6.08-22.93-4-26.39-.95-.33-4.88-1.35-5.59-1.35h-26.42v-11.48l.8-.8h25.62c1.84,0,8.06,1.55,10.02,2.26,25.1,9.07,17.61,53.26-7.35,53.26h-18.42Z"/>
    <polygon class="cls-91" points="983.54 422.83 1035.32 481.01 1035.32 425.23 1036.12 424.43 1045.19 424.43 1045.99 425.23 1045.99 510.37 983.54 439.11 983.54 422.83"/>
    <path class="cls-91" d="M647.53,424.43c.39.07,1.05.6,1.35.93l52.29,83.4h-13.34l-20.55-33.08-20.82,33.08h-13.08l26.66-43.51-24.53-40.83h12.02Z"/>
    <path class="cls-91" d="M397.99,499.16c-17.01-15.78-26.7-33.53-40.33-51.74-4.15-5.55-10.56-11.88-14.13-17.36-.34-.52-.66-.9-.55-1.58,3.65-3.14,8.83-1.66,13.27-1.79,5.27,7.19,11.34,13.89,16.36,21.27,7.08,10.42,13.13,24.56,22.44,33.07,1.72,1.57,3.95,2.61,5.62,4.26,1.55,1.54,3.37,3.94,5.34,5.87,2.56,2.52,5.18,5.09,8.05,7.26.1.68-3.11,6.23-3.78,7.16-.48.66-1.42,2.25-2.33,2.09-3.02-3.14-6.79-5.57-9.95-8.5h0Z"/>
    <path class="cls-91" d="M464.18,532.78c2.25,2.16,4.88,3.59,6.94,5.34,2.34,1.99,4.43,4.05,6.41,6.41,9.37,11.18,18.21,21.41,26.05,34,2.9,4.65,5.1,9.69,8.2,14.22,5.04,7.36,11.48,13.88,17.26,20.64l-.54,1.07h-12.81c-8.67-7.88-14.16-18.4-20.38-28.17-8.81-13.83-14.23-20.92-25.79-32.68-.11-.11-.19-1.03-.76-1.62-1.96-2-4.22-4.7-6.71-5.86-1.28-1.36-2.5-2.61-3.82-3.93-.62-.61-1.39-.38-.98-1.95.66-.68,1.12-1.85,1.6-2.67.24-.08.49-.29.53-.53.03-.18-.04-.38,0-.53,1.91-.25,2.24-4.26,4.8-3.74h0Z"/>
    <path class="cls-91" d="M592.82,531.18c-.17.52.53,1.16.53,1.33v81.67c0,.09-1.24,1.33-1.33,1.33h-10.68l-.8-.8v-83.54h12.28,0Z"/>
    <path class="cls-91" d="M1055.87,531.18l31.13,71.4c.22.62.05,1.15-.13,1.74-.89,2.87-3.84,9.03-5.39,11.74-.33.58.05,1.3-1.06,1.06l-37.64-85.94h13.09Z"/>
    <polygon class="cls-91" points="1032.11 531.18 1032.11 614.72 1031.31 615.52 1019.84 615.52 1019.84 531.18 1032.11 531.18"/>
    <path class="cls-91" d="M439.63,465c10.95-9.7,20.97-20.54,33.24-28.94,1.84-1.26,14.68-9.49,15.6-9.49h20.02c-13.16,11.1-30.15,16.75-42.98,28.28-5.1,4.59-9.59,9.86-14.13,14.96-2.68,3-5.52,5.9-8.01,9.07-1.9,2.42-3.7,4.84-5.34,7.47-1.24.24-1.75-.14-2.7-.77-1.28-.86-6.61-5.28-6.9-6.44,1.98-.86,2.79-2.73,3.73-4.53,2.29-1.3,3.34-3.86,4.8-5.87.76-1.05,1.46-2.66,2.67-3.74h0Z"/>
    <path class="cls-91" d="M434.29,566.41c-1.4,1.57-3.99,3.25-4.8,5.34l5.87-3.73c3,3.18,6.53,5.98,9.61,9.07,1.39,1.4,2.93,2.85,4.27,4.27,5.97,6.3,13.11,14.68,17.84,21.93,2.09,3.21,4.81,7.54,5.65,11.16h-11.48c-1.34,0-4.87-7.01-5.91-8.51-6.36-9.15-19.15-23.8-27.98-30.23-.49-.36-.38-1.3-.82-1.31-18.31,14.12-39.43,24.37-56.57,40.04h-15.75c.46-1.86,2.71-3.47,4.16-4.77,16.39-14.75,34.23-24.48,52.39-36.64l1.09-1.28c6.86-4.74,14.15-10.51,18.68-17.61.44-.21.85-.53,1.37-.53,1.37-.02,6.51,4.25,7.65,5.71.37,1.42-3.18,4.04-4.22,5.24-.51.59-.74,1.49-1.06,1.86h.01ZM356.89,612.85h13.88c.07,0,.1-.93.51-1.38.67-.74,1.37-.26,1.51-.38,2.41-2.29,3.56-4.15,6.55-6.47,14.85-11.53,32.51-19.35,46.71-32.02,4.18-3.73,8.44-8.52,11.97-12.86l-6.4-5.07c.25,2.3-1.93,2.77-3.02,3.92-12.09,12.75-26.32,23.54-42.87,31.05-1.36.62-3.5,4.06-5.85,4.04l.47.98c-2.51,1-5.25,2.93-7.44,4.58-2.25,1.7-3.24,3.36-4.89,4.96-.09.08-.79-.32-1.24.07-2.83,2.49-5.62,5.56-8.4,7.88-.2.17-1.38-.5-1.48.69h-.01Z"/>
    <polygon class="cls-91" points="912.01 508.77 901.34 508.77 901.34 424.43 911.21 424.43 912.01 425.23 912.01 508.77"/>
    <path class="cls-91" d="M474.86,493.82l17.36-15.46c10.26-8.16,20.71-16.32,32.12-22.86,2.13-1.22,4.82-2.72,7.1-3.31v12.54c-18.25,9.34-32.82,22.02-46.97,36.56-3.32,3.41-6.64,6.92-10.14,10.14-.22-.19-1.44-.5-2.14-1.07s-1.41-1.11-2.14-1.6-1.01-.99-2.14-1.6c-.19-.1-.35-.46-.53-.53-1.55-3.2,2.38-5.76,3.98-8.05.36-.51.18-1.41.29-1.56.56-.79,2.23-1.85,3.2-3.2h.01Z"/>
    <path class="cls-36" d="M1259.5,558.94h-33.63v-25.35c0-.74,2.24-5.39,2.98-6.1,2.68-2.59,6.53-2.55,9.49-.5,1.49.17,2.19,4.74,3.27,4.19.79-.4.99-2.31,1.63-3.18,3.66-4.97,9.91-5.53,13.59-.28.73,1.04,2.67,5.93,2.67,6.93v24.29ZM1244.55,539.46c-.38,2.67.27,6.04,0,8.81h8.54v-10.94c0-.16-1.84-2.35-1.97-2.43-3.38-2.04-6.13,1.45-6.57,4.56h0ZM1232.28,537.86c-.59,2.8.43,7.38,0,10.41h6.41v-9.87c0-.13-1.11-2.17-1.2-2.26-1.66-1.6-4.75-.42-5.2,1.73h-.01Z"/>
    <path class="cls-91" d="M462.05,474.6c15.48-15.16,31.42-27.92,51.4-36.94l18.52-11.64v10.94c-2.64,2.42-5.62,4.38-8.59,6.36-14.67,9.8-27.87,15.93-41.6,27.79-2.03,1.75-9.95,10.11-11.22,10.69-1.58.72-2.11.02-3.19-.81-.19-.14-.33-.76-.78-1.07-1.71-1.16-6.38-2.54-4.56-5.34l.02.02Z"/>
    <path class="cls-91" d="M489.27,531.72c.8-.91,1.93-3.63,3.22-2.96,1.08.57,7.46,7.36,8.8,8.82,12.49,13.51,19.14,28.64,30.15,42.98v17.35c-4.74-3.2-8.34-8.94-11.64-13.71-11.63-16.78-18.02-32.78-34.26-46.61l3.74-5.87h0Z"/>
    <path class="cls-91" d="M396.93,530.12c1.42,1.04,3.5,2.98,4.8,4.27-1.94,2.12-4.48,5.15-6.41,6.94-1.25,1.16-2.85,1.76-3.76,3.46l-1.58.81c-16.13,11.85-33.91,21.2-49.64,33.63v-14.41c7.02-4.18,13.74-8.88,20.64-13.25,9.98-6.32,14.6-9.47,23.66-17.17,2.63-2.24,6.01-3.92,7.78-6.98.72-.11,3.59,2.04,4.5,2.71h.01Z"/>
    <path class="cls-91" d="M401.73,558.94c1.08,1.4,4.6,1.95,2.4,3.74-16.72,13.66-36.97,22.45-53.65,36.55-3.5,2.96-6.64,6.37-10.13,9.35v-13.61c3.21-2.98,6.52-6,9.89-8.79,9.6-7.96,20.32-13.7,30.63-20.61,4.85-3.26,9.63-6.48,13.93-10.36l6.94,3.74h-.01Z"/>
    <path class="cls-91" d="M1118.58,531.18l-27.49,63.52c-.92.28-1.55-1.75-1.86-2.4-.97-2.05-4.96-10.67-4.79-12.25l21.61-48.87h12.54-.01Z"/>
    <path class="cls-91" d="M383.05,505.03l-1.6,1.6c-2.06.03-2.85,2.13-4.27,3.2l-2.14-1.32-5.86-5.61c-7.42-10.75-14.83-21.63-22.2-32.51-.86-1.27-6.62-8.3-6.62-8.86v-17.35c10.86,11.41,18.31,25.81,27.53,38.39,2.1,2.86,16.26,18.76,16.24,20.05,0,.76-1.09,1.53-1.08,2.41Z"/>
    <path class="cls-91" d="M498.88,502.89c.28.15,2.66,2.93,3.74,3.74-.16,1.2.41,1.62,1.04,2.42,2.09,2.63,6.46,5.76,9.11,8.51s18.67,20.49,18.67,22.97v21.08l-12.16-19.07c-8.11-11.67-15.92-20.48-26.81-29.5-1.64-1.36-3.71-3.79-5.05-4.82-2.95-2.28-6.81-1.38-2.43-6.39.09-.1.77-.02,1.03-.31.95-1.05,3.23-4.51,4.57-4.51,2.58,1.51,4.15,3.96,6.62,5.73,1.05.75,1.58.12,1.65.16h.02Z"/>
    <path class="cls-36" d="M1249.62,455.39c11.98,2,13.23,26.49,3.73,33.09-.36.25-2.51,1.6-2.67,1.6h-24.82v-10.14h22.69c4.71,0,7-10.2,2.06-13.26-.34-.21-2.45-1.15-2.59-1.15h-22.15v-10.14h23.75Z"/>
    <path class="cls-91" d="M363.3,529.58c-1.88-4.87-6.3-8.15-9.59-12.02-4.58-5.39-9.01-10.96-13.36-16.53v-19.48l6.5,10.31c6.74,9.61,14.67,18.22,22.85,26.52,1.85,1.88,3.53,3.19,5.34,4.8.78.69,1.44,1.37,2.14,2.14.09.1-.09.44,0,.53,2.38,2.5,5.5,4.44,6.94,7.47-.12.17-.36.37-.53.53-.68.67-7.24,5.84-7.72,5.86-1.82.07-2.26-1.81-3.22-2.66-1.46-1.27-3.09-2.44-4.53-3.74-.93-.84-1.28-2.5-3.2-2.14-.95-1.16.1-.67-1.6-1.6h-.02Z"/>
    <polygon class="cls-77" points="1232.28 588.3 1232.28 605.38 1238.68 605.38 1238.68 590.43 1244.55 590.43 1244.55 605.38 1253.09 605.38 1253.09 588.83 1259.5 588.83 1259.5 616.05 1225.87 616.05 1225.87 588.3 1232.28 588.3"/>
    <path class="cls-77" d="M1232.28,493.29v17.61c2.06-.28,4.86.76,6.41-.8v-14.14h5.87v14.14l.8.8h7.74v-16.28c1.55-1.57,4.35-.52,6.41-.8v27.22h-33.63v-27.76h6.41-.01Z"/>
    <path class="cls-101" d="M994.75,508.77h-11.21v-59.25c.94-.18,1.32.48,1.88,1.06,3.29,3.4,6.35,7.26,9.33,10.95v47.24Z"/>
    <path class="cls-91" d="M792.18,615.52c-.74-.24-2.02-6.62-2.27-7.88-1.54-7.92-3.76-19.85-4.33-27.69-.36-4.89,2.69-9.78,4.99-14.09,1.1-2.07,2.44-4.68,4.01-6.39l9.01,55.16c-.09.29-.54.89-.73.89h-10.68Z"/>
    <path class="cls-91" d="M710.52,615.52c-.35-.1-.85-.82-.77-1.28l9.05-54.76c.58.07.96.68,1.26,1.13,1.13,1.65,8.29,15.58,8.37,16.76-1.58,10.72-3.48,21.4-5.32,32.07-.34,1.99.38,4.43-1.39,6.08h-11.21.01Z"/>
    <path class="cls-91" d="M689.17,615.52c-.55-.15-1.19-1.25-1.32-1.89-2.43-11.98-3.15-24.35-5.81-36.31,2.4-5.44,5.12-10.77,7.91-16.01.32-.6.42-1.44,1.35-1.32l9.88,54.98c-.54-.17-1.14.54-1.34.54-2.37,0-8.97.48-10.68,0h.01Z"/>
    <path class="cls-91" d="M607.5,615.52c-1.15-.34-.36-4.31-.19-5.53.55-4.15,1.81-8.34,2.46-12.48,2-12.68,3.89-25.38,6.01-38.03,3.87,5.48,6.84,11.71,9.51,17.87l-5.76,37.28c-.09.36-1.21.9-1.35.9-2.29,0-9.11.46-10.68,0h0Z"/>
    <path class="cls-100" d="M812.2,602.71l48.3.53c.75.09-.26.68-.26.8v10.68l-.8.8h-46.44l-.8-.8v-12.01Z"/>
    <polygon class="cls-100" points="1177.3 603.24 1177.3 614.72 1176.5 615.52 1130.06 615.52 1129.26 614.72 1129.26 602.71 1177.3 603.24"/>
    <polygon class="cls-91" points="769.76 496.49 816.74 496.49 817.54 497.29 817.54 507.96 816.74 508.77 769.76 508.77 768.96 507.96 768.96 497.29 769.76 496.49"/>
    <path class="cls-100" d="M817.54,436.71h-48.57v-10.94c0-.18.71-.81.53-1.33h46.7c.09,0,1.33,1.24,1.33,1.33v10.94h0Z"/>
    <path class="cls-91" d="M410.27,463.39c.55,3.52-3.82,6.16-4.27,9.61-.2,0-.54.49-1.07.25-1.66-.76-11.3-12.9-13.03-15.24-7.53-10.19-13.21-21.75-21.41-31.45l.54-1.07h12.81c3.92,4.83,7.26,10.27,10.63,15.52s10.64,19.36,15.79,22.37h0Z"/>
    <rect class="cls-91" x="1129.26" y="531.18" width="48.04" height="12.28"/>
    <rect class="cls-91" x="580.01" y="496.49" width="48.04" height="12.28"/>
    <rect class="cls-91" x="1129.79" y="496.49" width="48.04" height="12.28"/>
    <rect class="cls-91" x="924.29" y="496.49" width="48.04" height="12.28"/>
    <rect class="cls-91" x="812.2" y="531.18" width="48.04" height="12.28"/>
    <polygon class="cls-100" points="1177.83 436.71 1129.79 436.71 1129.79 424.43 1177.03 424.43 1177.83 425.23 1177.83 436.71"/>
    <polygon class="cls-100" points="972.33 436.71 924.29 436.71 924.29 425.23 925.09 424.43 971.53 424.43 972.33 425.23 972.33 436.71"/>
    <path class="cls-100" d="M628.05,436.71h-48.04v-11.74c.52.17,1.16-.53,1.33-.53h45.9l.8.8v11.48h0Z"/>
    <path class="cls-91" d="M418.28,455.39c-3.54-4.3-7.28-8.68-10.59-13.17-3.5-4.76-7.34-10.3-9.7-15.66h13.34c.38,1.21,1.18,2.68,1.9,3.7,4.19,5.9,8.46,11.62,13.04,17.12,2.26,2.71,5.06,5.31,7.47,8.01.2.22.41,1.71,1.31,2.7,1.18,1.3,4.09,3.42,5.63,4.25l-1.07,2.66c-1.21,1.08-1.9,2.69-2.67,3.74-1.48-.53-2.52,1.72-3.4,1.57-.51-.09-6.76-5.96-7.81-6.91-.42-.38-.73-.76-1.07-1.07-1.61-2.72-3.95-4.97-6.41-6.94h.03Z"/>
    <path class="cls-91" d="M464.18,567.48c1.32-.13,2.16-.12,3.25.76,2.36,1.91,9.25,11.29,11.39,14.23,5.19,7.17,9.04,14.61,13.76,22.01,1.57,2.46,4.58,5.82,5.78,8.09.34.65.72,1.01.52,1.88h-12.01c-.28,0-1.09-.63-1.35-.93l-18.97-30.52c-.51-.99-1.7-1.5-2.37-2.17-.8-2.14-3.29-4.53-5.33-5.35l2.13-4.26c1.09-1.05,2.22-2.54,3.2-3.74h0Z"/>
    <path class="cls-91" d="M436.43,586.16c1.01.86,4.28,3.41,4.29,4.54l-.52,1.1c-10.24,8.65-22.17,14.65-32.86,22.65h-18.95c.23-1.81,2.67-3.13,4.1-4.17,11.55-8.41,23.62-15.48,35.4-24.12.66-.48,4.7-3.2,4.99-3.15,1.18,1.07,2.34,2.12,3.55,3.15Z"/>
    <path class="cls-77" d="M1232.28,442.04c2.06-.28,4.86.76,6.41-.8v-14.14h5.87v14.14l.8.8h14.14v10.14h-33.63v-27.22c1.96-.45,4.78-1.33,6.41.27v16.81h0Z"/>
    <rect class="cls-91" x="812.2" y="567.48" width="42.7" height="11.74"/>
    <polygon class="cls-100" points="811.67 472.47 769.76 472.47 768.96 471.67 768.96 461.53 769.76 460.73 810.87 460.73 811.67 461.53 811.67 472.47"/>
    <rect class="cls-91" x="1129.26" y="567.48" width="42.17" height="11.74"/>
    <polygon class="cls-100" points="966.46 460.73 966.46 472.47 924.29 472.47 924.29 461.53 925.09 460.73 966.46 460.73"/>
    <polygon class="cls-100" points="622.18 460.73 622.18 472.47 580.01 472.47 580.01 461.53 580.81 460.73 622.18 460.73"/>
    <rect class="cls-91" x="1129.79" y="460.73" width="41.63" height="11.74"/>
    <path class="cls-77" d="M1259.5,585.09h-33.63v-10.14h26.42l.8-.8v-11.74l.88-.72c.48-.15,1-.07,1.49-.11,1.32-.11,3.21-.26,4.03.83v22.69h0Z"/>
    <polygon class="cls-91" points="687.03 424.43 698.24 424.43 698.96 425.67 677.42 460.18 670.86 449.88 687.03 424.43"/>
    <path class="cls-91" d="M498.88,502.89c-.71-1.24-1.05-.92.24-1.64,3.98-2.24,9.15-7.79,13.15-10.86,4-3.07,9.1-6.58,13.55-9.4,1.74-1.11,3.71-2.45,5.62-3.19v12.81c-2.85.74-5.38,3.03-7.72,4.83-5.47,4.21-10.74,8.87-15.78,13.59-2.29,1.07-2.66-1-3.99-1.9-.53-.36-1.22-.41-1.34-.5-1.07-.81-3.46-3.59-3.74-3.74h0Z"/>
    <path class="cls-91" d="M427.35,446.31c7.27-6.48,14.15-13.48,21.62-19.75h18.42l-11.99,8.56c-6.58,4.96-12.6,12.8-18.96,17.6-.66.5-1.33.94-1.87,1.59-2.24-2.65-5.77-4.8-7.21-7.99h-.01Z"/>
    <path class="cls-62" d="M468.45,553.6c1.08,1.03,3,2.94,2.59,4.42s-5.12,6.57-6.35,8.12c-.39.49-.39,1.2-.51,1.34-.98,1.2-2.11,2.68-3.2,3.74-.61.59-2.12,1.65-3.2,2.67-2.68,2.53-4.73,5.05-8.01,6.41-1.07-1.77-2.8-2.91-4.27-4.27-3.83-3.54-1.5-2.36,1.09-5.05,4.76-4.94,9.1-11.36,13.32-16.84.87-1.13,2.16-4.21,3.55-4.17.31,0,4.56,3.24,4.99,3.64h0Z"/>
    <path class="cls-62" d="M491.94,515.17c1.44,1.23,3.07,3.29,4.71,4.53-3.75,4.56-7.15,9.35-10.58,14.15-.71.99-1.11,1.97-1.6,2.67-1.43,2.05-3.44,5.43-4.78,7.09-.58.72-1.34.75-2.16.92-1.97-2.35-4.06-4.42-6.41-6.41-.41-2.29,1.91-4,2.83-5.47,2.31-3.68,4.16-7.61,6.78-11.08,2.33-3.08,5.42-5.47,7.81-8.51,1.01-.3,2.54,1.36,3.4,2.1h0Z"/>
    <path class="cls-62" d="M396.93,500.22c-1.6.36-3.53,7.24-3.71,8.91-.08.77.51,1.16.51,1.23v.53l-9.61,9.61c-2.17,1.62-4.11,4.46-6.94,4.8-.7-.77-1.36-1.44-2.14-2.14-.19-2.64-3.19-2.99-3.74-5.34,3.27-1.84,7.76-8.27,10.14-11.21l1.6-1.6c2.04-.13,8.57-9.6,9.34-9.6l4.54,4.79v.02Z"/>
    <path class="cls-62" d="M425.22,465c-1.55,4.04-6.89,11.39-9.61,15.48-.7,1.06-2.27,2.75-3.2,3.74.24-.69.59-1.38.53-2.13-.3-.38-7.45,4.63-6.93,6.41-1.27-1.31-3.14-2.93-4.8-3.74-.1-.68-.74-.84-.28-2.09s4.56-7.49,5.61-9.12c1.35-2.09,4.17-4.19,4.8-6.94l6.67-9.06,7.21,7.46h0Z"/>
    <path class="cls-91" d="M363.3,529.58c1.71.93.65.44,1.6,1.6.68.83,1.27,1.71,2.13,2.4l-3.73,3.47-22.95,14.95v-13.34l19.19-11.52c1.44.8,2.18,1.59,3.76,2.45h0Z"/>
    <path class="cls-82" d="M426.28,541.86v.53l-2.67,3.73c2.09,0,3.41,1.49,5.34,2.14.6,2.08,3.73,3.06,5.34,4.27,1.92,1.45,4.38,3.7,6.41,5.34,2.57,2.09,5.41,5.49,8.54,6.41-.09.26.07.73,0,1.07-2.26.95-7.59-6.76-8.53-5.87.17,2.75-4.12,4.5-5.11,6.41-.38.74-.15.8.26,1.36.24.33,5.4,5.38,5.9,5.78,1.28,1.03.87-.22,1.48-.73,5-4.22,8.27-8.65,12.42-13.63.14-1.16-.18-.86-.9-.38-.37.25-1.54,1.01-1.76,1.18l2.1-3.4c-.62-1.1-1.74-1.69-2.63-2.48-1.93-1.71-3.94-3.23-5.87-4.8-.38-.31-.7-1.31-1.07-1.6-.03-.35.04-.72,0-1.07.62,1.12,4.1,1.96,4.27,2.14.07.07-.02,1.17.5,1.88,1.26,1.75,5.31,3.86,5.92,6.66l3.73-2.67c-4.22,5.47-8.57,11.89-13.32,16.84-2.58,2.69-4.92,1.51-1.09,5.05l-.53,1.07c-3.08-3.1-6.61-5.9-9.61-9.07-.46-.49-1.32-.56-1.07-1.6.33-.37.56-1.27,1.06-1.86,1.04-1.2,4.59-3.82,4.22-5.24-1.14-1.46-6.27-5.73-7.65-5.71-.52,0-.93.32-1.37.53-1.91.92-3.87,4.24-5.59,5.89-1.55,1.49-3.56,2.85-5.09,4.26l-.53-1.07c.94-.92,2.42-2.51,2.67-3.74.14-.14.59-.1.53-.53.2-1.46-1.95-2.09-2.67-2.67-1.71-1.37-3.49-3.1-5.34-4.27.63-.58,1.42-.49,2.14-1.07.62-.51,1.49-2.03,2.14-2.67,1.17-1.16,2.55-2.67,3.74-3.74s2.85-1.93,3.74-2.67h-.05Z"/>
    <path class="cls-62" d="M400.13,543.99c-1.66-.15-1.14.3-.56,1.36,2.68,4.86,13.69,14.7,19.11,15.63,2.05.35,1.68-.63,2.26-.98.31-.18.87-.34,1.07-.53-.25,1.22-1.73,2.82-2.67,3.74s-2.76,2.77-3.88,2.6c-.8-.12-12.03-7.36-13.73-8.47-1.46-.95-1.44-1.54-3.74-2.14-3.14-2.29-6.32-4.68-10.14-5.88l2.13-3.73,1.58-.81c.91-1.7,2.5-2.3,3.76-3.46,2.04.06,3.49,1.88,4.8,2.67h.01Z"/>
    <path class="cls-63" d="M460.98,478.34c1.95,1.35,3.92,2.46,5.87,3.74,3.71,2.43,7.31,5.04,11.2,7.21-.84,1.05-2.17,1.88-2.91,2.97-.37.54-.18,1.42-.28,1.57-.97,1.35-2.65,2.41-3.2,3.2-1.91.49-2.66-1.22-4.27-2.14.66-.19,2.21.8,1.06-.79-4.25-5.91-8.9-10.5-15.45-13.91-2.07-1.08-4.65-2.58-6.96-2.38,1.79-2.11,3.65-4.19,5.87-5.87,2.49,2.24,6.24,4.44,9.07,6.41h0Z"/>
    <path class="cls-43" d="M432.16,474.6c-.94,1.81-1.75,3.67-3.73,4.53.3,1.17,5.62,5.59,6.9,6.44.95.63,1.45,1.01,2.7.77-.33.53-.92,1.54-1.07,2.14-1.66-1.14-3.57-2.89-5.34-3.74-1.39-2.05-3.86-3.39-5.87-4.8-1.68-1.18-2.34-3.14-5.05-2.67-.65.11-4.13,3.17-4.56,3.74l-.53-.53c2.71-4.09,8.06-11.44,9.61-15.48.07-.19.47-.37.53-.53l7.97,7.67c-1,.74-1.11,1.6-1.56,2.48v-.02Z"/>
    <path class="cls-82" d="M410.27,505.56l1.07.53c-1.28,1.38-2.78,4.6-3.74,6.41-1.49.77-2.17,2.3-3.18,3.51-.92,1.11-2.37.1-1.09,2.89-.4-.12-1.11.09-1.6,0-2.22-1.65-4.16-4.45-6.41-5.87-.31-.2-.73-.39-1.07-.53-.24-.1-.74.07-1.07,0-.12-.13.54-1.06.53-1.6v-.53c1.26-.64,1.77-1.34,2.14-2.67,2.2-.88,2.88-2.84,4.21-4.64.33-.82-.59-.8-1.01-1.24-.52-.54-1.25-.89-1.6-1.6l.53-1.07c3.16,2.93,6.93,5.36,9.95,8.5.91.15,1.85-1.43,2.33-2.09h.01Z"/>
    <path class="cls-82" d="M485,501.83c-4.39,5-.53,4.11,2.43,6.39,1.34,1.03,3.4,3.46,5.05,4.82l-.53,2.14c-.86-.74-2.39-2.41-3.4-2.1-2.39,3.04-5.48,5.42-7.81,8.51l-.53-1.07c.32-.46,1.03-1.65.82-2.14-.29-.66-4.72-4.17-5.67-5.03-.72-.66-.94-1.83-1.02-1.9,3.51-3.22,6.82-6.73,10.14-10.14l.53.53h-.01Z"/>
    <path class="cls-22" d="M387.32,519.44c-.02.09-.55.32-.46.71.11.47,6.31,5.38,7.4,6.23s1.99,1.76,3.2,2.67l.53,1.06h-1.07c-.91-.66-3.78-2.81-4.5-2.7-1.77,3.06-5.15,4.74-7.78,6.98l-1.07-.53c.17-.17.41-.36.53-.53.11-.15.7-.26.56-.78-.08-1.4-5.77-6.12-7.5-6.69-.09-.09.09-.44,0-.53,2.83-.34,4.77-3.18,6.94-4.8.69-.52,2.31-.82,2.94-2.13.44-.04.32.75.26,1.06l.02-.02Z"/>
    <path class="cls-103" d="M397.46,500.22c.35.71,1.08,1.06,1.6,1.6-2.15-.57-3.2,4.09-3.67,5.62-.1.31.48.22.47.25-.36,1.33-.88,2.03-2.14,2.67,0-.07-.6-.46-.51-1.23.18-1.67,2.11-8.55,3.71-8.91h.54Z"/>
    <path class="cls-33" d="M411.87,571.75c2.48-2.68,5.32-5,8.01-7.47,1.53-1.41,3.53-2.77,5.09-4.26,1.72-1.65,3.68-4.96,5.59-5.89-4.53,7.1-11.82,12.88-18.68,17.61h-.01Z"/>
    <path class="cls-50" d="M427.35,446.31c1.43,3.19,4.96,5.34,7.21,7.99.54-.65,1.21-1.09,1.87-1.59-.04,1.52-1.44,2.15-2.67,2.67-2.42-2.7-5.21-5.3-7.47-8.01-.39-1.46.91-.92,1.07-1.07h0Z"/>
    <path class="cls-61" d="M436.96,468.73c-1.46,2.01-2.51,4.57-4.8,5.87.46-.88.57-1.73,1.56-2.48l-7.97-7.67c.09-.26-.06-.74,0-1.07,1.05.94,7.3,6.81,7.81,6.91.88.16,1.91-2.1,3.4-1.57h0Z"/>
    <path class="cls-6" d="M451.37,469.8l-.47,1.54c.38.13.7.33,1,.59-2.22,1.68-4.08,3.76-5.87,5.87-.36.42-1.23.53-1.07,1.6h-.53c-.06,0-.51-.76-1.07-.53,2.49-3.17,5.33-6.07,8.01-9.07Z"/>
    <path class="cls-75" d="M410.27,463.39c.23.13,1.11-.3,1.08.27l-1.07,3.46,1.06-.53c-.64,2.75-3.45,4.84-4.8,6.94.11-.31-.32-.54-.53-.53.45-3.45,4.82-6.09,4.27-9.61h0Z"/>
    <path class="cls-14" d="M462.05,474.6c-1.82,2.79,2.85,4.17,4.56,5.34.45.31.59.92.78,1.07h-1.07l.53,1.07c-1.95-1.28-3.92-2.39-5.87-3.74l1.06-.26c-1.14-.78-2.19-2.23-.93-3.36.27-.24.86-.04.93-.11h.01Z"/>
    <path class="cls-28" d="M406,488.48c.22.23.31.82.53,1.07h-1.07l.53,1.6c-1.97-1.93-3.78-4.34-5.34-5.87.33.1.57-.29.53-.53,1.66.81,3.54,2.43,4.8,3.74h.02Z"/>
    <path class="cls-2" d="M460.98,571.22l-2.13,4.26c2.05.82,4.53,3.21,5.33,5.35-2.17-2.21-5.45-4.03-6.41-6.94,1.08-1.02,2.59-2.08,3.2-2.67h.01Z"/>
    <path class="cls-9" d="M397.99,555.2c2.29.59,2.28,1.19,3.74,2.14h-1.07l1.07,1.6-6.94-3.74c.1-.09.07-.47.3-.52,1.14,1.07,2.75.48,2.9.52h0Z"/>
    <path class="cls-93" d="M369.17,502.89l5.86,5.61,2.14,1.32c-.14.11-.1.6-.77.57-3.22-1.87-5.21-4.57-7.23-7.51h0Z"/>
    <path class="cls-98" d="M449.77,580.29c-.55.23-.6.51-.53,1.07-1.34-1.42-2.88-2.87-4.27-4.27l.53-1.07c1.47,1.36,3.2,2.5,4.27,4.27Z"/>
    <path class="cls-96" d="M371.31,517.84c.54,2.35,3.55,2.7,3.74,5.34-1.81-1.62-3.49-2.93-5.34-4.8.57-.07,1.1-.25,1.6-.53h0Z"/>
    <path class="cls-95" d="M469.52,553.6h-1.07c-1.43-2.67-4.22-5.15-6.41-7.47,2.49,1.15,4.75,3.86,6.71,5.86.57.58.65,1.5.76,1.62h.01Z"/>
    <path class="cls-92" d="M436.43,586.16c-1.21-1.03-2.37-2.08-3.55-3.15-.29-.05-4.34,2.66-4.99,3.15,2.78-4.06,6.4-5.43,8.54,0h0Z"/>
    <path class="cls-18" d="M368.1,533.32c-1.18,2.12-2.41,3.11-4.8,3.74l3.73-3.47c-.86-.69-1.44-1.57-2.13-2.4,1.92-.36,2.28,1.3,3.2,2.14h0Z"/>
    <path class="cls-61" d="M424.68,462.33c-2.81-2.59-4-4.02-6.41-6.94,2.46,1.97,4.79,4.22,6.41,6.94Z"/>
    <path class="cls-74" d="M485.53,537.59c-.38-.32-.7-.73-1.07-1.07.49-.7.89-1.68,1.6-2.67l.26,1.06c.81-1.19,2.06-2.2,2.94-3.2l-3.74,5.87h0Z"/>
    <path class="cls-82" d="M416.14,481.01c-.43.57-.73,2.31-1.59,2.94.26.72,1.38.62,1.59.8.88.75,2.62,2.12,3.2,2.67,1.21,1.13,2.26,2.93,3.74,4.27-.18.55-.7.4-1.07.53-1.89.7-2.65,1.76-3.2,3.74-2.8,2.29-4.84,6.4-6.41,9.61-.29.21-.87.32-1.07.53l-1.07-.53c.66-.92,3.88-6.47,3.78-7.16-2.87-2.17-5.49-4.74-8.05-7.26l-.53-1.6h1.07c.17.18.35.35.53.53.35.35.42,1.29,1.33,1.07.61-.14,1.94-3.43,2.41-4.27.55-.99,1.07-1.15,1.6-2.67.93-.99,2.5-2.68,3.2-3.74l.53.53h.01Z"/>
    <path class="cls-70" d="M480.73,521.58c-2.62,3.46-4.47,7.4-6.78,11.08-.92,1.47-3.24,3.18-2.83,5.47-2.05-1.74-4.69-3.18-6.94-5.34-.46-.45-.67-1.05-1.54-1.14.18-.5.3-1.03.47-1.53.94-2.78,2.96-4.51,3.74-7.47.09-.34.4-.71.53-1.07.12.08.41-.08.53,0,.73.5,1.63.71,2.14,1.07.18.13.33.39.53.53.51.36,1.4.9,1.6,1.07.53.43,2.22,3.34,3.19,2.67.51-2.62,3.5-4.5,4.81-6.4l.53,1.07h.02Z"/>
    <path class="cls-82" d="M457.24,540.26c-.41,1.57.37,1.34.98,1.95,1.33,1.32,2.55,2.57,3.82,3.93,2.18,2.32,4.97,4.81,6.41,7.47-.42-.4-4.68-3.63-4.99-3.64-1.39-.03-2.69,3.05-3.55,4.17l-3.73,2.67c-.61-2.8-4.66-4.91-5.92-6.66-.51-.71-.43-1.81-.5-1.88,1.75-2.43,3.56-4.77,5.61-6.95.53-.57,1.57-.75,1.86-1.05h.01Z"/>
    <path class="cls-25" d="M463.65,521.04c.5.65,1.47,1.53,1.49,2.28.02,1.18-1.92,5.41-2.55,6.79-1.12,2.43-2.53,3.81-3.2,6.41-.04.16.03.35,0,.53-.18.16-.41.32-.53.53-.49.82-.95,1.98-1.6,2.67-.29.31-1.33.49-1.86,1.05-2.05,2.18-3.86,4.52-5.61,6.95-.17-.17-3.65-1.02-4.27-2.14-.02-.19.06-.46,0-.53,2.35.02,4.18-1.52,5.88-2.93,6.6-5.48,10.81-15.15,10.14-23.76,1.03.82,1.32,1.07,2.14,2.14h-.03Z"/>
    <path class="cls-59" d="M463.11,530.12c-.17.5-.3,1.04-.47,1.53.88.09,1.08.69,1.54,1.14-2.57-.52-2.89,3.49-4.8,3.74.67-2.6,2.08-3.97,3.2-6.41h.53,0Z"/>
    <path class="cls-71" d="M458.84,537.59c.12-.21.35-.37.53-.53-.04.25-.29.46-.53.53Z"/>
    <path class="cls-22" d="M444.43,479.41c.15,1.7,1.42,1.55,2.14,2.14,2.15,1.76,4.45,3.36,6.41,5.34-1.53-.19-4.06.78-2.67,2.14-1.09.87-.84,1.33-1.07,1.6-.62.73-2.23,1.14-2.14,2.67-.34.2-.72.34-1.07.53-.4.22-1.45,1.21-1.59,1.07.04-.62-.08-1.15-.54-1.6-.91-.9-5.46-3.79-6.94-4.8.15-.59.74-1.61,1.07-2.14,1.63-2.63,3.44-5.05,5.34-7.47.56-.23,1.01.53,1.07.53h0Z"/>
    <path class="cls-91" d="M356.89,612.85c.1-1.2,1.28-.52,1.48-.69,2.78-2.32,5.57-5.39,8.4-7.88.45-.4,1.16.01,1.24-.07,1.65-1.6,2.64-3.26,4.89-4.96,2.19-1.66,4.94-3.59,7.44-4.58l-.47-.98c2.36.01,4.49-3.42,5.85-4.04,16.55-7.51,30.79-18.29,42.87-31.05,1.1-1.16,3.27-1.62,3.02-3.92l6.4,5.07c-3.52,4.34-7.78,9.13-11.97,12.86-14.2,12.67-31.86,20.49-46.71,32.02-2.99,2.32-4.15,4.19-6.55,6.47-.13.13-.83-.35-1.51.38-.41.45-.44,1.38-.51,1.38h-13.88.01Z"/>
    <path class="cls-78" d="M434.29,566.41c-.25,1.04.61,1.11,1.07,1.6l-5.87,3.73c.81-2.09,3.4-3.77,4.8-5.34h0Z"/>
    <path class="cls-22" d="M457.78,489.55c1.02.58,2.27,1.07,3.2,1.6,1.16.66,2.55,1.44,3.74,2.14.83.49,1.75,1.09,2.67,1.6,1.61.91,2.36,2.63,4.27,2.14-.11.15.08,1.05-.29,1.56-1.61,2.29-5.53,4.85-3.98,8.05-.79-.32-1.82-.42-2.67-.53-1.46-1.31-2.76-1.84-4.27-2.67-1.25-.68-1.88-1.01-3.2-1.6-.48-.22-.87-.72-1.6-.53-.67-.1-.57-.52-.53-1.07.05-.75.71-1.95,1.07-2.67.12-.24.86-1.33,1.07-1.6.14-.19.37-.34.53-.53s.37-.35.53-.53c.45-.5,1.69-.73,1.58-1.81-.07-.35-3.19-2.73-3.71-2.99l1.6-.53v-.03Z"/>
    <path class="cls-65" d="M474.32,511.43c.08.07.3,1.23,1.02,1.9.95.87,5.38,4.37,5.67,5.03.21.49-.5,1.68-.82,2.14-1.31,1.9-4.3,3.78-4.81,6.4-.98.68-2.66-2.24-3.19-2.67.91-.12,1.46,1.31,1.6-.26.43-4.61.2-9.37-1.6-13.62.69.57,1.91.88,2.14,1.07h-.01Z"/>
    <path class="cls-37" d="M472.19,510.37c1.8,4.25,2.03,9.01,1.6,13.62-.14,1.57-.69.14-1.6.26-.2-.17-1.09-.7-1.6-1.07,1.41-4.7.25-9.73-.53-14.41.72.49,1.46,1.05,2.14,1.6h-.01Z"/>
    <path class="cls-39" d="M467.38,506.63c.19.08.35.43.53.53,1.59,4.81,3.43,10.41,2.14,15.48-.5-.36-1.41-.57-2.14-1.07.59-.65,1.63-.14,1.65-1.32.03-1.06-.44-5.23-.64-6.37-.55-3.15-.9-4.51-3.15-6.73-.34-.33-.79-.82-1.07-1.07.85.11,1.88.21,2.67.53v.02Z"/>
    <path class="cls-1" d="M470.05,508.77c.78,4.68,1.94,9.71.53,14.41-.21-.15-.35-.4-.53-.53,1.3-5.07-.54-10.67-2.14-15.48,1.12.61,1.44,1.13,2.14,1.6h0Z"/>
    <path class="cls-22" d="M419.34,531.72c-1.31,1.5-2.97,4.14-4.27,5.87-.77,1.02-1.87,1.64-2.67,3.2-1.64,1.75-4.69,3.36-5.87,5.34-.2.34-.34.72-.53,1.07-1.12-.67-2.18-.98-3.2-1.6-.9-.55-1.77-1.06-2.67-1.6-1.31-.79-2.76-2.61-4.8-2.67,1.92-1.78,4.47-4.82,6.41-6.94.5-.54.59-1.29,1.6-1.07,1.4.94,6.19,4.2,7.47,4.27,1.76.1,1.4-.51,2.14-1.07.83-.64,1.04-1.07,1.6-1.6.64-.61.99-.93,1.6-1.6.83-.91,1.65-1.95,2.67-2.67.14.35-.03.89.53,1.07h-.01Z"/>
    <path class="cls-7" d="M401.2,531.18c.58.4,1.56,1.75,2.14,2.14-1.01-.22-1.1.52-1.6,1.07-1.3-1.29-3.38-3.23-4.8-4.27h1.07l-.53-1.07c.81.61,2.87,1.53,3.74,2.14h-.02Z"/>
    <path class="cls-88" d="M384.12,533.32c-1.44-3.04-4.56-4.97-6.94-7.47,1.74.58,7.42,5.29,7.5,6.69.14.52-.45.63-.56.78h0Z"/>
    <path class="cls-69" d="M393.72,510.9c.01.54-.65,1.47-.53,1.6.33.08.83-.09,1.07,0l-6.94,6.94c.06-.32.18-1.1-.26-1.06-.62,1.31-2.24,1.61-2.94,2.13l9.61-9.61h0Z"/>
    <path class="cls-55" d="M412.41,484.21c-.53,1.52-1.05,1.68-1.6,2.67l-.26-.52c-1.03,1.44-3.35,1.78-3.47,3.73-.18-.18-.36-.35-.53-.53-.23-.24-.31-.84-.53-1.07-.51-1.78,6.63-6.79,6.93-6.41.06.76-.29,1.45-.53,2.13h0Z"/>
    <path class="cls-89" d="M428.42,523.71l7.48,5.08-8.02,10.93c-.1.08-.62,1.33-1.6,2.14-.89.74-2.55,1.6-3.74,2.67-1.27.38-6.19-3.17-6.79-3.88-.69-.82-.69-2.04-.69-3.06,1.3-1.73,2.96-4.37,4.27-5.87.13-.15,2-1.07,2.94-2.13,1.58-1.79,3.66-6.71,6.13-5.87h.02Z"/>
    <path class="cls-22" d="M428.42,522.64c5.63,3.65,11.75,6.53,17.45,10.07l.65.04c.18-.81.67-1.43,1.12-2.1h1.6c-1.61,2.48-2.7,5.13-4.27,7.47-.55.82-3.51,3.5-3.59,4,.03,1.52,1.4,1.38,1.98,1.88s2.05,1.49,2.14,1.6c.06.08-.02.34,0,.53.04.35-.03.72,0,1.07-.53-.42-2.65-1.18-3.2-1.6-.73-.56-1.38-1.06-2.14-1.6-1.68-1.2-6.89-5.96-8.4-6.33-.55-.13-3.28,1.58-3.87,2.06l8.02-10.93-7.48-5.08v-1.07h-.01Z"/>
    <path class="cls-82" d="M452.97,559.47c.22-.17,1.39-.94,1.76-1.18.72-.48,1.04-.79.9.38-4.14,4.97-7.41,9.4-12.42,13.63-.6.51-.19,1.76-1.48.73-.5-.4-5.65-5.44-5.9-5.78-.41-.56-.64-.62-.26-1.36.98-1.91,5.27-3.66,5.11-6.41.95-.89,6.27,6.82,8.53,5.87.07-.33-.09-.81,0-1.07.88-2.6,1.62-3.16,3.74-4.8h.02Z"/>
    <path class="cls-51" d="M440.16,543.99c-.04,1.14,1.26,1.22-.24,1.62-4.96,1.33-9.29.94-14.17-.56-.18-.23,2.01-1.82.53-2.66v-.53c.98-.81,1.5-2.05,1.6-2.14.59-.48,3.33-2.19,3.87-2.06,1.51.37,6.73,5.13,8.4,6.33h.01Z"/>
    <path class="cls-35" d="M446.57,548.8c1.93,1.58,3.94,3.1,5.87,4.8-2.64,2.68-8.01,4.83-11.74,4.27-2.02-1.64-4.48-3.89-6.41-5.34.64-1.04,1.76.51,2.93.58,1.78.11,7.54-1.68,9.21-2.6,1.18-.65.21-.63.14-1.72h0Z"/>
    <path class="cls-102" d="M452.97,559.47c-2.12,1.64-2.86,2.21-3.74,4.8-3.13-.91-5.97-4.32-8.54-6.41,3.73.56,9.1-1.59,11.74-4.27.89.79,2.01,1.38,2.63,2.48l-2.1,3.4h.01Z"/>
    <path class="cls-97" d="M445.5,547.2c.36.29.68,1.29,1.07,1.6.07,1.09,1.04,1.07-.14,1.72-1.67.92-7.43,2.71-9.21,2.6-1.17-.07-2.28-1.62-2.93-.58-1.61-1.21-4.74-2.19-5.34-4.27,3.39,1.14,7.59,1.47,11.08.67,2.2-.51,4.57-1,2.26-3.34.56.42,2.67,1.18,3.2,1.6h0Z"/>
    <path class="cls-52" d="M426.28,542.39c1.47.84-.71,2.44-.53,2.66,4.88,1.5,9.21,1.89,14.17.56,1.5-.4.21-.47.24-1.62.76.55,1.4,1.04,2.14,1.6,2.31,2.34-.06,2.83-2.26,3.34-3.49.81-7.69.48-11.08-.67-1.93-.65-3.24-2.14-5.34-2.14l2.67-3.73h-.01Z"/>
    <path class="cls-58" d="M415.07,537.59c0,1.02,0,2.23.69,3.06.6.71,5.51,4.26,6.79,3.88-1.18,1.07-2.57,2.58-3.74,3.74-3.19-.27-5.01-3.48-7.24-5.34-.1-.23.64-1.75.84-2.14.8-1.56,1.9-2.18,2.67-3.2h-.01Z"/>
    <path class="cls-23" d="M418.81,548.26c-.64.64-1.51,2.16-2.14,2.67-3.54-.49-6.85-3.33-10.14-4.8,1.19-1.97,4.23-3.59,5.87-5.34-.2.39-.94,1.91-.84,2.14,2.23,1.85,4.06,5.07,7.24,5.34h.01Z"/>
    <path class="cls-30" d="M406,547.2c.2.12.34.42.53.53l-1.07.8c4.7,4.35,10.53,9.52,17.08,10.41.06.43-.39.39-.53.53-.19.19-.75.35-1.07.53-6.09-1.77-12.33-6.26-16.53-10.96-.37-.42-2.71-2.85-1.62-3.45,1.02.63,2.08.93,3.2,1.6h.01Z"/>
    <path class="cls-40" d="M406.53,547.73c.6.36,1.1.76,1.6,1.07-1.14.34.64,1.29.91,1.5,2.81,2.23,5.32,4.24,8.58,5.83.55.27,1.91,1.09,2.25.15.72.58,2.87,1.21,2.67,2.67-6.55-.89-12.38-6.06-17.08-10.41l1.07-.8h0Z"/>
    <path class="cls-38" d="M414.54,552c1.84,1.17,3.63,2.9,5.34,4.27-.34.94-1.7.12-2.25-.15-3.27-1.59-5.77-3.6-8.58-5.83-.26-.21-2.05-1.15-.91-1.5,2.07,1.26,4.8,2.18,6.41,3.2h-.01Z"/>
    <path class="cls-42" d="M416.68,550.93c-.71.58-1.5.49-2.14,1.07-1.61-1.02-4.34-1.94-6.41-3.2-.5-.31-1-.71-1.6-1.07-.19-.11-.34-.41-.53-.53.19-.35.33-.73.53-1.07,3.29,1.48,6.6,4.31,10.14,4.8h.01Z"/>
    <path class="cls-4" d="M400.13,543.99c.9.54,1.77,1.05,2.67,1.6-1.1.61,1.24,3.04,1.62,3.45,4.2,4.7,10.44,9.19,16.53,10.96-.59.34-.22,1.33-2.26.98-5.42-.93-16.43-10.78-19.11-15.63-.58-1.06-1.1-1.5.56-1.36h-.01Z"/>
    <path class="cls-12" d="M446.03,477.81c2.31-.19,4.89,1.3,6.96,2.38,6.55,3.4,11.2,8,15.45,13.91,1.15,1.59-.39.6-1.06.79-.91-.52-1.84-1.12-2.67-1.6.68-.2,2.2.83,1.06-.79-4.21-5.97-13.6-13.38-20.81-13.09-.16-1.07.71-1.18,1.07-1.6Z"/>
    <path class="cls-53" d="M431.62,484.75c1.77.84,3.68,2.6,5.34,3.74l-.27.53c-4.19-1.36-8.78-.56-12.76,1.03l.22,2.18c-.27-.23-.82-.31-1.07-.53-1.48-1.34-2.53-3.14-3.74-4.27.17-1.95,5.23-3.36,6.8-3.61,2.41-.38,3.38-.06,5.48.94h0Z"/>
    <path class="cls-86" d="M425.75,479.94c2.01,1.41,4.48,2.75,5.87,4.8-2.1-1-3.07-1.31-5.48-.94-1.56.24-6.63,1.66-6.8,3.61-.58-.54-2.32-1.91-3.2-2.67,1.16-3.2,6.68-3.87,9.61-4.8h0Z"/>
    <path class="cls-13" d="M425.75,479.94c-2.93.94-8.44,1.6-9.61,4.8-.21-.18-1.33-.08-1.59-.8.86-.63,1.16-2.37,1.59-2.94s3.91-3.63,4.56-3.74c2.71-.47,3.36,1.49,5.05,2.67h0Z"/>
    <path class="cls-32" d="M401.73,518.91c.49.09,1.2-.12,1.6,0,.47.14,1.09.79,1.6,1.07.85.46,1.91.31,1.6,1.6-.78-.03-1.93-.18-2.44.52.34,5.89,1.57,11.94,6.71,15.49-1.29-.07-6.07-3.33-7.47-4.27-.57-.38-1.56-1.74-2.14-2.14-2.09-3.76-2.05-8.56-2.13-12.81.94-.11,1.78.37,2.67.53h0Z"/>
    <path class="cls-10" d="M401.73,518.91c-.89-.16-1.72-.64-2.67-.53.08,4.25.04,9.04,2.13,12.81-.87-.6-2.93-1.53-3.74-2.14-1.21-.91-2.17-1.86-3.2-2.67-.04-4.41-1.32-9.33,1.07-13.34,2.25,1.43,4.19,4.22,6.41,5.87h0Z"/>
    <path class="cls-80" d="M395.32,513.04c-2.39,4.02-1.11,8.93-1.07,13.34-1.08-.85-7.29-5.76-7.4-6.23-.09-.39.44-.62.46-.71l6.94-6.94c.34.14.76.34,1.07.53h0Z"/>
    <path class="cls-44" d="M409.2,522.11c-.89-.11-1.99-.51-2.67-.53.31-1.29-.75-1.14-1.6-1.6.74-1.03-.07-2.02.22-3.2.25-1.01,1.78-3.01,2.45-4.27.95-1.81,2.45-5.03,3.74-6.41.2-.21.78-.32,1.07-.53-1.7,3.5-4.55,9.79-4.32,13.62.07,1.14.88,1.83,1.12,2.93h0Z"/>
    <path class="cls-84" d="M399.06,501.83c.42.44,1.34.42,1.01,1.24-1.33,1.8-2.01,3.75-4.21,4.64,0-.03-.56.05-.47-.25.48-1.53,1.52-6.19,3.67-5.62h0Z"/>
    <path class="cls-94" d="M404.93,519.97c-.51-.28-1.13-.93-1.6-1.07-1.28-2.79.17-1.78,1.09-2.89,1.01-1.22,1.68-2.75,3.18-3.51-.67,1.26-2.2,3.26-2.45,4.27-.29,1.18.51,2.17-.22,3.2h0Z"/>
    <path class="cls-27" d="M444.97,479.41c7.21-.29,16.6,7.12,20.81,13.09,1.14,1.62-.38.59-1.06.79-1.19-.69-2.58-1.47-3.74-2.14.2-1.29-.33-1.59-1.1-2.37-2.79-2.78-8.45-6.03-12.08-7.67-.93-.42-1.37-1.34-1.23.43-.71-.58-1.99-.44-2.14-2.14h.54Z"/>
    <path class="cls-104" d="M426.28,495.95h.53c-11.17,2.97-18.13,14.79-17.08,26.15-.17-.02-.36.02-.53,0-.23-1.1-1.05-1.79-1.12-2.93-.23-3.82,2.62-10.12,4.32-13.62,1.56-3.21,3.6-7.31,6.41-9.61.7-.57,2.27-1.96,3.02-2.03l4.45,2.03h0Z"/>
    <path class="cls-79" d="M422.01,492.22l4.27,3.74-4.45-2.03c-.75.07-2.32,1.46-3.02,2.03.55-1.98,1.31-3.04,3.2-3.74Z"/>
    <path class="cls-15" d="M410.8,486.88c-.47.84-1.8,4.13-2.41,4.27-.9.22-.97-.72-1.33-1.07.13-1.95,2.44-2.29,3.47-3.73l.26.52h0Z"/>
    <path class="cls-34" d="M424.15,492.22c1.18,1,2.29,1.94,3.2,3.2v.53c-.17-.03-.36.03-.53,0h-.53l-4.27-3.74c.36-.13.88.02,1.07-.53.25.22.8.31,1.07.53h-.01Z"/>
    <path class="cls-70" d="M450.3,508.77c.15.66-.17,1.14.52,1.86,1.03,1.06,6.03,3.01,7.48,4.01.14.1.29.37.53.53.85.57,2.48,1.82,3.74,2.67.53.36,1.08.71,1.6,1.07s1.08.71,1.6,1.07c.31.21.76,1.03,1.6,1.6-.13.36-.44.73-.53,1.07l-3.2-1.6c-.81-1.06-1.11-1.32-2.14-2.14-.8-.63-1.41-.69-2.14-1.07-.22-.11-.4-1.28-1.32-1.07-.69.47-.76.83-.81,1.6-.01.16-.03.37,0,.53-2.97,3.76-5.37,7.69-8.01,11.74h-1.6c1.45-2.19,2.54-4.64,4.24-6.68-3.16-2.23-6.35-4.55-9.58-6.66.34-.33.68-.83,1.07-1.07,1.57-.97,5.19-6.03,6.41-8.01.23.09.48.3.53.53v.02Z"/>
    <path class="cls-46" d="M465.78,507.16c2.25,2.22,2.59,3.57,3.15,6.73.2,1.14.67,5.31.64,6.37-.03,1.17-1.07.67-1.65,1.32-.12-.08-.41.08-.53,0-.84-.57-1.29-1.39-1.6-1.6h2.13c.29-4.4-1.23-8.59-2.13-12.81h-.01Z"/>
    <path class="cls-24" d="M466.85,522.64c-.77,2.96-2.79,4.7-3.74,7.47h-.53c.63-1.38,2.57-5.61,2.55-6.79-.01-.76-.99-1.63-1.49-2.28l3.2,1.6h0Z"/>
    <path class="cls-73" d="M461.51,518.91c.67,8.61-3.54,18.28-10.14,23.76-1.7,1.41-3.53,2.95-5.88,2.93-.08-.11-1.57-1.12-2.14-1.6.19-.53.66-.42,1.07-.53,1.67,1.52,5.87-2.11,7.12-3.29,5.4-5.09,9.57-14.96,7.83-22.33.73.38,1.34.43,2.14,1.07h0Z"/>
    <path class="cls-20" d="M436.96,488.48c1.48,1.01,6.03,3.9,6.94,4.8.44,1.39-.78,1.68-1.07,2.14,0-1.43-.93-1.62-2.02-1.99-3.89-1.34-9.41-.67-13.43-.12l-.03,2.1c-.91-1.26-2.03-2.21-3.2-3.2l-.22-2.18c3.99-1.59,8.57-2.39,12.76-1.03l.27-.53h0Z"/>
    <path class="cls-56" d="M460.98,491.15c-.93-.53-2.18-1.02-3.2-1.6-1.35-.77-2.97-2.44-4.8-2.67-1.95-1.98-4.25-3.58-6.41-5.34-.14-1.77.3-.86,1.23-.43,3.63,1.64,9.29,4.89,12.08,7.67.78.77,1.3,1.08,1.1,2.37Z"/>
    <path class="cls-47" d="M454.57,500.22c-.12.23-.38.35-.53.53.14-2.02-4.02-5.04-5.6-5.9-1.01-.55-1.41-.71-2.41.03.11-.18-.07-.76,0-1.07.34-.2.73-.33,1.07-.53s.72-.34,1.07-.53c2.51,1.55,8.01,3.92,6.41,7.47h-.01Z"/>
    <path class="cls-17" d="M454.04,489.55c.75.55,2.95,2.38,3.62,3.01.93.89.77,1.08.65,2.32-.17.19-.37.34-.53.53-1.62-1.94-5.64-6.17-8.01-4.8h-.53c.23-.27-.02-.73,1.07-1.6.42-.34.7-.87,1.32-.92.69.6,1.76.97,2.41,1.45h0Z"/>
    <path class="cls-57" d="M443.9,493.29c.46.45.58.98.54,1.6.15.14,1.2-.85,1.59-1.07-.07.31.11.89,0,1.07-.17.29-.81,1.22-1.07,1.6-.28.41-1.23,1.65-1.6,2.14-.59.76-1.85,1.72-2.14,2.14v-1.07c-.11-.1-1.34.84-1.6,1.07.87-1.83,2.11-3.62,3.2-5.34.29-.45,1.51-.75,1.07-2.14h.01Z"/>
    <path class="cls-81" d="M452.97,486.88c1.84.23,3.45,1.9,4.8,2.67l-1.6.53c-.55-.28-1.5-.29-2.14-.53-.66-.48-1.72-.85-2.41-1.45-.62.05-.9.58-1.32.92-1.39-1.36,1.13-2.33,2.67-2.14h0Z"/>
    <path class="cls-72" d="M449.77,490.62c3.26.83,4.48,4.23,7.47,5.34-.21.27-.95,1.37-1.07,1.6-.44-1.82-5.43-6.22-7.12-5.81-.62.15-.76.93-.89,1-.35.2-.73.33-1.07.53-.09-1.53,1.51-1.94,2.14-2.67h.54Z"/>
    <path class="cls-31" d="M460.44,503.43c1.51.82,2.81,1.36,4.27,2.67.28.25.73.74,1.07,1.07.9,4.22,2.42,8.41,2.13,12.81h-2.13c-.52-.36-1.07-.71-1.6-1.07,1.83-.82,1.07-3.27.83-4.83-.58-3.72-2.11-7.76-4.56-10.65h0Z"/>
    <path class="cls-83" d="M457.24,501.83c3.68,2.74,6.21,9.69,6.43,14.2.05,1.13-.17,1.31-1.09,1.81-1.26-.85-2.89-2.1-3.74-2.67l2.66,1.07c1-1.41-2.86-10.62-4.03-12.24-.52-.72-1.3-2.02-2.37-1.11.21-.44.18-1.14.53-1.6.73-.18,1.12.32,1.6.53h0Z"/>
    <path class="cls-64" d="M460.44,503.43c2.45,2.88,3.99,6.93,4.56,10.65.24,1.57,1,4.01-.83,4.83-.52-.36-1.07-.71-1.6-1.07.93-.51,1.15-.69,1.09-1.81-.22-4.51-2.76-11.46-6.43-14.2,1.33.59,1.95.92,3.2,1.6h0Z"/>
    <path class="cls-99" d="M455.64,501.29c-.35.46-.33,1.17-.53,1.6-.13.27-.44.93-.53,1.07-1.18,1.65-3.2,2.98-4.27,4.8-.05-.24-.3-.45-.53-.53.53-.87.59-2.63,1.6-4.27.17-.28.93-1.42,1.07-1.6.15-.2.87-.31,1.07-.53.41-.46.43-.95.53-1.07.15-.18.42-.31.53-.53h.53c-.04.55-.14.97.53,1.07h0Z"/>
    <path class="cls-87" d="M448.17,492.75c.13-.07.27-.85.89-1,1.69-.42,6.68,3.98,7.12,5.81-.36.72-1.01,1.92-1.07,2.67h-.53c1.6-3.56-3.89-5.92-6.41-7.47h0Z"/>
    <path class="cls-11" d="M457.78,495.42c-.16.19-.39.34-.53.53-2.99-1.1-4.21-4.51-7.47-5.34,2.37-1.36,6.39,2.86,8.01,4.8h-.01Z"/>
    <path class="cls-26" d="M456.17,490.08c.52.26,3.64,2.64,3.71,2.99.11,1.08-1.12,1.31-1.58,1.81.12-1.25.28-1.44-.65-2.32-.66-.63-2.86-2.46-3.62-3.01.63.24,1.58.25,2.14.53h0Z"/>
    <path class="cls-82" d="M422.01,512.5c-.48.97-2.57,4.3-2.13,4.8,3.51.5,5.74,3.53,8.54,5.35v1.07c-2.47-.83-4.55,4.09-6.13,5.87-.94,1.06-2.81,1.98-2.94,2.13-.56-.18-.4-.72-.53-1.07-.82-2.06-4.74-3.85-6.94-4.8-1.08-1.2-1.5-1.13-2.14-2.67l1.07-.53h.53c3.13-.65,7.2-9.06,10.68-10.14h0Z"/>
    <path class="cls-25" d="M406.53,521.58c.68.02,1.78.42,2.67.53.03.16,0,.36,0,.53.02.53,0,1.07,0,1.6l-2.13-.53c-1.09,1.29,2.5,10.06,3.61,11.59.69.96.87,1.41,2.26,1.21-.73.56-.37,1.17-2.14,1.07-5.14-3.56-6.37-9.61-6.71-15.49.51-.69,1.66-.54,2.44-.52h0Z"/>
    <path class="cls-48" d="M411.87,525.85c2.2.95,6.12,2.74,6.94,4.8-1.02.72-1.84,1.76-2.67,2.67l-2.66,1.07c-1.11-3.02-3.08-5.72-3.21-9.07.52.18,1.18.35,1.6.53Z"/>
    <path class="cls-8" d="M409.74,523.18c.63,1.54,1.05,1.47,2.14,2.67-.42-.18-1.08-.35-1.6-.53-.43-.15-1.21-1.1-1.61-.26l3.7,10.09,2.18-.22c-.56.53-.77.96-1.6,1.6-1.38.2-1.56-.26-2.26-1.21-1.11-1.54-4.7-10.31-3.61-11.59l2.13.53c0-.53.02-1.07,0-1.6.19.14.45.32.53.53h0Z"/>
    <path class="cls-60" d="M410.27,525.31c.13,3.35,2.1,6.05,3.21,9.07l2.66-1.07c-.61.67-.96,1-1.6,1.6l-2.18.22-3.7-10.09c.4-.84,1.18.1,1.61.26h0Z"/>
    <path class="cls-89" d="M451.37,503.96c-1.02,1.64-1.07,3.4-1.6,4.27-1.21,1.98-4.84,7.04-6.41,8.01-3-.26-3.82-3.76-6.94-3.2-.32,1.38.41.93,1.01,1.37,1.6,1.18,3.37,1.92,4.86,2.89,3.23,2.11,6.42,4.43,9.58,6.66-1.7,2.04-2.8,4.49-4.24,6.68-.44.67-.94,1.29-1.12,2.1l-.65-.04c-5.7-3.54-11.82-6.42-17.45-10.07-2.8-1.82-5.03-4.85-8.54-5.35-.43-.49,1.66-3.82,2.13-4.8.58-1.19,1.08-1.77,1.6-2.67l2.85-1.47c1.85.23,5.27,3.23,6.76,3.6.57.14,1.48-.09,2.14,0-.74-2.66.78-2.41,1.47-3.58,1.56-2.64,2.59-5.04,4.4-7.64.29-.42,1.55-1.37,2.14-2.14,2.76-1.69,7.47,2.72,8.01,5.34v.04ZM446.88,521.79c-5.46-3.54-11.69-7.02-17.35-10.13-1.16-.64-1.41-2.25-3.14-1.69-.35.11-4.16,5.63-4.22,5.99-.04.23.54.83.38,1.35,1-.93,1.89,1.02,3.26,1.8,5.74,3.28,11.06,6.35,16.61,9.94.9.58,1.95,2.67,4.15,1.37,1.01-.6.5-1.8.66-2.17.06-.15,1.44-1.71,1.55-2.06.21-.62.69-2.57.4-2.96-1.41.09-1.82-1.12-2.31-1.43h.01Z"/>
    <path class="cls-89" d="M457.24,518.91c.11.7.91,1.44.88,2.85-.14,6.29-4.54,14.31-9.41,18.24-1.61,1.3-4.47,3.76-6.41,2.13l2.67-4.01c1.57-2.35,2.66-5,4.27-7.47,2.64-4.05,5.04-7.98,8.01-11.74h-.01Z"/>
    <path class="cls-66" d="M457.24,518.37c1.88-.07,1.46-.32,1.6,1.31.71,8.41-6,21.4-14.41,23.78-.41.12-.88,0-1.07.53-.59-.5-1.96-.35-1.98-1.88.07-.5,3.04-3.18,3.59-4l-2.67,4.01c1.94,1.63,4.8-.83,6.41-2.13,4.87-3.93,9.27-11.95,9.41-18.24.03-1.41-.76-2.14-.88-2.85-.03-.16-.01-.37,0-.53h0Z"/>
    <path class="cls-51" d="M428.95,497.02c0,.79.95,1.46.83,2.16-.17,1-3.24,6.1-4.03,7.44-.49.83-1.35,1.84-2.14,3.2-.52.9-1.02,1.48-1.6,2.67-3.48,1.09-7.55,9.49-10.68,10.14l9.63-11.62c2.38-4.02,6.17-7.32,7.39-12.02-.96-3.95-6.9-.17-8.75,1.22-6,4.51-10.29,15.09-8.81,22.42-.53-.01-.93-.51-1.07-.53-1.05-11.36,5.91-23.18,17.08-26.15.17.03.36-.03.53,0,.44.09,1.1.82,1.6,1.07h.02Z"/>
    <path class="cls-45" d="M410.8,522.64l-1.07.53c-.09-.21-.35-.39-.53-.53,0-.17.03-.37,0-.53.18.02.36-.02.53,0,.14.02.53.52,1.07.53Z"/>
    <path class="cls-3" d="M442.83,495.42c-1.09,1.72-2.33,3.51-3.2,5.34-.68.59-.89,1-1.42,1.64-2.36.19-2.73-1.43-4.04-2.31-1.72-1.15-3.36-2.14-5.22-3.07-.5-.25-1.16-.98-1.6-1.07v-.53l.03-2.1c4.02-.56,9.55-1.22,13.43.12,1.08.37,2.01.56,2.02,1.99h0Z"/>
    <path class="cls-90" d="M454.57,503.96c1.97,2.3,3.55,5.75,4.44,8.64.28.9,1.1,2.34-.7,2.04-1.46-1-6.45-2.95-7.48-4.01-.69-.72-.37-1.2-.52-1.86,1.07-1.82,3.09-3.16,4.27-4.8h0Z"/>
    <path class="cls-104" d="M459.38,517.84c1.75,7.37-2.43,17.24-7.83,22.33-1.25,1.18-5.45,4.81-7.12,3.29,8.41-2.38,15.12-15.37,14.41-23.78-.14-1.63.28-1.37-1.6-1.31.05-.77.12-1.13.81-1.6.93-.21,1.11.95,1.32,1.07h0Z"/>
    <path class="cls-73" d="M455.11,502.89c1.06-.91,1.85.38,2.37,1.11,1.17,1.62,5.03,10.83,4.03,12.24l-2.66-1.07c-.25-.17-.39-.44-.53-.53,1.8.3.98-1.14.7-2.04-.89-2.89-2.47-6.34-4.44-8.64.1-.14.41-.8.53-1.07h0Z"/>
    <path class="cls-29" d="M442.3,517.31c-1.49-.97-3.26-1.72-4.86-2.89-.6-.44-1.33,0-1.01-1.37,3.11-.56,3.94,2.94,6.94,3.2-.39.24-.73.74-1.07,1.07h0Z"/>
    <path class="cls-76" d="M454.04,500.76c-.1.12-.13.6-.53,1.07-.62-2.03-4.32-5.07-6.11-5.92-1.13-.54-1.31-.76-1.9.58h-.53c.26-.38.9-1.32,1.07-1.6,1-.73,1.4-.58,2.41-.03,1.58.86,5.74,3.88,5.6,5.9h-.01Z"/>
    <path class="cls-70" d="M428.95,497.02c1.86.92,3.5,1.91,5.22,3.07,1.31.88,1.68,2.5,4.04,2.31.53-.64.74-1.05,1.42-1.64.26-.23,1.49-1.17,1.6-1.07v1.07c-1.8,2.6-2.83,5-4.39,7.64-.69,1.17-2.21.91-1.47,3.58-.66-.1-1.56.14-2.14,0-.5-2.04-4.1-3.16-5.91-4-.78-.36-1.89.12-1.57-1.34.79-1.34,3.87-6.45,4.03-7.44.12-.7-.83-1.38-.83-2.16v-.02Z"/>
    <path class="cls-67" d="M445.5,496.49c2.56,1.3,5.97,2.89,6.94,5.87-.14.18-.9,1.33-1.07,1.6-.53-2.62-5.25-7.02-8.01-5.34.37-.49,1.32-1.73,1.6-2.14h.54Z"/>
    <path class="cls-19" d="M453.51,501.83c-.2.23-.92.34-1.07.53-.97-2.98-4.38-4.57-6.94-5.87.59-1.35.77-1.12,1.9-.58,1.79.85,5.49,3.89,6.11,5.92h0Z"/>
    <path class="cls-41" d="M410.8,522.64c-1.48-7.32,2.81-17.9,8.81-22.42,1.85-1.39,7.79-5.17,8.75-1.22-1.22,4.7-5.01,8.01-7.39,12.02l-9.63,11.62h-.54Z"/>
    <path class="cls-41" d="M446.88,521.79c.49.32.9,1.53,2.31,1.43.3.39-.19,2.34-.4,2.96-.12.35-1.49,1.91-1.55,2.06-.16.37.35,1.57-.66,2.17-2.2,1.3-3.25-.79-4.15-1.37-5.55-3.59-10.87-6.65-16.61-9.94-1.37-.79-2.26-2.73-3.26-1.8.15-.52-.42-1.12-.38-1.35.06-.36,3.87-5.88,4.22-5.99,1.73-.56,1.98,1.05,3.14,1.69,5.66,3.11,11.89,6.59,17.35,10.13h-.01Z"/>
    <path class="cls-68" d="M425.75,506.63c-.33,1.46.79.98,1.57,1.34,1.81.84,5.41,1.96,5.91,4-1.49-.37-4.92-3.38-6.76-3.6l-2.85,1.47c.79-1.36,1.64-2.37,2.14-3.2h-.01Z"/>
  </g>
</svg>