<?xml version="1.0" encoding="UTF-8"?>
<svg id="Calque_1" data-name="Calque 1" xmlns="http://www.w3.org/2000/svg" viewBox="0 0 505.94 779.39">
  <defs>
    <style>
      .cls-1 {
        stroke: #1d1d1b;
        stroke-miterlimit: 10;
        stroke-width: 3px;
      }
    </style>
  </defs>
  <path class="cls-1" d="M111.47,1.5h257.32c10.6,0,19.19,8.59,19.19,19.19v370.27c0,33.64-5.89,73.95-17.64,109.12-31.52,94.28-101.01,214.58-349.52,277.38-9.96,2.52-19.28-6.44-19.28-16.72v-36.84c0-8.11,6.23-14.87,14.32-15.5,51.43-3.98,227.22-31.76,291.55-225.25,10.99-33.08,16.34-67.8,16.13-102.68l-1.85-296.58c-.06-9.46-7.73-17.12-17.19-17.18l-180.64-.93c-6.85-.03-12.38-5.6-12.38-12.44V1.49h0Z"/>
  <path class="cls-1" d="M441.3,1.5h35.65c15.16,0,27.48,12.32,27.48,27.48v198.96c0,13.2-10.72,23.91-23.91,23.91h-11.61c-15.24,0-27.62-12.38-27.62-27.62V1.49h0Z"/>
  <path class="cls-1" d="M203.18,148.46h48.96c9.48,0,17.16,7.68,17.16,17.16v225.05c0,53.69-15,106.45-44.09,151.56-35.27,54.73-103.35,91.93-207.2,118.12-8.66,2.19-16.51-6.42-16.51-15.35v-43.39c0-7.95,5.88-14.67,13.75-15.7,28.45-3.72,95.08-18.52,142.6-77.16,27.82-34.34,42.76-77.33,43.16-121.54.66-72.67,2.14-238.77,2.14-238.77l.03.03Z"/>
</svg>