<?xml version="1.0" encoding="UTF-8"?>
<svg id="Calque_1" data-name="Calque 1" xmlns="http://www.w3.org/2000/svg" viewBox="0 0 1600 1000">
  <defs>
    <style>
      .cls-1 {
        fill: #747770;
      }

      .cls-2 {
        fill: #ff5f57;
      }

      .cls-3 {
        opacity: .6;
      }

      .cls-4 {
        fill: #603818;
      }

      .cls-5 {
        fill: #5f3819;
      }

      .cls-6 {
        fill: #28c840;
      }

      .cls-7 {
        fill: #747973;
      }

      .cls-8 {
        fill: #f9f7f6;
      }

      .cls-9 {
        fill: #fbf9f9;
      }

      .cls-10 {
        fill: #232323;
        opacity: .39;
      }

      .cls-11 {
        fill: #febc2e;
      }

      .cls-12 {
        fill: #525651;
      }

      .cls-13 {
        fill: #3f3d3d;
        opacity: .89;
      }

      .cls-14 {
        fill: #5f3718;
      }
    </style>
  </defs>
  <rect class="cls-10" width="1600" height="1000"/>
  <g class="cls-3">
    <circle class="cls-2" cx="140" cy="110" r="10"/>
    <circle class="cls-11" cx="170" cy="110" r="10"/>
    <circle class="cls-6" cx="200" cy="110" r="10"/>
    <rect class="cls-13" x="120" y="150" width="1360" height="740" rx="24" ry="24"/>
  </g>
  <g>
    <path class="cls-12" d="M671.22,622.6c-.72-2.04-29.05-20.68-33.84-24.57-65.02-52.78-101.62-138.37-97.37-222.15h510.45c.55,17.42-.43,34.71-2.88,51.93,39.86-10.37,78.89-17.96,96.86,27.88,5.53,14.11,10.18,42.75,8.02,57.6-4.27,29.32-38.23,42.21-63.96,45.65-21.95,2.93-42.97,3.42-55.94-17.27l-11.64-28.72c-58.28,113.35-187.31,170.9-310.06,126.98-13.68-4.9-26.11-12.35-39.63-17.34h-.01ZM561.63,397.53c4.94,156.92,155.26,276.71,309.32,222.21,91.54-32.38,152.14-122.69,157.91-218.62.16-1.21-1.49-3.59-2.21-3.59h-465.03.01ZM1081.88,442.69c-12.71,1.2-36.7,5.82-39.76,20.82-3.01,14.77.44,52.97,8.55,65.8,6.94,10.98,20.11,9.15,32.19,8.15,19.36-1.61,48.86-10.03,48.38-33.81-.32-15.48-5.03-42-15.3-54.06-8.45-9.92-21.91-8.04-34.06-6.9h0Z"/>
    <path class="cls-4" d="M589.03,592.3c1.82,44.72,41.88,73.74,79.36,90.13,78.44,34.3,191.6,32.19,266.74-10.02,29.83-16.75,58.2-43.62,59.09-80.11h56.24c-2.32,79.57-80.11,126.59-148.53,146.44-77.64,22.52-168.61,20.26-244.43-7.91-60.01-22.29-123.2-68.46-124.7-138.53h56.24-.01ZM568.84,602.4h-12.99c3.65,37.5,33.13,66.83,63.57,85.73,98.86,61.39,271.67,60.26,363.93-13.62,18.13-14.52,43.99-45.51,44.07-69.93.01-4.5-9.81-1.22-13.03-2.18-2.42,36.25-31.53,65.93-60.67,84.3-88.32,55.68-241.39,55.06-328.53-2.9-27.28-18.14-54.24-47.18-56.35-81.4h0Z"/>
    <path class="cls-7" d="M561.63,397.53h465.03c.72,0,2.37,2.38,2.21,3.59-5.77,95.93-66.37,186.24-157.91,218.62-154.07,54.5-304.38-65.29-309.32-222.21h0ZM922.12,574.99c6.49-1.48,10.38-11.64,12.22-17.35,14.92-46.27-5.23-120.88-49.28-145.4-4.05-2.25-19.11-8.94-22.79-8.94h-23.07c-.21,0-3.79,1.74-3.6,2.16,9.82,11.31,24.52,23.61,30.55,37.24,14.83,33.53,3.47,68.52,11.71,103.7,3.07,13.11,8.25,26.71,18.29,35.8,7.39,6.69,15.56,3.95,23.04-2.22,2.76-2.27,1.91-3.28,2.91-5h.02ZM818.3,417.73c-.7.73-2.7,2.62-2.88,2.89-5.67,1.03-10.46,12.31-12.23,17.34-12.93,36.86,4.1,101.25,30.23,129.84,15.61,17.08,33.96,29.4,58.42,23.05-7.76-13.53-22.36-30.34-25.62-45.76-8.14-38.44,6.49-84.77-19.33-119.17-5.33-7.1-24.17-22.96-28.59-8.18h0ZM587.56,439.36c2.72-7.63-2.02-27.39-11.52-17.32,9.74-1.71,7.75,8.81,8.69,15.15.29,1.97.55,4.34,2.83,2.17ZM617.85,439.36c1.92-5.61.21-21.1-7.81-20.24-2.93.32-7.4,5.02-12.35,2.94l2.95,2.23c-1.87,6.45-1.24,11.02-7.29,15.06h8.66l1.68-15.6c2.61-1.29,7.08-3.08,9.15-.27,2.08,4.39,1.53,9.28,2.18,13.71.29,1.97.55,4.34,2.83,2.17h0ZM635.17,437.93c2.06-.36,5.73-1.46,7.21-1.44,0,.96-.05,1.92,0,2.88h5.76c1.76-.8-3.86-2.86-5.76-2.88,0-4.41,2.51-8.24-.1-12.13-9.98-8.24-21.42,5.53-13.39,14.87,3.61,1.24,4.9-1.06,6.28-1.3h0ZM659.7,432.14c-1.61-5.79-3.23-11.99-10.53-9.83-3.17.94-7.02,7.64-1.05,6.94l4.32-5.06-2.84,13.72,5.73-8.65c.66,1.44,4.66,12.53,7.21,10.08l2.89-15.87-5.74,8.65v.02ZM671.21,422.07h-4.31v1.41h4.31v-1.41ZM683.99,422.26l-8.44-.19,4.33,2.89-4.34,8.64c5.07-.48,7.12.27,7.42,5.55l5.56.22c1.4-3.87-2.61-2.3-2.91-3.8-.77-3.92,1.07-9.19-1.61-13.3h-.01ZM711.23,422.52c-1.15-.66-7.13-1.7-6.84.96,12.55-.33,1.98,15.41,13.7,16.03,7.6.4,13.49-8.7,9.5-15.43-4.84-6.03-11.87,1.35-15.19.94-.77-.09-.71-2.24-1.17-2.5ZM747.65,422.06c-4.59.17-13.8-1.59-15.86,3.62-.95,2.41,1.83,2.94,2.86,2.13.43-.34-1.25-4.22,2.88-2.87,1.95,3.68-2.9,4.55-2.9,5.15,0,3.8,2.07,7.05-.71,12.13,7.7-2.65,1.46-11.54,10.82-11.53l-3.28-1.4c-2.71-.4-.93-5.73,2.57-5.84,1.15-.03-.23,4.5,3.59,2.92l.02-4.31h.01ZM764.94,423.5c-4.67-3.05-15.8-2.77-15.85,4.32,2.88-.43-.15-3.67,5.02-2.89s-2.17,4.81-2.18,5.16c-.1,3.49,2.14,7.2-.71,12.13,7.7-2.65,1.46-11.54,10.82-11.53.14-3.03-6.57.65-4.3-5.02,1.64-4.08,5.45-.67,5.75-.74l2.86,4.32,4.35-4.31c-.92,2.65-.8,6.88-1.72,9.13-1.22,2.99-5.12,1.11-4.03,5.28,4.25-.38,9.74,1.59,12.94-2.17l-7.17.73c-.34-5.79,3.64-5.36,7.2-7.93l-4.33-.72c1.49-11.86,4.54-2.25,8.03-1.49s.65-4.24,4.95-2.83c-.27,6.25-.47,10.76-5.76,14.41h12.97l-7.19-2.14c2.77-3.28,1.56-7.68,7.19-6.52l-4.33-1.43,1.47-5.76,5.74,2.88.02-4.32c-5.24.37-11.5-1.82-15.16,2.88l-2.75-3.01c-5.01-.62-9.17.77-13.82,1.57h-.01ZM702.93,423.51c-13.96,5.25-4.7,23.83,7.22,12.99-3.41.07-7.52,2.45-10.19-.96l2.97-12.03h0ZM665.46,439.36l10.06-3.61c-1.71-.83-2.5,1.79-4.94,2.08-2.45.29-5.97-3.95-5.12,1.54h0ZM792.27,466.86c-40.84-1.22-88.78,1.43-117.3,34.7-7.77,9.06-14.32,20.81-13.83,33.04,11.3-12.93,22.36-24.46,38.4-31.53,29.68-13.08,64.3-6.44,95.69-4.53l-2.96-31.67h0ZM797.97,507.33c-34.93.74-79.6-3.42-112.31,10.69-22.04,9.51-29.32,35.23-13.76,54.12,31.36,38.08,126.88,41.86,168,18-22.48-22.19-34.52-52.59-41.93-82.81h0Z"/>
    <path class="cls-14" d="M797.97,507.33c7.42,30.22,19.45,60.62,41.93,82.81-41.11,23.86-136.63,20.08-168-18-15.56-18.89-8.28-44.61,13.76-54.12,32.71-14.11,77.38-9.95,112.31-10.69h0Z"/>
    <path class="cls-5" d="M922.12,574.99c2.31-3.97,8.8-15.22,2.54-17.82-11.93-4.95-9.77,8-15.59,12.69-4.72,3.8-14.6,2.42-12.9,12.34-10.04-9.1-15.22-22.69-18.29-35.8-8.25-35.18,3.12-70.17-11.71-103.7-6.03-13.63-20.73-25.94-30.55-37.24-.19-.42,3.39-2.16,3.6-2.16h23.07c3.67,0,18.74,6.69,22.79,8.94,44.04,24.52,64.2,99.14,49.28,145.4-1.84,5.7-5.73,15.87-12.22,17.35h-.02Z"/>
    <path class="cls-5" d="M818.3,417.73c4.42-14.78,23.26,1.09,28.59,8.18,25.82,34.4,11.19,80.73,19.33,119.17,3.27,15.42,17.86,32.23,25.62,45.76-24.46,6.35-42.81-5.97-58.42-23.05-26.13-28.59-43.16-92.98-30.23-129.84,1.77-5.03,6.55-16.32,12.23-17.34-3.6,5.24-11.64,20.15-1.84,22.87,6.61,1.84,10.52-9.65,13.62-14.69,2.48-4.04,9.06-7.26,4.22-13.36-4.03-5.08-9.81-1.14-13.11,2.3h-.01Z"/>
    <path class="cls-5" d="M792.27,466.86l2.96,31.67c-31.39-1.91-66.01-8.55-95.69,4.53-16.04,7.07-27.11,18.6-38.4,31.53-.49-12.23,6.06-23.98,13.83-33.04,28.52-33.26,76.47-35.91,117.3-34.7h0Z"/>
    <path class="cls-9" d="M896.16,582.2c-1.7-9.92,8.18-8.54,12.9-12.34,5.82-4.69,3.66-17.65,15.59-12.69,6.26,2.6-.23,13.85-2.54,17.82-1,1.71-.15,2.72-2.91,5-7.48,6.16-15.66,8.91-23.04,2.22h0Z"/>
    <path class="cls-8" d="M815.41,420.61c.18-.27,2.18-2.15,2.88-2.89,3.3-3.44,9.08-7.38,13.11-2.3,4.84,6.1-1.74,9.32-4.22,13.36-3.1,5.05-7.01,16.53-13.62,14.69-9.8-2.72-1.76-17.62,1.84-22.87h0Z"/>
    <path class="cls-1" d="M717.72,425.32c.71-.74,3.74-1.99,4.58-1.77,5,4.47,2.08,11.11-2.82,14.36-4.79,1.06-4.33-9.92-1.76-12.59Z"/>
    <path class="cls-1" d="M635.17,437.93c-.47.22-3.77.18-4.2-.12-3.17-6.48-1.07-12.81,6.33-14.31,4.98,2.38.42,13.25-2.13,14.43Z"/>
  </g>
  <rect class="cls-7" x="576.05" y="414.97" width="222.71" height="28.71"/>
</svg>