<?xml version="1.0" encoding="UTF-8"?>
<svg id="Calque_1" data-name="Calque 1" xmlns="http://www.w3.org/2000/svg" viewBox="0 0 1600 1000">
  <defs>
    <style>
      .cls-1 {
        fill: #ff5f57;
      }

      .cls-2 {
        opacity: .6;
      }

      .cls-3 {
        fill: #28c840;
      }

      .cls-4 {
        fill: #febc2e;
      }

      .cls-5 {
        fill: #3f3d3d;
      }

      .cls-6 {
        fill: #232323;
      }
    </style>
  </defs>
  <rect class="cls-6" width="1600" height="1000"/>
  <g class="cls-2">
    <circle class="cls-1" cx="140" cy="110" r="10"/>
    <circle class="cls-4" cx="170" cy="110" r="10"/>
    <circle class="cls-3" cx="200" cy="110" r="10"/>
    <rect class="cls-5" x="120" y="150" width="1360" height="740" rx="24" ry="24"/>
  </g>
  <g>
    <path d="M717.46,296.37h151.83c4.28,0,10.61,7.87,10.35,12.35-2.14,71.62,2.83,144.88.02,216.31-4.51,114.66-82.9,179.93-185.72,211.43-6.63,2.03-24.22,7.94-30.15,7.1-4.04-.57-7.6-4.18-8.61-8.07s-.97-20.97-.46-25.58c1.29-11.48,13.23-9.76,21.58-11.12,50.85-8.27,95.47-30.63,126.17-72.72,19.71-27.01,34.15-64.75,35.81-98.36,1.82-36.87-.42-76.49-.73-113.49-.18-21.35,1.99-47.51.05-68.14-.44-4.68-2.9-7.77-7.7-8.32l-105.41-.7c-2.56-.19-7.04-4.73-7.04-6.97v-33.71Z"/>
    <path d="M770.52,380.48h32.7c2.46,0,8.72,6.58,8.36,9.66-1.88,46.4,2.45,94.71.01,140.89-4.18,79.18-53.48,118.57-124.32,140-4.95,1.5-18.52,6.03-22.87,5.89-4.67-.15-8.99-4.58-9.61-9.13s-.6-27.32.58-30.68c.57-1.61,2.64-4.33,4.07-5.27,3.53-2.33,16.79-3.82,22.13-5.23,50.86-13.46,84.84-53.96,87.31-106.92,2.1-44.99-.75-91.75.61-136.91l1.04-2.3Z"/>
    <path d="M905.66,296.37h22.36c7.02,0,16.84,10,17.63,17.08v114.7c-3.87,18.87-29.32,20.32-37.57,3.65-.66-1.33-2.41-5.75-2.41-6.93v-128.5Z"/>
  </g>
</svg>