<?xml version="1.0" encoding="UTF-8"?>
<svg id="Calque_1" data-name="Calque 1" xmlns="http://www.w3.org/2000/svg" viewBox="0 0 955.91 1047.83">
  <defs>
    <style>
      .cls-1 {
        opacity: .6;
      }

      .cls-2 {
        stroke: #1d1d1b;
        stroke-miterlimit: 10;
        stroke-width: 3px;
      }
    </style>
  </defs>
  <g class="cls-1">
    <rect width="955.91" height="1047.83" rx="24" ry="24"/>
  </g>
  <path class="cls-2" d="M381.05,257.67h176.48c7.27,0,13.16,5.89,13.16,13.16v253.95c0,23.07-4.04,50.72-12.1,74.84-21.62,64.66-69.28,147.17-239.72,190.24-6.83,1.73-13.22-4.42-13.22-11.47v-25.27c0-5.56,4.27-10.2,9.82-10.63,35.27-2.73,155.84-21.78,199.96-154.49,7.54-22.69,11.21-46.5,11.06-70.42l-1.27-203.41c-.04-6.49-5.3-11.74-11.79-11.78l-123.89-.64c-4.7-.02-8.49-3.84-8.49-8.53v-35.56Z"/>
  <path class="cls-2" d="M607.27,257.67h24.45c10.4,0,18.85,8.45,18.85,18.85v136.46c0,9.05-7.35,16.4-16.4,16.4h-7.96c-10.45,0-18.94-8.49-18.94-18.94v-152.78h0Z"/>
  <path class="cls-2" d="M443.95,358.46h33.58c6.5,0,11.77,5.27,11.77,11.77v154.35c0,36.82-10.29,73.01-30.24,103.95-24.19,37.54-70.88,63.05-142.11,81.01-5.94,1.5-11.32-4.4-11.32-10.53,0-8.87,0-21.21,0-29.76,0-5.45,4.03-10.06,9.43-10.77,19.51-2.55,65.21-12.7,97.8-52.92,19.08-23.55,29.33-53.04,29.6-83.36.45-49.84,1.47-163.76,1.47-163.76Z"/>
</svg>