<?xml version="1.0" encoding="UTF-8"?>
<svg id="Calque_1" data-name="Calque 1" xmlns="http://www.w3.org/2000/svg" viewBox="0 0 1600 1000">
  <defs>
    <style>
      .cls-1 {
        fill: #ff5f57;
      }

      .cls-2 {
        opacity: .6;
      }

      .cls-3 {
        fill: #28c840;
      }

      .cls-4 {
        fill: #fff;
      }

      .cls-5 {
        fill: #febc2e;
      }

      .cls-6 {
        fill: #3f3d3d;
      }

      .cls-7 {
        fill: #232323;
      }
    </style>
  </defs>
  <rect class="cls-7" width="1600" height="1000"/>
  <g class="cls-2">
    <circle class="cls-1" cx="140" cy="110" r="10"/>
    <circle class="cls-5" cx="170" cy="110" r="10"/>
    <circle class="cls-3" cx="200" cy="110" r="10"/>
    <rect class="cls-6" x="120" y="150" width="1360" height="740" rx="24" ry="24"/>
  </g>
  <g>
    <path d="M1043.27,361.88c11.58,2.59,33.96-1.51,35.24,14.24l-.79,359.92c-.54,1.76-2.64,5.01-4.27,5.79-6.01,2.87-47.55-4.93-57.89-5.85-54.01-4.83-108.69-4.69-162.69,0-16.28,1.41-36.4,6.71-51.98,6.84-16.08.13-36.95-5.39-53.71-6.84-60.07-5.18-117.84-4.06-177.78,1.69-14.1,1.35-48.3,13.78-47.9-7.49l.05-354.04c1.28-15.75,23.66-11.65,35.24-14.24,1.9-1.83-1.43-44.87.06-52.78,1.86-9.88,19.35-10.38,27.65-10.93,76.61-5.1,152.05,21.65,214.67,63.65,35-20.71,69.96-40.31,109.53-51.44,34.34-9.66,88.72-17.55,123.53-10.42,19.96,4.09,7.62,46.49,11.04,61.93ZM789.96,712.47v-331.29c-60.49-43.6-137.88-69.69-213.03-61.23v334.65l2.65,2.33c54.53-6.37,109.57,7.24,159.51,28.41l50.87,27.13ZM1023.12,319.96c-75.41-8.57-152.26,17.79-213.03,61.23v331.29c16.13-7.9,31.17-17.89,47.51-25.46,50.19-23.25,107.69-36.02,163.08-30.3l2.44-2.11v-334.65ZM556.8,382.02l-15.1,1.68v337.16c69.85-10.31,140.98-10.49,211.35-5.05l-14.49-8.13c-46.72-21.5-93.86-33.31-145.77-32.18-6.96.15-21.75,3.86-27.83,2.56-1.77-.38-8.16-5.88-8.16-6.68v-289.36ZM1058.35,383.7l-15.1-1.68v289.36c0,1.18-7.34,6.92-9.57,7.24-5,.74-17.27-2.8-23.15-3.03-51.66-2.04-102.63,10.36-149.04,32.09l-14.49,8.13c70.35-5.47,141.51-5.24,211.35,5.05v-337.16Z"/>
    <path class="cls-4" d="M789.96,712.47l-50.87-27.13c-49.95-21.17-104.98-34.78-159.51-28.41l-2.65-2.33v-334.65c75.15-8.46,152.55,17.63,213.03,61.23v331.29Z"/>
    <path class="cls-4" d="M1023.12,319.96v334.65l-2.44,2.11c-55.39-5.72-112.89,7.06-163.08,30.3-16.34,7.57-31.38,17.56-47.51,25.46v-331.29c60.78-43.43,137.62-69.8,213.03-61.23Z"/>
    <path class="cls-4" d="M556.8,382.02v289.36c0,.81,6.39,6.31,8.16,6.68,6.08,1.3,20.87-2.41,27.83-2.56,51.91-1.14,99.05,10.68,145.77,32.18l14.49,8.13c-70.37-5.44-141.49-5.26-211.35,5.05v-337.16l15.1-1.68Z"/>
    <path class="cls-4" d="M1058.35,383.7v337.16c-69.83-10.29-141-10.52-211.35-5.05l14.49-8.13c46.41-21.73,97.38-34.14,149.04-32.09,5.89.23,18.15,3.77,23.15,3.03,2.23-.33,9.57-6.06,9.57-7.24v-289.36l15.1,1.68Z"/>
  </g>
</svg>