<?xml version="1.0" encoding="UTF-8"?>
<svg id="Calque_1" data-name="Calque 1" xmlns="http://www.w3.org/2000/svg" viewBox="0 0 1600 1000">
  <defs>
    <style>
      .cls-1 {
        fill: #6d9597;
      }

      .cls-2 {
        fill: #ff5f57;
      }

      .cls-3 {
        fill: #6e9597;
      }

      .cls-4 {
        fill: #3f3d3d;
        opacity: .89;
      }

      .cls-4, .cls-5 {
        isolation: isolate;
      }

      .cls-6 {
        fill: #37607f;
      }

      .cls-7 {
        opacity: .6;
      }

      .cls-8 {
        fill: #28c840;
      }

      .cls-9 {
        fill: #5a808f;
      }

      .cls-5 {
        fill: #232323;
        opacity: .39;
      }

      .cls-10 {
        fill: #537b8a;
      }

      .cls-11 {
        fill: #febc2e;
      }

      .cls-12 {
        fill: #59818f;
      }

      .cls-13 {
        fill: #244e79;
      }

      .cls-14 {
        fill: #77a19b;
      }

      .cls-15 {
        fill: #2c577c;
      }

      .cls-16 {
        fill: #8db8a2;
      }

      .cls-17 {
        fill: #83ada0;
      }

      .cls-18 {
        fill: #416a81;
      }

      .cls-19 {
        fill: #668d94;
      }
    </style>
  </defs>
  <rect class="cls-5" width="1600" height="1000"/>
  <g class="cls-7">
    <circle class="cls-2" cx="140" cy="110" r="10"/>
    <circle class="cls-11" cx="170" cy="110" r="10"/>
    <circle class="cls-8" cx="200" cy="110" r="10"/>
    <rect class="cls-4" x="120" y="150" width="1360" height="740" rx="24" ry="24"/>
  </g>
  <g>
    <path class="cls-15" d="M347.71,584.89c-13.6,6.28-30.06,9.21-49.23,8.98-2.7-.03-5.37-.99-8.69-1.01,6.4.2,10.7-1.48,14.95-4.41,4.12-2.85,5.55-7.91,9.34-11.71,2.05-2.06-3.65-7.4-5.05-7.61-14.68-2.21-9.47-3.41-16.03-8.26,15.16,2.17,30.08.16,42.86-6.18"/>
    <path class="cls-18" d="M520.13,456.9c10.47,5.83,18.21,12.41,25.04,22.52,16.85-6.74,30.84-9.17,47.59-.25,47.04-64.82,144.05-22.04,130.13,56.51-8.77,49.47-67.52,75.37-109.97,47.59v51.19h-33.59l.04-132.01c-3.59-4.18-20.11-2.22-22.15,1.11-1.74,2.83,1.46,14.71,1.34,19.67-.59,24.61-14.36,45.15-33.62,58.45,3.04-4.47,1.94-10.48,4.11-15.5,5.69-13.13,10.97-87.77,2.4-98.57-1.86-2.34-9.96-4.75-11.31-10.71h-.01ZM644.49,481.28c-41.56,7.13-40.57,73.87-.24,79.46,63.79,8.84,59.22-89.57.24-79.46Z"/>
    <path class="cls-14" d="M1243.17,535.28h-108.78c7.58,23.7,37.09,31.67,58.7,22.71,7.35-3.05,14.59-14.71,15.68-14.71h32.79c-19.37,57.06-95.36,71.05-130.23,19.05-41.62-62.08,24.36-140.95,91.9-107.89,14.86,7.28,39.93,34.18,39.93,51.25v29.59h0ZM1206.38,503.29c-11.09-30.69-58.74-29.84-70.38,0h70.38Z"/>
    <path class="cls-19" d="M1032.02,504.89h-34.39c-11.1-21.62-40.45-32.72-61.48-18.29-58.22,39.93,23.77,112.88,61.48,51.89h34.39c-19.22,81.51-144.96,70.19-148.83-13.52-4.16-89.97,127.51-107.48,148.83-20.07h0Z"/>
    <path class="cls-6" d="M520.13,456.9c1.35,5.96,9.45,8.37,11.31,10.71,8.58,10.8,51.45,51.07,2.91,100.29-3.84,3.89-6.38,9.31-9.42,13.78-68.93,47.59-145.8-43.13-95.04-107.04,22.42-28.24,58.91-35.18,90.25-17.73h-.01ZM478.13,481.27c-35.79,6.1-41.22,60.64-9.69,76.11,35.32,17.33,69.77-22.18,51.38-56.18-8.7-16.09-23.62-23.01-41.7-19.93h.01Z"/>
    <path class="cls-15" d="M335.84,554.7c9.93-4.93,18.56-12.49,24.99-22.76,31.38-50.14-20.62-109.2-75.84-91.04,4.97-4.59,11.9-4.51,18.69-5.05,7.44-.6,13.24-6.73,13.46-14.19v-.27c.24-8.72-7.87-13.34-16.6-13.29-1.84.01-25.09,3.62-26.87,3.72,3.55-2.7,25.4-6.59,29.66-6.2,108.3,9.96,124.69,142.19,44.38,179.27"/>
    <path class="cls-10" d="M779.28,407.31v43.19h28.79v31.99h-28.79v71.18c0,8.77,22.07,12.17,28.79,10.4v27.99c-10.13,5.52-32.81.61-42.72-5.27-7.33-4.35-19.66-19.86-19.66-28.33v-151.17h33.59v.02h0Z"/>
    <path class="cls-16" d="M1308.76,450.5c37.24-10.45,81.58,15.51,81.58,56.79v83.98h-33.59v-83.98c0-2.58-4.49-11.78-6.41-14.38-10.18-13.79-27.29-15.41-41.58-7.21,1.27-1.23,2.1-3.21,3.95-4.8,2.46-2.13,7.35-3.24,8.98-5.47,3.02-4.13,1.43-16.48.78-21.83l-13.71-3.09h0Z"/>
    <path class="cls-17" d="M1308.76,450.5l13.71,3.09c.65,5.36,2.24,17.7-.78,21.83-1.63,2.22-6.51,3.34-8.98,5.47-1.85,1.6-2.68,3.57-3.95,4.8-5.24,5.09-12.8,13.58-12.8,21.6v83.98h-31.99v-93.58c0-20.74,26.1-41.94,44.79-47.19h0Z"/>
    <polygon class="cls-1" points="1075.21 463.3 1075.21 591.27 1041.62 591.27 1041.62 465.7 1044.02 463.3 1075.21 463.3"/>
    <rect class="cls-9" x="827.27" y="463.3" width="31.99" height="127.97"/>
    <rect class="cls-3" x="1041.62" y="407.31" width="33.59" height="44.79"/>
    <rect class="cls-12" x="827.27" y="407.31" width="31.99" height="44.79"/>
    <path class="cls-13" d="M285.3,407.01c3.54-.65,7.17-1.08,10.88-1.3,1.69-.1,3.42-.15,5.16-.17,8.62-.07,16,6.35,16.94,14.92.01.1.02.21.03.31.96,9.22-6.54,17.14-15.8,16.72-2.96-.14-6.81.54-10.14,1.33"/>
    <path class="cls-13" d="M292.38,438.82c-4.08.96-7.39,2.09-7.39,2.09-25.63,8.43-43.99,37.8-41.57,64.78,2.16,24.01,25.23,51.72,49.57,55.2,6.57,4.85,11.79,2.63,15.55,10.47.54,1.12,9.49-.41,9.26,3.74-.42,7.74-6.02,14.21-13.59,15.9-4.7,1.05-9.38,2.05-14.42,1.89-24.63-.76-54.45-23.83-66.9-44.28-33.67-55.28.49-130.29,62.42-141.59"/>
    <path class="cls-13" d="M291.45,560.66c3.55.57,7.61.58,11.18,1.62,1.63.47,3.27,1,4.92,1.57,8.15,2.81,13.32,9.49,10.98,19.72-.02.1-.05.2-.07.3-2.17,9.02-11.15,10.7-20.39,9.87-2.95-.27-6.68-.59-10.09-.96"/>
  </g>
</svg>