<?xml version="1.0" encoding="UTF-8"?>
<svg id="Calque_1" data-name="Calque 1" xmlns="http://www.w3.org/2000/svg" viewBox="0 0 1600 1000">
  <defs>
    <style>
      .cls-1 {
        fill: #ff5f57;
      }

      .cls-2 {
        opacity: .6;
      }

      .cls-3 {
        fill: #28c840;
      }

      .cls-4 {
        fill: #da8ee8;
      }

      .cls-5 {
        fill: #ff00a4;
      }

      .cls-6 {
        fill: #232323;
        opacity: .39;
      }

      .cls-7 {
        fill: #febc2e;
      }

      .cls-8 {
        fill: #3f3d3d;
        opacity: .89;
      }
    </style>
  </defs>
  <rect class="cls-6" width="1600" height="1000"/>
  <g class="cls-2">
    <circle class="cls-1" cx="140" cy="110" r="10"/>
    <circle class="cls-7" cx="170" cy="110" r="10"/>
    <circle class="cls-3" cx="200" cy="110" r="10"/>
    <rect class="cls-8" x="120" y="150" width="1360" height="740" rx="24" ry="24"/>
  </g>
  <g>
    <path class="cls-5" d="M423.16,565.1v-5.47c16.01-1.56,16.6-2.73,16.4-23.63l.2-79.67c-16.01,35.73-41.79,91.58-48.62,108.76h-5.08c-6.64-17.77-28.7-71.47-43.54-106.81-3.32,68.34-3.51,83.77-3.51,87.48.2,10.93,5.08,12.5,18.35,13.86v5.47h-46.28v-5.47c11.33-1.17,16.01-3.51,17.57-14.06,1.17-8.59,1.37-15.62,6.44-86.89.78-10.15-1.17-13.47-18.35-15.04v-5.47h33.98l43.15,99,46.28-99h34.17v5.47c-16.79,1.95-18.94,3.71-18.55,17.38l.78,74.98c.78,20.89,1.37,21.87,18.55,23.63v5.47h-51.94Z"/>
    <path class="cls-5" d="M562.96,565.1v-5.47c12.69-1.56,14.25-3.51,11.52-10.93-2.54-7.62-6.44-17.38-10.54-29.68h-42.18c-3.12,8.79-6.05,16.4-8.79,24.41-4.3,12.69-1.56,14.25,14.45,16.21v5.47h-45.11v-5.47c12.3-1.56,15.43-2.93,22.26-20.5l40.42-102.51,6.25-1.17c12.3,33.39,25.77,70.3,38.08,104.08,6.25,16.99,8.01,18.55,21.87,20.11v5.47h-48.23v-.02ZM543.44,461.03c-6.25,16.79-12.89,34.56-18.75,49.99h36.51l-17.77-49.99h.01Z"/>
    <path class="cls-5" d="M734.79,566.67c-2.54,0-4.69-.2-7.23-.39-14.25-.98-21.87-4.69-30.46-16.79-7.23-9.96-14.25-22.26-20.5-32.22-3.91-6.25-6.44-7.42-16.4-7.42h-6.83v30.66c0,16.6,2.15,17.57,17.77,19.14v5.47h-52.14v-5.47c16.21-1.76,17.57-2.54,17.57-19.14v-77.91c0-16.6-2.15-17.18-17.57-18.94v-5.47h49.79c14.25,0,23.82,1.76,31.24,6.64,8.01,5.08,13.28,13.86,13.28,25.77,0,16.79-10.74,27.34-25.19,33.59,3.51,6.05,11.91,19.14,17.77,27.92,7.22,10.35,10.93,15.23,15.43,20.11,5.27,5.66,9.76,7.81,14.25,8.98l-.78,5.47h0ZM662.74,503.2c10.15,0,16.6-1.56,21.48-5.66,7.62-5.66,10.74-13.47,10.74-24.02,0-20.89-13.86-28.51-28.9-28.51-5.66,0-8.98.78-10.35,1.95-1.76,1.37-2.34,3.32-2.34,8.4v47.84h9.37Z"/>
    <path class="cls-5" d="M840.42,532.69c-1.17,6.05-7.03,26.36-8.98,32.41h-90.8v-5.47c17.77-1.76,19.33-2.73,19.33-19.33v-77.52c0-16.6-1.95-17.57-17.57-19.14v-5.47h52.33v5.47c-15.62,1.56-17.77,2.34-17.77,19.14v79.47c0,11.91,1.56,14.65,12.69,14.84.2,0,14.25.2,15.43.2,9.96,0,12.89-1.17,17.38-6.05,4.88-5.08,8.98-12.89,11.91-20.11l6.05,1.56h0Z"/>
    <path class="cls-5" d="M921.45,435.45c33.39,0,63.27,25.58,63.27,64.44,0,41.98-28.51,68.15-64.44,68.15s-64.83-28.51-64.83-65.22,24.8-67.37,66-67.37h0ZM917.55,442.67c-21.87,0-41.79,18.35-41.79,54.87s19.92,63.07,47.65,63.07c23.63,0,41.4-17.57,41.4-55.26,0-41.01-21.67-62.68-47.25-62.68h-.01Z"/>
    <path class="cls-5" d="M1179.39,443.65c-13.67,1.95-15.62,3.52-20.89,19.53-6.44,19.53-22.07,69.12-32.8,104.08h-6.64c-10.15-30.46-23.24-68.15-33.39-97.05-11.33,33.59-22.85,66.98-33,97.05h-6.44c-9.76-33.58-20.89-70.1-31.44-104.27-5.08-15.82-7.22-17.96-19.92-19.33v-5.47h48.23v5.47c-14.45,1.56-14.84,3.71-12.11,13.47,7.62,26.36,15.43,52.33,23.43,79.86,10.74-31.05,22.46-65.02,32.41-97.05h6.25c10.93,33.2,21.87,64.05,33.2,97.24,8.2-25.97,19.33-60.73,23.63-77.72,2.93-11.33,1.37-13.86-15.23-15.82v-5.47h44.72v5.47h-.01Z"/>
    <path class="cls-5" d="M1289.51,534.06c-1.17,5.08-6.44,25.19-8.4,31.05h-94.9v-5.47c18.16-1.37,19.53-3.12,19.53-19.14v-77.13c0-17.38-2.15-18.35-16.79-19.72v-5.47h59.75c18.36,0,25.97-.2,28.31-.39.2,4.88.98,19.53,1.76,29.88l-5.86.98c-1.76-6.64-3.71-10.74-5.86-14.84-3.12-6.44-7.62-7.81-19.33-7.81h-18.55c-6.05,0-6.44.59-6.44,6.25v43.15h21.67c14.65,0,15.62-2.93,17.96-16.21h6.05v40.22h-6.05c-2.54-14.06-4.1-16.01-18.16-16.01h-21.48v38.86c0,13.67,4.3,14.84,14.06,15.04h18.16c11.91,0,13.86-1.76,18.16-6.83,3.71-4.1,7.81-12.11,10.54-17.96l5.86,1.56h0Z"/>
  </g>
  <g>
    <path class="cls-4" d="M419.02,568.03v-5.47c16.01-1.56,16.6-2.73,16.4-23.63l.2-79.67c-16.01,35.73-41.79,91.58-48.62,108.76h-5.08c-6.64-17.77-28.7-71.47-43.54-106.81-3.32,68.34-3.51,83.77-3.51,87.48.2,10.93,5.08,12.5,18.35,13.86v5.47h-46.28v-5.47c11.33-1.17,16.01-3.51,17.57-14.06,1.17-8.59,1.37-15.62,6.44-86.89.78-10.15-1.17-13.47-18.35-15.04v-5.47h33.98l43.15,99,46.28-99h34.17v5.47c-16.79,1.95-18.94,3.71-18.55,17.38l.78,74.98c.78,20.89,1.37,21.87,18.55,23.63v5.47h-51.94Z"/>
    <path class="cls-4" d="M558.82,568.03v-5.47c12.69-1.56,14.25-3.51,11.52-10.93-2.54-7.62-6.44-17.38-10.54-29.68h-42.18c-3.12,8.79-6.05,16.4-8.79,24.41-4.3,12.69-1.56,14.25,14.45,16.21v5.47h-45.11v-5.47c12.3-1.56,15.43-2.93,22.26-20.5l40.42-102.52,6.25-1.17c12.3,33.39,25.77,70.3,38.08,104.08,6.25,16.99,8.01,18.55,21.87,20.11v5.47h-48.23ZM539.29,463.95c-6.25,16.79-12.89,34.56-18.75,49.99h36.51l-17.77-49.99h.01Z"/>
    <path class="cls-4" d="M730.65,569.6c-2.54,0-4.69-.2-7.23-.39-14.25-.98-21.87-4.69-30.46-16.79-7.23-9.96-14.25-22.26-20.5-32.22-3.91-6.25-6.44-7.42-16.4-7.42h-6.83v30.66c0,16.6,2.15,17.57,17.77,19.14v5.47h-52.14v-5.47c16.21-1.76,17.57-2.54,17.57-19.14v-77.91c0-16.6-2.15-17.18-17.57-18.94v-5.47h49.79c14.25,0,23.82,1.76,31.24,6.64,8.01,5.08,13.28,13.86,13.28,25.77,0,16.79-10.74,27.34-25.19,33.59,3.51,6.05,11.91,19.14,17.77,27.92,7.22,10.35,10.93,15.23,15.43,20.11,5.27,5.66,9.76,7.81,14.25,8.98l-.78,5.47h0ZM658.59,506.13c10.15,0,16.6-1.56,21.48-5.66,7.62-5.66,10.74-13.47,10.74-24.02,0-20.89-13.86-28.51-28.9-28.51-5.66,0-8.98.78-10.35,1.95-1.76,1.37-2.34,3.32-2.34,8.4v47.84h9.37Z"/>
    <path class="cls-4" d="M836.28,535.62c-1.17,6.05-7.03,26.36-8.98,32.41h-90.8v-5.47c17.77-1.76,19.33-2.73,19.33-19.33v-77.52c0-16.6-1.95-17.57-17.57-19.14v-5.47h52.33v5.47c-15.62,1.56-17.77,2.34-17.77,19.14v79.47c0,11.91,1.56,14.65,12.69,14.84.2,0,14.25.2,15.43.2,9.96,0,12.89-1.17,17.38-6.05,4.88-5.08,8.98-12.89,11.91-20.11l6.05,1.56h0Z"/>
    <path class="cls-4" d="M917.31,438.37c33.39,0,63.27,25.58,63.27,64.44,0,41.98-28.51,68.15-64.44,68.15s-64.83-28.51-64.83-65.22,24.8-67.37,66-67.37h0ZM913.4,445.6c-21.87,0-41.79,18.35-41.79,54.87s19.92,63.07,47.65,63.07c23.63,0,41.4-17.57,41.4-55.26,0-41.01-21.67-62.68-47.25-62.68h-.01Z"/>
    <path class="cls-4" d="M1175.25,446.58c-13.67,1.95-15.62,3.52-20.89,19.53-6.44,19.53-22.07,69.12-32.8,104.08h-6.64c-10.15-30.46-23.24-68.15-33.39-97.05-11.33,33.59-22.85,66.98-33,97.05h-6.44c-9.76-33.58-20.89-70.1-31.44-104.27-5.08-15.82-7.22-17.96-19.92-19.33v-5.47h48.23v5.47c-14.45,1.56-14.84,3.71-12.11,13.47,7.62,26.36,15.43,52.33,23.43,79.86,10.74-31.05,22.46-65.02,32.41-97.05h6.25c10.93,33.2,21.87,64.05,33.2,97.24,8.2-25.97,19.33-60.73,23.63-77.72,2.93-11.33,1.37-13.86-15.23-15.82v-5.47h44.72v5.47h-.01Z"/>
    <path class="cls-4" d="M1285.37,536.98c-1.17,5.08-6.44,25.19-8.4,31.05h-94.9v-5.47c18.16-1.37,19.53-3.12,19.53-19.14v-77.13c0-17.38-2.15-18.35-16.79-19.72v-5.47h59.75c18.36,0,25.97-.2,28.31-.39.2,4.88.98,19.53,1.76,29.88l-5.86.98c-1.76-6.64-3.71-10.74-5.86-14.84-3.12-6.44-7.62-7.81-19.33-7.81h-18.55c-6.05,0-6.44.59-6.44,6.25v43.15h21.67c14.65,0,15.62-2.93,17.96-16.21h6.05v40.23h-6.05c-2.54-14.06-4.1-16.01-18.16-16.01h-21.48v38.86c0,13.67,4.3,14.84,14.06,15.04h18.16c11.91,0,13.86-1.76,18.16-6.83,3.71-4.1,7.81-12.11,10.54-17.96l5.86,1.56v-.02Z"/>
  </g>
</svg>