<?xml version="1.0" encoding="UTF-8"?>
<svg id="Calque_1" data-name="Calque 1" xmlns="http://www.w3.org/2000/svg" viewBox="0 0 1600 1000">
  <defs>
    <style>
      .cls-1 {
        fill: #fea100;
      }

      .cls-2 {
        fill: #7f520d;
      }

      .cls-3 {
        fill: #010101;
      }

      .cls-4 {
        fill: #ff5f57;
      }

      .cls-5 {
        fill: #3f3d3d;
        opacity: .89;
      }

      .cls-5, .cls-6 {
        isolation: isolate;
      }

      .cls-7 {
        fill: #e1983b;
      }

      .cls-8 {
        opacity: .6;
      }

      .cls-9 {
        fill: #fb4c0d;
      }

      .cls-10 {
        fill: #fdcc03;
      }

      .cls-11 {
        fill: #28c840;
      }

      .cls-12 {
        fill: #fd4a0a;
      }

      .cls-13 {
        fill: #080604;
      }

      .cls-14 {
        fill: #0d0c0a;
      }

      .cls-15 {
        fill: #fca103;
      }

      .cls-16 {
        fill: #fc7002;
      }

      .cls-6 {
        fill: #232323;
        opacity: .39;
      }

      .cls-17 {
        fill: #ea4d33;
      }

      .cls-18 {
        fill: #fea102;
      }

      .cls-19 {
        fill: #fb080f;
      }

      .cls-20 {
        fill: #febc2e;
      }

      .cls-21 {
        fill: #fc070e;
      }

      .cls-22 {
        fill: #eb4f22;
      }

      .cls-23 {
        fill: #1a160d;
      }

      .cls-24 {
        fill: #050301;
      }

      .cls-25 {
        fill: #fe6f00;
      }

      .cls-26 {
        fill: #fdcc04;
      }

      .cls-27 {
        fill: #090503;
      }

      .cls-28 {
        fill: #fd6f02;
      }

      .cls-29 {
        fill: #351101;
      }
    </style>
  </defs>
  <rect class="cls-6" width="1600" height="1000"/>
  <g class="cls-8">
    <circle class="cls-4" cx="140" cy="110" r="10"/>
    <circle class="cls-20" cx="170" cy="110" r="10"/>
    <circle class="cls-11" cx="200" cy="110" r="10"/>
    <rect class="cls-5" x="120" y="150" width="1360" height="740" rx="24" ry="24"/>
  </g>
  <g>
    <path class="cls-15" d="M586.82,373.53l-1.72,94.74c30.04-2.11,61.33,3.56,91.28-3.46-.25-3.86-2.93-4.99-3.54-9.36-3.46-25.05,4.08-56.44-1.62-81.91h5.17c.04,26.94-.74,54.09.86,80.97,3.75,0-.1-68.05.73-75.05.41-3.48,4.47-1.99,3.58-5.92,1.57.28,3.55-.25,5.17,0,25.4,3.97,55.45,2.54,80.95,0,1.13-.11,2.31.07,3.44,0l1.72,3.44c.26,1.51-.07,3.49,0,5.17.97,22.51-.06,46.23,0,68.9,0,2.3,0,4.59,0,6.89.01,4.98-.98,8.99-1.72,13.78h-91.29l-3.43-3.45v3.45h-91.3c-3.32-1.64-3.28-2.4-3.56-5.86-2.32-28.23.07-63.28.12-92.31h5.17Z"/>
    <path class="cls-3" d="M578.21,277.07l1.72,1.72v93.01c-2.59.24-2.59,4.93,0,5.17v91.29c-.81.24-1.56.91-1.72,1.72h-41.34v-191.18l-1.72,6.01c-.02,62.87.02,125.77,0,188.62-.02,63.7.03,127.49,0,191.18-.01,30.05,1.01,60.48,0,90.5-.11,3.32,1.75,6.91-3.45,5.95v-484c15.45-.32,31.05.47,46.5,0Z"/>
    <path class="cls-19" d="M676.39,668.06c-.03,28.23,1.7,59.22.1,87.07-.18,3.22.39,6.46-3.54,7.66-30.24,1.27-62.57.19-93.01,0v-96.45c13.29,1.99,90.72-3.33,96.45,1.72Z"/>
    <path class="cls-9" d="M871.02,568.16v1.72c.74,30.35-1,60.95,0,91.29-4.08,4.15-8.95,3.34-14.35,3.78l-1.15,1.38c-25.86-1.03-51.92.19-77.51,0-3.06-29.73-1.76-60.47-1.79-90.54,0-3.2,1.79-6.43,1.79-7.63,30.98-.11,62.03.15,93.01,0Z"/>
    <path class="cls-26" d="M1065.64,280.52c-.48,30.32-.41,60.97,0,91.29-.66.32-1.41,1.68-1.72,1.72-28.67,3.4-63.64-2.53-93.01,0l-1.72-91.29v-3.44c24.16,3.51,60.98-.86,87.07-.07,3.28.1,6.52-.16,9.39,1.79Z"/>
    <path class="cls-10" d="M581.65,373.53c.05-31.55-.03-63.19,0-94.74h93.03c-1.69,3.83,1.52,8.37,1.71,10.34,2.47,24.69-.08,57.01,0,82.67,0,.57,0,1.15,0,1.72h-94.73Z"/>
    <path class="cls-27" d="M731.5,568.16c6.77.25,40.17-1.46,42.31,1.61l.75,94.84c-7.77-.03-44.85,4.78-47.99-.25l-.24-94.49v-1.72c1.72.05,3.45-.06,5.17,0Z"/>
    <path class="cls-13" d="M872.74,373.53v93.01l-1.72,3.44h-48.23v-96.46c16.6-.31,33.35.45,49.95,0Z"/>
    <path class="cls-24" d="M967.47,277.07c.19.83.91,1.6,1.72,1.72v3.44c0,29.85.63,59.83-.75,89.67-1.81,2.61-35.77,1.88-41.65,1.74-3.11-.08-5.52-1.84-5.82-1.85v-94.74c15.45-.32,31.05.46,46.5,0Z"/>
    <path class="cls-3" d="M920.96,668.06h46.51s-1.73,94.73-1.73,94.73c-13.35-.45-28.36,1.21-41.34,0l-3.44-1.72c-.05-30.97.07-62.03,0-93.01Z"/>
    <path class="cls-3" d="M920.96,571.6h46.5v93.01c-14.44-2.99-31.95-2.64-46.5,0,0-30.98,0-62.03,0-93.01Z"/>
    <path class="cls-3" d="M578.21,668.06v94.73c-13.49-.1-28.04.83-41.34,0v-94.74s41.34,0,41.34,0Z"/>
    <path class="cls-7" d="M970.91,373.53c-1.07,3.04-3.03,3.17-5.89,3.54-13.78,1.81-85.79-4.83-90.47-.01l-.09,94.65c-1.76.02-8.28,1.54-14.57,1.64-27.86.41-55.77-.12-83.61.08.1,29.61-.05,59.27-.11,88.91,0,3.1,1.84,5.52,1.84,5.83,0,1.2-1.79,4.43-1.79,7.63.03,30.07-1.27,60.81,1.79,90.54-1.53-.01-3.15-1.72-3.44-1.72l-.75-94.84c-2.14-3.07-35.54-1.36-42.31-1.61l41.35-1.71-1.73-94.74c.74-4.79,1.73-8.8,1.72-13.78,6.86-1.5,1.93,10.55,3.44,12.07h46.51s48.23,0,48.23,0l1.72-3.44v-93.01c15.96-.42,31.95-1.97,48.23-1.72.31,0,2.71,1.77,5.82,1.85,5.88.14,39.84.87,41.65-1.74,1.38-29.84.75-59.82.75-89.67l1.72,91.29Z"/>
    <path class="cls-17" d="M970.91,569.88c.06,26.85-.13,53.53,1.08,80.38.11,2.39-2.94,12.63,1.5,12.63h90.43c.05-31.55-.06-63.18,0-94.73h1.72c-.06,34.76,1.41,69.61,1.8,104.12.34,30.17.2,60.48-.83,90.62-1.23,1.76-3.34,1.47-5.19,1.7-28.59,3.44-63.7-.94-92.23-1.81v-194.63h1.72c0,.57,0,1.15,0,1.72ZM1063.92,668.06h-93.01v90.43l2.58,2.58h90.43v-93.01Z"/>
    <path class="cls-7" d="M676.39,289.13c-.2-1.97-3.41-6.51-1.71-10.35h-93.03c-.02,31.56.06,63.19,0,94.74-.04,29.03-2.44,64.08-.12,92.31.28,3.46.25,4.22,3.56,5.86l-1.72,3.44-1.72,94.73h-1.72c-.01-2.87.01-5.74,0-8.61-.11-24.31,1.15-49.96,0-74.06v-210.13c.31,0,2.65-1.78,5.82-1.85,29.31-.67,58.73.76,88.05.12,5.72.3,5.89,10.18,2.58,13.78Z"/>
    <path class="cls-29" d="M924.41,568.16c1.72.05,3.45-.05,5.17,0s3.45-.05,5.17,0c11.44.33,23-.24,34.45,0v194.63c-1.15-.03-2.3.04-3.44,0l1.73-94.74h-46.51c0-1.14,0-2.29,0-3.44,14.55-2.64,32.06-2.99,46.5,0v-93.01h-46.5v-3.44c1.15.02,2.3-.03,3.44,0Z"/>
    <path class="cls-7" d="M1065.64,568.16h-1.72c0-3.44,0-6.89,0-10.33.04-26.96,0-54,0-80.95v-103.34c.32-.04,1.06-1.4,1.72-1.72.89,65.09.12,131.35,0,196.35Z"/>
    <path class="cls-22" d="M676.39,569.88c0,32.7.03,65.48,0,98.18-5.73-5.05-83.16.26-96.45-1.72v-1.72c0-31.55.12-63.18,0-94.73h3.44c-.98,3.07-1.61,6.13-1.79,9.39-1.12,20.44-2.31,58.2-.02,77.68.29,2.51.21,4.43,2.67,5.94h87.84c2.46-1.51,2.38-3.43,2.67-5.94,3.2-27.3-2.57-60.81-.09-88.79h1.72v1.72Z"/>
    <path class="cls-23" d="M578.21,662.89c.35.06,1.06,1.4,1.72,1.72v3.44h-43.07s0,94.73,0,94.73c-1.37-.09-2.79.26-4.16-.15l-1.01-1.57c5.2.96,3.33-2.63,3.45-5.95,1.01-30.03-.01-60.46,0-90.5h1.72c10.85-1.66,30.68-3.62,41.34-1.72Z"/>
    <path class="cls-7" d="M1065.64,280.52c-2.87-1.95-6.11-1.69-9.39-1.79-26.09-.78-62.91,3.58-87.07.07-.81-.12-1.54-.9-1.72-1.72,29.48-.86,64.28-4.94,93.95-1.8,1.91.2,3.84.02,5.18,1.78,1.92,1.73-.94,3.2-.95,3.47Z"/>
    <path class="cls-7" d="M679.83,471.7l-1.73,94.74c14.64.4,29.42-.55,44.07-.08,2.23.07,3.94,1.79,4.17,1.79v1.72h-49.95v-101.62s3.44,3.45,3.44,3.45Z"/>
    <path class="cls-7" d="M767.67,373.53c-25.5,2.54-55.55,3.97-80.95,0h80.95Z"/>
    <path class="cls-7" d="M772.84,382.14c5.22-.96,3.31,2.63,3.45,5.95.72,18.22.61,38.74,0,56.99-.11,3.32,1.75,6.91-3.45,5.95-.06-22.67.97-46.39,0-68.9Z"/>
    <path class="cls-7" d="M920.96,568.16v1.72h-49.95v-1.72c16.32-.08,33.36-.34,49.95,0Z"/>
    <path class="cls-29" d="M579.93,762.79c-.57,0-1.15,0-1.72,0v-94.73h1.72v94.73Z"/>
    <path class="cls-7" d="M672.94,762.79c3.93-1.2,3.36-4.44,3.54-7.66,1.6-27.85-.13-58.84-.1-87.07,1.5,1.32,2.06,1.87,1.82,4.13l-1.74,89.91c-2.13,3.22-3.34.68-3.52.69Z"/>
    <path class="cls-7" d="M681.55,373.53c.89,3.94-3.17,2.44-3.58,5.92-.83,6.99,3.02,75.05-.73,75.05-1.6-26.88-.83-54.03-.86-80.97,0-.57,0-1.15,0-1.72,1.84-.07,3.73,1.46,5.17,1.72Z"/>
    <path class="cls-7" d="M855.51,666.33l1.15-1.38c5.39-.45,10.27.37,14.35-3.78,0,.23,2.43,1.89,1.67,4.06-2.27,6.42-14.21,1.22-17.17,1.11Z"/>
    <path class="cls-7" d="M1258.55,452.76c-3.51-2.67-.27-4.06,0-5.17,4.57,2.01.04,4.85,0,5.17Z"/>
    <path class="cls-7" d="M772.84,376.97l-1.72-3.44c2.1-.09,1.5,2.12,1.72,3.44Z"/>
    <path class="cls-29" d="M924.41,762.79c-1.53-.14-3.25.45-3.44-1.72l3.44,1.72Z"/>
    <path class="cls-29" d="M579.93,278.8l-1.72-1.72c.57-.02,1.15.02,1.72,0v1.72Z"/>
    <path class="cls-16" d="M771.12,471.7l1.73,94.74-41.35,1.71c-1.72-.06-3.45.05-5.17,0-.23,0-1.94-1.72-4.17-1.79-14.65-.47-29.43.48-44.07.08l1.73-94.74h91.29Z"/>
    <path class="cls-1" d="M671.22,373.53c5.7,25.47-1.84,56.86,1.62,81.91.6,4.37,3.28,5.5,3.54,9.36-29.94,7.02-61.24,1.35-91.28,3.46l1.72-94.74h84.4Z"/>
    <path class="cls-16" d="M676.39,471.7v5.17c-5.49-1.01-2.67,5.68-6.86,7.78-3.32,1.67-9.84.72-13.8,2.55v60.28h-39.61v-57.7c0-5.16-16.52-6.43-13.91-12.68l-18.81-1.96,1.72-3.44h91.29Z"/>
    <path class="cls-14" d="M536.87,473.43l.02,94.73c12.95-3.76,27.76-.81,41.32-1.72-.07,1.72.02,3.45,0,5.17h-41.35s0,93.01,0,93.01h-1.72c.03-63.7-.02-127.49,0-191.18h1.72Z"/>
    <path class="cls-23" d="M535.15,473.43c.02-62.85-.02-125.75,0-188.62l1.72-6.01v191.18h41.34c-.19.98.05,2.32,0,3.44h-43.06Z"/>
    <path class="cls-29" d="M579.93,487.21c-.16-3.43-1.99-7.86-1.72-13.78.05-1.13-.19-2.46,0-3.44.16-.82.91-1.49,1.72-1.72v18.95Z"/>
    <path class="cls-29" d="M579.93,376.97c-2.59-.24-2.59-4.93,0-5.17v5.17Z"/>
    <path class="cls-28" d="M967.47,471.7v94.73c-10.45,1.02-22.9-2.21-32.73,1.72-1.72-.05-3.45.05-5.17,0-.24-2.59-4.93-2.59-5.17,0-1.15-.03-2.3.02-3.44,0-16.59-.34-33.63-.08-49.95,0-30.97.15-62.03-.11-93.01,0,0-.31-1.85-2.73-1.84-5.83.06-29.64.21-59.3.11-88.91,27.84-.2,55.75.34,83.61-.08,6.29-.09,12.81-1.61,14.57-1.64,30.95-.41,62.05.03,93.01,0Z"/>
    <path class="cls-18" d="M1063.92,373.53v98.18h-91.29c-1.72,0-3.44,0-5.17,0-30.96.03-62.05-.41-93.01,0l.09-94.65c4.68-4.82,76.69,1.82,90.47.01,2.86-.38,4.83-.51,5.89-3.54,29.37-2.53,64.34,3.4,93.01,0Z"/>
    <path class="cls-2" d="M871.02,469.98l1.72-3.44-1.72,3.44Z"/>
    <polygon class="cls-21" points="1063.92 668.06 1063.92 761.06 973.5 761.06 970.91 758.48 970.91 668.06 1063.92 668.06"/>
    <path class="cls-12" d="M1063.92,568.16c-.06,31.55.05,63.18,0,94.73h-90.43c-4.44,0-1.39-10.25-1.5-12.63-1.21-26.84-1.02-53.52-1.08-80.38,30.85-1.08,62.58,2.23,93.01-1.72Z"/>
    <path class="cls-28" d="M1051.87,471.7v1.72c-.14,1.56-.46,3.22-1.55,4.41-4.79,5.22-39.54,1.4-49.32,2.43-4.33.46-7.53,3.38-10.44,3.55-4.2.23-6.56-4.42-11.02-3.49-4.71,3.4-3.82,47.61-3.54,56.04.12,3.75,1.66,6.96,1.87,10.34.3,4.75-4.46,10.75,1.66,13.73,4.69,2.29,9.52-.87,14.55-.97,15.32-.3,33.61,1.62,48.35.13,7.32-.74,12.36-6.02,21.48-1.78,0,3.44,0,6.89,0,10.33-30.43,3.95-62.16.64-93.01,1.72,0-.57,0-1.15,0-1.72,0-32.01-1.39-64.79,1.72-96.45h79.23Z"/>
    <path class="cls-16" d="M972.64,471.7c-3.12,31.66-1.73,64.44-1.72,96.45h-1.72l-1.72-1.72v-94.73c1.72,0,3.44,0,5.17,0Z"/>
    <path class="cls-28" d="M583.38,475.15l18.81,1.96c-2.6,6.25,13.91,7.52,13.91,12.68v57.7h39.61v-60.28c3.96-1.84,10.48-.89,13.8-2.55,4.19-2.1,1.37-8.79,6.86-7.78v91.29h-1.72c-30.3,2.59-60.84,1.72-91.29,1.72h-1.72l1.72-94.73Z"/>
    <path class="cls-3" d="M578.21,473.43c-.27,5.92,1.56,10.35,1.72,13.78,1.15,24.1-.11,49.75,0,74.06-2.25.83-1.64,3.28-1.72,5.17-13.56.91-28.37-2.03-41.32,1.72l-.02-94.73h41.34Z"/>
    <path class="cls-29" d="M579.93,569.88c.12,31.55,0,63.18,0,94.73-.67-.32-1.37-1.66-1.72-1.72.26-30.4-.35-60.89,0-91.29.02-1.72-.07-3.45,0-5.17.08-1.89-.53-4.34,1.72-5.17.01,2.87-.01,5.74,0,8.61Z"/>
    <path class="cls-7" d="M967.47,566.44l1.72,1.72c-11.45-.24-23.01.33-34.45,0,9.83-3.93,22.27-.7,32.73-1.72Z"/>
    <path class="cls-7" d="M929.58,568.16c-1.72-.05-3.45.05-5.17,0,.24-2.59,4.93-2.59,5.17,0Z"/>
    <path class="cls-25" d="M1060.48,473.43v3.44s3.44,0,3.44,0c0,26.96.04,54,0,80.95-9.12-4.25-14.16,1.03-21.48,1.78-14.74,1.5-33.03-.43-48.35-.13-5.03.1-9.86,3.25-14.55.97-6.12-2.98-1.36-8.98-1.66-13.73-.21-3.39-1.75-6.59-1.87-10.34-.28-8.43-1.17-52.64,3.54-56.04,4.46-.93,6.81,3.72,11.02,3.49,2.9-.16,6.1-3.09,10.44-3.55,9.78-1.03,44.53,2.79,49.32-2.43,1.09-1.19,1.41-2.85,1.55-4.41h8.61Z"/>
    <polygon class="cls-16" points="1063.92 471.7 1063.92 473.43 1060.48 473.43 1051.87 473.43 1051.87 471.7 1063.92 471.7"/>
    <rect class="cls-28" x="1060.48" y="473.43" width="3.44" height="3.44"/>
    <path class="cls-12" d="M674.66,568.16c-2.48,27.98,3.29,61.49.09,88.79-.29,2.51-.21,4.43-2.67,5.94h-87.84c-2.46-1.51-2.38-3.43-2.67-5.94-2.29-19.48-1.09-57.24.02-77.68.18-3.26.8-6.32,1.79-9.39,30.44,0,60.99.87,91.29-1.72Z"/>
    <path class="cls-3" d="M578.21,571.6c-.35,30.39.26,60.89,0,91.29-10.66-1.9-30.48.06-41.34,1.72v-93.02s41.34,0,41.34,0Z"/>
  </g>
</svg>