<?xml version="1.0" encoding="UTF-8"?>
<svg id="Calque_1" data-name="Calque 1" xmlns="http://www.w3.org/2000/svg" viewBox="0 0 1600 1000">
  <defs>
    <style>
      .cls-1 {
        fill: #fe7d4a;
      }

      .cls-2 {
        fill: #fe7c48;
      }

      .cls-3 {
        fill: #ff5f57;
      }

      .cls-4 {
        fill: #fcfcfc;
      }

      .cls-5 {
        opacity: .6;
      }

      .cls-6 {
        fill: #28c840;
      }

      .cls-7 {
        fill: #fbf8f8;
      }

      .cls-8 {
        fill: #fed8ca;
      }

      .cls-9 {
        fill: #fe7b47;
      }

      .cls-10 {
        fill: #fe7c49;
      }

      .cls-11 {
        fill: #fe7b46;
      }

      .cls-12 {
        fill: #3760a1;
      }

      .cls-13 {
        fill: #fe7b48;
      }

      .cls-14 {
        fill: #fefaf9;
      }

      .cls-15 {
        fill: #fe7a45;
      }

      .cls-16 {
        fill: #febc2e;
      }

      .cls-17 {
        fill: #3f3d3d;
      }

      .cls-18 {
        fill: #fef7f5;
      }

      .cls-19 {
        fill: #3b63a3;
      }

      .cls-20 {
        fill: #3861a2;
      }

      .cls-21 {
        fill: #3660a1;
      }

      .cls-22 {
        fill: #232323;
      }

      .cls-23 {
        fill: #fef9f7;
      }

      .cls-24 {
        fill: #3962a2;
      }

      .cls-25 {
        fill: #fefefe;
      }

      .cls-26 {
        fill: #fefbfa;
      }
    </style>
  </defs>
  <rect class="cls-22" width="1600" height="1000"/>
  <g class="cls-5">
    <circle class="cls-3" cx="140" cy="110" r="10"/>
    <circle class="cls-16" cx="170" cy="110" r="10"/>
    <circle class="cls-6" cx="200" cy="110" r="10"/>
    <rect class="cls-17" x="120" y="150" width="1360" height="740" rx="24" ry="24"/>
  </g>
  <g>
    <path class="cls-9" d="M1141.18,681.74v75.52h-564.26c7.32-6.53,13.78-12.69,18.72-21.3,8.24-14.35,9.63-31.14,20.13-44.63,1.89-2.43,9.24-9.59,12-9.59h513.41ZM1112.38,693.44c-1.75.34-5.85-.61-7.05.14-.48.3-3.5,8.44-4.64,9.73,6.31,1.57,9.47-5.16,11.69-9.88ZM668.72,696.13h-30.6v45.85h30.6v-6.29h-23.4v-13.49h19.8v-6.29h-19.8v-13.49h23.4v-6.29ZM732.62,728.49l-9.99-30.94c-1.72-2.5-5.36-1.15-8.02-1.42l15.19,45.32,5.08.59,16.62-45.91-7.66.88-11.23,31.48ZM766.81,696.12h-7.21v7.2h7.21v-7.2ZM862.2,696.13h-7.2v16.18c-17.48-10.69-23.32,5.35-20.49,20.92,1.76,9.65,13.63,11.43,20.48,6.05l.06,2.63,7.15.08v-45.85ZM874.8,696.13v12.59c1.74-1.44,7.06-4.02,7.27-5.81l-.07-6.78h-7.2ZM925.19,741.98l-16.64-44.96-6.65-.78-17.2,45.74,7.97-.12,2.72-8.33,18.43-.41,4.13,8.46,7.23.41ZM1000.79,696.12h-8.11v7.2h8.11v-7.2ZM1053.89,696.12h-7.21v7.2h7.21v-7.2ZM1074.58,709.62l-.39-9.05-6.81-.85v9.9s-4.5,0-4.5,0c-1.53,6.76,3.68,4.68,4.47,5.43.7.66-.34,16.31.01,19.32.85,7.22,7.37,8.12,13.52,7.63l-.04-5.36c-10.85.84-4.7-14.76-6.27-21.62l5.47-.39.84-5h-6.31ZM975.6,700.62h-6.31s0,9,0,9h-4.51s-.05,3.98-.05,3.98l4.43,1.98c1.19,12.04-5.1,28.6,13.62,26.41l-.05-5.36-6.28-1.57c-1.27-2.06-1.46-19.57-.03-20.55l6.36-.39v-4.5s-6.81-.84-6.81-.84l-.39-8.15ZM707.41,741.98v-23.83c0-5.52-7.83-9.76-12.94-9.4-2.52.18-5.84,2.75-7.27,2.71-.48-.01-.38-1.67-1.08-1.84-1.88-.46-4.56.26-6.6,0v32.37h7.2v-22.93c0-1.63,5.36-4.26,7.56-4.04,1.99.2,5.93,3.18,5.93,4.94v22.03h7.2ZM806.4,727.6c2.57-25.82-32.47-24.96-28.72,2.17,1.99,14.36,17.66,15.03,27.81,8.6-2.46-8.28-6.7-2.03-11.26-1.72-5.78.39-10.21-3.12-9.44-9.05h21.6ZM957.48,739.18c-1.35-9.45-6.32-2.71-10.24-2.71-12.13,0-11.18-23.04.83-21.44,2.46.33,4.2,3.09,6.18,2.58,7.99-4.6-.89-8.57-6.24-8.84-14.39-.72-20.7,16.07-13.67,27.22,4.94,7.84,15.9,7.54,23.14,3.19ZM1118.68,727.6c2.26-23.33-29.32-25.67-29.77-2.24-.32,16.44,16,21.8,27.96,12.54-3.01-7.28-5.87-1.92-10.44-1.37-6.24.76-10.03-2.8-10.26-8.93h22.5ZM766.81,709.62h-7.2v32.37h7.2v-32.37ZM999.89,709.62h-6.3v32.37h6.3v-32.37ZM1016,709.71l-7.11-.09,11.25,31.47c1.06,1.26,3.77,1.24,5.26.75,2.4-.79,11.34-28.09,13.19-32.22l-7.66.88-7.19,19.8-3.82-7.87-3.91-12.72ZM1053.89,709.62h-7.2v32.37h7.2v-32.37Z"/>
    <path class="cls-12" d="M595.53,614.04c-11.4,17.14-20.63,31.16-28.93,50.65-4.26,10.01-7.26,21.92-11.76,31.44-.63,1.33.14,2.22-2.21,1.79-1.37-3.27.76-4.52,1.38-7.16,1.97-8.28,3.28-17.5,6.07-24.53,4.01-10.11,5.8-19.73,9.87-29.67,4.14-10.1,11.23-22.59,16.71-31.82,4.63-7.8,8.45-16.21,11.65-24.36,4.01-10.21,6.66-28.98,5.5-40.14-4.94-47.29-88.26-83.24-102.91-132.75-7.67-25.93,1.87-56.2,27.42-67.4-7.73,9.54-16.31,18.54-16.22,31.87.21,33.25,60.91,84.75,89.79,96.48,16.38,6.65,39.39,13.64,56.79,9.51,17.31-4.11,36.67-25.54,48.76-38.49,25.95-27.78,68.26-77.85,56.41-118.45l-11.09-22.2c26.33,17.19,35.42,46.33,32.93,76.77-1.81,22.17-19.97,46.65-33.72,63.42-50.71,61.82-111.38,107.29-156.44,175.04Z"/>
    <path class="cls-21" d="M692.11,527.1v22.03c0,26.22,54.95,71.66,57.51,98.11,1.51,15.64-18.93,19.71-29.55,12.43-18.13-12.43-38.01-46.34-63.51-43.55-13.97,1.53-32.86,29.37-40.06,40.89-17.71,28.32-19.38,49.77-30.81,78.91-4.19,10.69-10.37,24.04-24.32,21.15-17.39-3.6-10.56-32.27-8.83-44.43.16-1.1-.83-2.43-.66-2.89,27.08-72.73,74.65-126.98,133.01-177.71,1.91-1.66,4.81-4.2,7.21-4.93Z"/>
    <path class="cls-11" d="M891.9,331.08c14.13-11.31,27.71-23.92,42.39-34.51,24.81-17.91,55.82-19.04,81.18-1.28l125.69,94.69c-20.5,17.32-43.63,9.54-64.48-2.09-34.64-19.33-72.7-68.41-113.2-71.22-18.8-1.3-38.17,3.09-55.85,9.01-5.17,1.73-10.38,4.88-15.73,5.4Z"/>
    <path class="cls-12" d="M728.11,401.22h-.9c2.08-6.68,4-13.58,5.14-20.49,3.17-19.2,4.43-49.68-19.33-55.69-18.79-4.75-40.52,11.05-52.87,24.02-1.09,1.15-5.01,7.06-5.57,7.22-6.09,1.68-14.97-3.44-20.96-4.52-1.92-2.09,10.37-21.14,12.39-24.01,19.66-27.81,49.13-44.76,84.08-36.85s29.69,43.4,20.53,69.43c-5.19,14.76-13.2,28.42-22.51,40.89Z"/>
    <path class="cls-11" d="M507.63,622.4c9.74-27.15,24.92-51.91,43.22-74.15,10.92-13.27,23.24-25.38,35.52-37.32,10.07,12.19,16.1,28.05,14.85,44.04-3.91.93-8.55-1.28-12.06-.89-10.16,1.15-31.09,29.97-35.55,39.18-2.68,5.53-2.3,5.15-5.44,10.04-10.3,16.02-12.95,55.67-26.6,65.84-8.54,6.36-19.15.81-20.24-9.43-.61-5.74.45-22.29,2.7-27.43.88-2.01.89-1.51,1.8-4.5.53-1.75,1.18-3.67,1.8-5.39Z"/>
    <path class="cls-1" d="M489.63,323c-.04,2.98-1.88,2.72-3.6,3.6l-1.8-.89c-.11.56.15,1.38,0,1.79-24.82,13.64-12.04,41.08,1.82,57.97,1.76,2.15,8.94,8.3,9.65,9.67,1.32,2.57,1.69,13.26,3.67,18.38,1.39,3.62,4.06,7.63,6.09,11,18.64,31,48.82,51.19,73.2,77.07-28.26,32.22-57.04,68.3-69.69,110-1,3.3-1.34,7.64-2.24,10.8-.29,1.01-3.53,3.03-.9,5.39-.91,2.98-.92,2.49-1.8,4.5-1.62-2.03-1.02-5.99-.78-8.43,3.55-35.98,22.33-61.67,35.75-92.85,29.08-67.57-39.94-86.59-70.09-132.91-17.39-26.72-14.05-66.34,20.72-75.1Z"/>
    <polygon class="cls-12" points="947.69 577.45 980.09 627.8 980.09 577.45 997.19 577.45 997.19 662.86 982.34 662.86 948.59 611.61 948.59 662.86 931.5 662.86 931.5 577.45 947.69 577.45"/>
    <path class="cls-12" d="M650.71,367.06c-2.07,5.78-10.75,13.4-16.7,14.33-25.15,3.92-65.65-33.74-86.81-10.3-9.26,10.25-7.66,23.67-6.29,36.43-16.66-17.57-29.14-36.05-14.23-59.63,9.61-15.21,18.7-12.47,34.44-13.24,1.37-.07,2.67-1.41,3.65-1.42s16.56,4.1,19.13,4.83c24.65,7.07,41.27,27.32,66.81,29.01Z"/>
    <path class="cls-12" d="M1019.69,569.36h-18.45l-17.09-33.28-11.26-.89v32.82l-1.35,1.35h-15.75v-85.41h38.25c5.78,0,15.49,7.07,18.67,11.92,8.93,13.63,3.55,30.47-10.96,37.17l17.93,36.33ZM971.99,521.7h18.45c.24,0,3.77-1.58,4.36-1.93,5.58-3.35,6.81-11.17,3.15-16.36-.86-1.22-4.72-4.18-5.71-4.18h-20.25v22.48Z"/>
    <path class="cls-20" d="M903.41,483.31c35.94-3.36,37.51,31.04,35.27,57.71-3.32,39.65-59.54,37.52-62.97,2.7-1.01-10.2-1.14-34.3,2.53-43.3,4.01-9.82,14.85-16.14,25.17-17.11ZM904.26,498.54c-4.38.71-8.83,4.47-10.33,8.56-1.91,5.22-1.76,27.58-1.13,33.92,1.67,16.61,22.81,19.18,27.63,4.25,2.1-6.5,2.08-33.12-.74-39.21s-8.88-8.58-15.44-7.52Z"/>
    <path class="cls-21" d="M636.98,399.64c44.26-7.41,44.98,61.63,13.07,67-43.8,7.37-43.66-61.88-13.07-67Z"/>
    <polygon class="cls-20" points="1141.18 577.45 1141.18 592.73 1101.58 592.73 1101.58 611.16 1102.93 612.51 1135.78 612.51 1135.78 626.9 1102.93 626.9 1101.58 628.25 1101.58 647.58 1141.18 647.58 1141.18 662.86 1085.38 662.86 1085.38 577.45 1141.18 577.45"/>
    <path class="cls-24" d="M846,662.86l31.91-85.48,12.98.17,30.7,85.31h-18l-4.4-14.75-30.61-.44-4.59,15.19h-18ZM893.7,633.19l-9.45-29.68-10.35,29.68h19.8Z"/>
    <path class="cls-24" d="M806.22,576.81c8.54-.79,18.26.79,25.66,5.31,10.56,6.45.81,8.49-4.45,15.01-7.52-5.83-28.14-9.8-30.54,2.75-2.6,13.61,18.07,11.8,26.43,14.16,22.05,6.24,22.05,36.62,2.32,46.01-14.87,7.08-37.3,4.52-48.9-7.63l10.43-11.08c7.56,7.2,30.71,11.65,35.23.2,5.69-14.41-12.95-13.13-21.43-15.06-10.03-2.29-18.34-6.4-20.27-17.52-3.24-18.71,7.19-30.47,25.51-32.15Z"/>
    <path class="cls-24" d="M747.31,501.33c-6.6,6.6-2.1,14.19,5.96,16.37,13.01,3.53,30.55,1.19,33.83,19.25,5.67,31.26-29.89,40.18-52.72,29.3-2.56-1.22-11.11-6.01-9.02-9.05.69-1,8.97-9.24,9.63-9.35,7.16,5.53,14.99,8.18,24.18,7.13,7.8-.89,15.36-7.05,10.72-15.21-3.54-6.21-19.16-5.59-26.27-7.92-12.68-4.16-17.15-14.62-15.27-27.44,3.69-25.12,41.04-26.2,56.41-11.81.77,2.5-7.61,8.96-9.53,10.99-6.69-4.35-21.59-8.58-27.91-2.26Z"/>
    <path class="cls-12" d="M819.9,536.99v32.37h-16.2v-85.41h36.45c1.26,0,8.03,2.24,9.65,2.94,19.34,8.34,19.59,36.62,1.54,46.9-1.01.58-7.09,3.2-7.59,3.2h-23.85ZM840.15,499.23c-5.31-1.17-14.46.87-20.25,0v23.38h17.55c1.34,0,5.49-2.05,6.78-3.12,6.49-5.4,3.82-18.51-4.08-20.26Z"/>
    <path class="cls-9" d="M662.42,287.94c-.69,2.5,1.63,1.45,2.67,2.26,1.28,1-.22,1.48,2.73,3.13l2.7,4.5c-2.39,3.66-6.39,5.35-9.91,8.53-4.01,3.62-9.13,8.44-11.7,13.04h-1.31c-18.51-18.37-44.74,1.61-57.76,17l-18.31-3.51c-1.43-1.39,4.44-10.98,5.58-12.86,19.26-32.08,49.46-44.47,85.32-32.09Z"/>
    <path class="cls-11" d="M573.99,374.46c39.53-6.68,37.48,62.49.9,56.21-25.72-4.41-24.72-52.19-.9-56.21Z"/>
    <polygon class="cls-19" points="1087.18 483.94 1087.18 499.23 1064.69 499.23 1064.69 569.36 1047.59 569.36 1047.59 499.23 1025.09 499.23 1025.09 483.94 1087.18 483.94"/>
    <polygon class="cls-12" points="1071.88 577.45 1071.88 592.73 1049.39 592.73 1049.39 662.86 1033.64 662.86 1032.29 661.51 1032.29 592.73 1010.69 592.73 1010.69 577.45 1071.88 577.45"/>
    <path class="cls-13" d="M814.5,441.68l-.13,30.89c-.9,2.74-8.23,1.03-10.67,1.47v-58.44l11.26.89,14.39,28.77,14.39-28.77,12.16-.89v57.54l-11.7.9v-31.47c-2.12-.44-1.45.27-2.02,1.16-2.66,4.13-5.87,14.43-8.73,17.32-8.72,8.82-14.38-15.19-18.05-19.38l-.45-.88-.45.88Z"/>
    <path class="cls-9" d="M669.6,407.51h-1.31c-6.42-8.17-15.51-11.47-25.67-12.13,10.8-12.39,22.4-26.61,29.58-41.47,1.78-3.69,4.38-13.31,6.02-15.57,1.35-1.86,15.05-9.4,16.98-9.01,1.65,1.63,2.1,6.08,2.3,8.51,1.57,19.19-3.18,32.94-13.11,48.91-4.5,7.24-10.33,13.51-14.79,20.75Z"/>
    <polygon class="cls-13" points="1045.79 415.61 1057.1 416.45 1079.08 449.78 1079.08 415.61 1090.78 415.61 1090.78 473.15 1079.54 472.25 1057.49 438.99 1057.49 473.15 1045.79 473.15 1045.79 415.61"/>
    <path class="cls-2" d="M489.63,323c12.46-3.14,21.22-2.7,33.79-2.3l21.09,8.6-18.93,7.59c-6.25,6.6-13.58,6.39-20.38,9.31-12.81,5.5-13.92,23.47-11.09,35.23l-11.17-13.55c-4.39-7.87-8.35-14.8-6.43-24.26,1.16-5.7,5.66-10.81,7.7-16.13.56-.31,1.22-.6,1.8-.9,1.72-.87,3.56-.61,3.6-3.6Z"/>
    <path class="cls-1" d="M1009.57,414.95c25.08-3.57,27.08,20.31,25.4,38.86-2.45,27.04-40.69,27.32-43.17,0-1.39-15.27-1.42-36.12,17.77-38.86ZM1006.47,427.58c-3.98,3.71-3.9,24.84-2.06,29.81,3.39,9.16,16.86,7.83,18.66-2.89.74-4.42.75-19.19-.71-23.14-2.28-6.17-11.32-8.05-15.9-3.79Z"/>
    <path class="cls-10" d="M893.61,415.7l19.89,57.45-11.58-.12-3.37-9.82c-3.67.73-18.85-1.18-20.61.94-1.5,1.81-1.42,8.18-4.02,9.47l-10.81.43,19.89-58.35h10.62ZM895.5,453.37l-6.75-19.79-6.75,19.79h13.5Z"/>
    <path class="cls-10" d="M959.18,414.94c7.96-1.07,17.07.5,22.68,6.61l-6.83,7.49c-5.02-5.49-23.54-5.67-20.66,4.57,2.32,8.27,21.67,1.68,27.44,14.02,9.58,20.48-13.97,30.24-31.22,24.89-9.33-2.89-12.53-6.41-3.13-12.73,2.56-.7,5.72,2.69,9.02,3.26,6.27,1.08,18.13.38,15.36-9.03-2.16-7.34-25.19-1.42-28.22-15.88-2.56-12.19,3.07-21.51,15.58-23.19Z"/>
    <path class="cls-10" d="M1117.56,414.95c6.82-.88,17.38.82,21.75,6.63l-5.98,6.5c-5.04-1.25-13.46-4.83-18.6-1.59-2.79,1.76-3.39,7.56-1.05,9.85,5.6,5.49,24.63-.62,27.29,14.99,4.28,25.15-27.85,28.64-42.04,14.97l6.84-7.45c5.83,5.48,26.53,7.79,24.48-3.92-1.4-8-19.28-3.33-25.95-11.91-8.92-11.47-.48-26.31,13.27-28.08Z"/>
    <path class="cls-13" d="M563.42,438.1c18.23,5.45,34.34,2.67,48.59-9.9-.52,11.52,1.9,22.02,7.97,31.79-3.78,3.53-5.69,8.79-11.57,7.34-15.36-3.78-34.05-18.13-44.99-29.23Z"/>
    <rect class="cls-15" x="921.6" y="415.61" width="10.8" height="57.54"/>
    <path class="cls-19" d="M1129.48,548.68c.32,1.39-.56,1.96-1.09,2.96-1.06,2.02-10.08,15.98-11.07,16.81-2.48,2.07-8.12.38-11.24.9l7.65-20.67h15.75Z"/>
    <path class="cls-1" d="M649.48,550.54c1.53-.28,5.23,4.67,4.44,6.21-7.21,5.42-14.62,16.84-21.63,21.65-2.47,1.7-3.35-.66-4.91-2.43l22.1-25.44Z"/>
    <polygon class="cls-4" points="727.21 401.22 728.11 401.22 727.66 402.1 727.21 401.22"/>
    <polygon class="cls-8" points="815.4 441.68 814.5 441.68 814.95 440.8 815.4 441.68"/>
    <polygon class="cls-23" points="668.72 696.13 668.72 702.42 645.32 702.42 645.32 715.91 665.12 715.91 665.12 722.2 645.32 722.2 645.32 735.69 668.72 735.69 668.72 741.98 638.12 741.98 638.12 696.13 668.72 696.13"/>
    <path class="cls-23" d="M925.19,741.98l-7.23-.41-4.13-8.46-18.43.41-2.72,8.33-7.97.12,17.2-45.74,6.65.78,16.64,44.96ZM898.2,726.7h13.5c-.77-4.99-2.89-11.52-4.99-16.19-.49-1.09.08-2.18-1.75-1.8l-6.76,17.99Z"/>
    <path class="cls-23" d="M862.2,696.13v45.85l-7.15-.08-.06-2.63c-6.85,5.39-18.73,3.61-20.48-6.05-2.83-15.57,3.01-31.61,20.49-20.92v-16.18h7.2ZM845.75,715.18c-8.12,2.44-5.48,28.2,6.52,20.01,4.96-3.39,4.65-23.37-6.52-20.01Z"/>
    <path class="cls-23" d="M732.62,728.49l11.23-31.48,7.66-.88-16.62,45.91-5.08-.59-15.19-45.32c2.65.27,6.3-1.08,8.02,1.42l9.99,30.94Z"/>
    <path class="cls-14" d="M1118.68,727.6h-22.5c.23,6.13,4.02,9.69,10.26,8.93,4.57-.55,7.43-5.91,10.44,1.37-11.96,9.25-28.28,3.9-27.96-12.54.45-23.43,32.03-21.09,29.77,2.24ZM1111.48,723.1c.08-11.17-15.83-11.17-15.3,0h15.3Z"/>
    <path class="cls-14" d="M806.4,727.6h-21.6c-.77,5.92,3.66,9.44,9.44,9.05,4.56-.31,8.79-6.56,11.26,1.72-10.15,6.43-25.83,5.75-27.81-8.6-3.76-27.13,31.29-27.99,28.72-2.17ZM799.21,723.1c1.63-11.37-15.53-10.96-14.4,0h14.4Z"/>
    <path class="cls-23" d="M707.41,741.98h-7.2v-22.03c0-1.76-3.94-4.74-5.93-4.94-2.21-.22-7.56,2.41-7.56,4.04v22.93h-7.2v-32.37c2.04.27,4.72-.45,6.6,0,.7.17.6,1.83,1.08,1.84,1.43.04,4.75-2.53,7.27-2.71,5.11-.36,12.94,3.88,12.94,9.4v23.83Z"/>
    <path class="cls-23" d="M1016,709.71l3.91,12.72,3.82,7.87,7.19-19.8,7.66-.88c-1.85,4.13-10.78,31.43-13.19,32.22-1.49.49-4.2.51-5.26-.75l-11.25-31.47,7.11.09Z"/>
    <path class="cls-23" d="M957.48,739.18c-7.24,4.35-18.2,4.65-23.14-3.19-7.02-11.15-.71-27.94,13.67-27.22,5.35.27,14.23,4.24,6.24,8.84-1.99.5-3.72-2.26-6.18-2.58-12.01-1.6-12.95,21.43-.83,21.44,3.92,0,8.89-6.74,10.24,2.71Z"/>
    <path class="cls-26" d="M1074.58,709.62h6.31s-.84,5-.84,5l-5.47.39c1.57,6.86-4.58,22.46,6.27,21.62l.04,5.36c-6.15.49-12.68-.4-13.52-7.63-.35-3.01.69-18.65-.01-19.32-.79-.75-6,1.33-4.47-5.43h4.51s0-9.89,0-9.89l6.81.85.39,9.05Z"/>
    <path class="cls-26" d="M975.6,700.62l.39,8.15,6.81.84v4.5s-6.36.39-6.36.39c-1.43.99-1.24,18.49.03,20.55l6.28,1.57.05,5.36c-18.72,2.19-12.43-14.37-13.62-26.41l-4.43-1.98.05-3.99h4.51s0-8.99,0-8.99h6.31Z"/>
    <rect class="cls-18" x="1046.69" y="709.62" width="7.2" height="32.37"/>
    <rect class="cls-23" x="759.61" y="709.62" width="7.2" height="32.37"/>
    <rect class="cls-25" x="993.59" y="709.62" width="6.3" height="32.37"/>
    <path class="cls-18" d="M874.8,696.13h7.2s.07,6.77.07,6.77c-.21,1.79-5.53,4.37-7.27,5.81v-12.59Z"/>
    <path class="cls-14" d="M1112.38,693.44c-2.22,4.72-5.38,11.45-11.69,9.88,1.14-1.29,4.16-9.43,4.64-9.73,1.2-.75,5.3.2,7.05-.14Z"/>
    <rect class="cls-18" x="992.69" y="696.12" width="8.11" height="7.2"/>
    <rect class="cls-18" x="1046.68" y="696.12" width="7.21" height="7.2"/>
    <rect class="cls-18" x="759.6" y="696.12" width="7.21" height="7.2"/>
    <path class="cls-7" d="M486.03,326.6c-.58.3-1.24.59-1.8.9.16-.41-.1-1.23,0-1.79l1.8.89Z"/>
    <path class="cls-1" d="M898.2,726.7l6.76-17.99c1.83-.38,1.26.71,1.75,1.8,2.1,4.66,4.22,11.2,4.99,16.19h-13.5Z"/>
    <path class="cls-2" d="M845.75,715.18c11.17-3.36,11.48,16.63,6.52,20.01-12,8.19-14.64-17.57-6.52-20.01Z"/>
    <path class="cls-1" d="M1111.48,723.1h-15.3c-.53-11.17,15.38-11.17,15.3,0Z"/>
    <path class="cls-1" d="M799.21,723.1h-14.4c-1.14-10.96,16.03-11.37,14.4,0Z"/>
  </g>
</svg>