<?xml version="1.0" encoding="UTF-8"?>
<svg id="Calque_1" data-name="Calque 1" xmlns="http://www.w3.org/2000/svg" viewBox="0 0 1600 1000">
  <defs>
    <style>
      .cls-1 {
        fill: #60c0f5;
      }

      .cls-2 {
        fill: #56ace4;
      }

      .cls-3 {
        fill: #010101;
      }

      .cls-4 {
        fill: #55a9e2;
      }

      .cls-5 {
        fill: #ff5f57;
      }

      .cls-6 {
        fill: #53a6df;
      }

      .cls-7 {
        fill: #fcfcfc;
      }

      .cls-8 {
        opacity: .6;
      }

      .cls-9 {
        fill: #d70202;
      }

      .cls-10 {
        fill: #fbc901;
      }

      .cls-11 {
        fill: #28c840;
      }

      .cls-12 {
        fill: #ab6327;
      }

      .cls-13 {
        fill: #fff;
      }

      .cls-14 {
        fill: #060606;
      }

      .cls-15 {
        fill: #51a1db;
      }

      .cls-16 {
        fill: #040506;
      }

      .cls-17 {
        fill: #458cc8;
      }

      .cls-18 {
        fill: #232323;
        opacity: .39;
      }

      .cls-19 {
        fill: #bfbfbf;
      }

      .cls-20 {
        fill: #febc2e;
      }

      .cls-21 {
        fill: #5cb6ee;
      }

      .cls-22 {
        fill: #3269aa;
      }

      .cls-23 {
        fill: #f80509;
      }

      .cls-24 {
        fill: #326bac;
      }

      .cls-25 {
        fill: #4c98d3;
      }

      .cls-26 {
        fill: #3f3d3d;
        opacity: .89;
      }

      .cls-27 {
        fill: #2d60a0;
      }

      .cls-28 {
        fill: #fdcc00;
      }

      .cls-29 {
        fill: #3c7dbc;
      }

      .cls-30 {
        fill: #5ab3eb;
      }

      .cls-31 {
        fill: #3875b6;
      }

      .cls-32 {
        fill: #3d7fbd;
      }
    </style>
  </defs>
  <rect class="cls-18" width="1600" height="1000"/>
  <g class="cls-8">
    <circle class="cls-5" cx="140" cy="110" r="10"/>
    <circle class="cls-20" cx="170" cy="110" r="10"/>
    <circle class="cls-11" cx="200" cy="110" r="10"/>
    <rect class="cls-26" x="120" y="150" width="1360" height="740" rx="24" ry="24"/>
  </g>
  <g>
    <path class="cls-14" d="M297.79,671.93c-7.39,1.05-14.91-2.89-17.72-9.83-1.32-3.26-.68-5.63-1.68-8.83-1.35-.27-2.76.11-4.12-.14-24.85-4.48-18.1-43.58,8.89-37.86,3.01.64,7.73,3.74,10.64,2.4l22.64-23.36c.14-.73-7-10.4-8.1-12.18-13.37-21.6-20.74-47.14-20.84-72.61l-19.25-4.04,19.92-10.6c2.84-27.86,14.14-53.9,31.68-75.56l-27.77-27.76c-1.32-.6-5.43,1.77-7.64,2.01-8.47.95-15.86-1.69-21.03-8.51-8.87-11.69,1.12-31.25,16.2-28.98-.86-13.16,8.75-21.9,21.87-20.46,3.97.44,5.91,3.23,10.19,1.11h1019.13c8.86.95,13.17,9.89,8.35,17.49-.9,1.42-4.55,4.69-6.1,4.69h-746.13c7.16,4.6,10.57,11.26,9.65,19.88l16.8.53c1.54,14.09,3.33,28.15,5.93,42.07.2,1.08-.63,2.02,1.13,1.7.05-.56-.06-1.15,0-1.7,1.54-13.98,1.41-28.05,0-42.04h153.37l1.13,48.85c-.68.76-11.61-8.89-13.11-9.89-12.69-8.4-27.57-11.91-38.87.79-3.18,3.57-9.37,14.01-9.37,18.47v55.38c9.68-.19,20.02-4.28,27.79-9.99,4.11-3.02,7.14-7.35,10.84-10.18.57-.44.72-1.1,1.7-.85l-1.14,61.91c-1.33.37-.96-.34-1.3-.72-6.02-6.84-10.32-13.21-18.77-17.55-6.06-3.11-12.9-4.8-19.69-5.01.42.85.58,1.55.6,2.52.45,18.89-.5,37.88.05,56.76,3.11,24.57,30.57,34.71,49.61,19.09,3.24-2.66,6.17-6.89,9.39-9.36.57-.44.72-1.1,1.7-.85l-1.13,52.26h-55.67l15.36,9.92,120.69.31c2.02-.37,2.29-4.13,3.22-5.86,11.77-21.81,42.84-6.83,56.16,5.56l115,.29c3.57-2.67,5.06-7.32,9.38-9.65l1.13-.56c-.75-.03-1.52.02-2.27,0-16.9-.68-35.4-.22-52.26.57l-.57-5.11c6.64-7.8,12.54-14,13.62-24.72,1.26-12.47.34-26,.55-38.64.7-40.66.16-81.52-1.14-122.08-.41-12.69,1.18-33.77-3.84-45.01-2.7-6.05-7.84-9.86-11.76-14.94-.44-.57-1.09-.72-.85-1.71h112.47l1.13,48.85c-.65.73-10.81-8.35-12.08-9.22-17.03-11.74-33.39-12.36-44.61,6.78-.67,1.14-4.65,9.02-4.65,9.55v57.66c16.24-.45,29.23-9.76,39.49-21.58,1.29-.24.78.56.84,1.41.45,6.09-.49,12.18-.59,18.16-.24,14.34-.04,28.61-.55,42.91-1.33.37-.96-.34-1.3-.72-5.6-6.35-9.67-12.43-17.27-16.77-6.27-3.58-13.41-5.51-20.62-5.79v59.93c0,8.65,9.86,20.65,17.88,23.58,16.84,6.17,30.84-1.36,40.87-14.82l2.02-.53-1.13,52.26h-13.63l15.02,10.26,149.7-.33c7.49-8.28,14.1-17.61,19.32-27.53-31.53-17.33-55.56-49.32-61.76-85.09-3.26-18.82-1.7-31.54-.72-50.12,0-.19-.01-.38,0-.57,1.34-1.04,1.73-4.67,2.09-6.64.07-.35-.4-.71-.39-.75.79-3.74,2.21-7.91,3.55-11.5,14.5-38.88,51.41-65.23,90.18-76.55l-3.98-10.78,37.49,9.66-24.71,28.4-3.13-10.78c-.98-.69-10.98,6.29-12.67,7.48-28.01,19.71-52.46,50.15-54.35,85.67h23.86v-17.61h17.04v17.61l3.88-.1c6.96-23.72,35.29-24.5,42.86-.35,3.98,12.71.7,28.45-10.69,36.22l-.24.83c6.63,6.52,13.84,14.58,16.71,23.64.81,2.57,1,6.61,1.75,8.48,1.17,2.91,8.53,9.01,10.78,11.95.44.57,1.1.72.85,1.71h-13.92l-3.7,7.95-4.74-3.37c-1.78.68-3.17,5.06-5.13,4.47-1.05-.32-3.62-7.39-4.89-6.21-2.34,11.94-7.51,23.05-12.49,34.04,5.76,3.93,5.31-.17,6.24-5.07.66-.12,1.1.08,1.68.31,2.66,1.05,20.33,17.22,23.89,20.42.31.28,1.91,1.78,1.7,1.99l-36.35,8.52,2.84-9.08-8.15-2.32-10.02,15.38h55.38c.9,0,4.68,2.44,5.41,3.27,4.67,5.43,3.17,14.42-3.67,17.2l-74.89.66c-29.75,31.22-72.49,50.58-115.95,38.47-15.72-4.38-31.33-12.78-45.16-21.3-7.61-4.69-16.31-12.12-23.71-16.05-1.38-.73-2.84-1.23-4.43-1.25l-91.4.1c-2.04,3.72-3.48,7.6-5.91,11.13-22.03,32.01-51.25,2.03-74.58-10.89l-96.16.34c-2.1,2.63-3.17,5.79-5.02,8.61-24.14,36.67-56.43,2.1-84.22-8.73l-103.13.03c-.35,7.37-5.81,14.73-11.98,18.41-25.24,15.09-58.63-10.6-82.04-18.98-25.94.44-52.17-1.1-77.86,1.08-9.51.81-14.85-.39-23.79-1.12-19.11-1.56-40.32,1.2-59.66.04-7.12,4.98-13.06,11.65-18.96,18.01l3.32,16.63-7.65-1.71-2.91,2.81c-3.94-2.48-5.84-2.85-10.11-.57l-2.05-3.93-5.92,2.25-2.94-5.07-4.19,2.25c-.87-.61-.68-9.84-1.23-11.55-.16-.49-1.58-1.51-1.9-1.51h-11.08c2.27-2.85,6.87-4.27,8.52-7.38l1.14-.28-1.14-.28h.01ZM284.73,361.78c-6.64-.12-13.06-1.08-16.96,5.48-7.05,11.85,4.79,23.31,16.98,20.38,2.78-.67,6.29-3.29,8.92-2.15l29.52,28.49,1.62-.47,13.07-11.97-30.74-31.25c-.55-1.1,3.29-6.69,4-8.51,8.33-21.58-21.77-27.87-25.59-10.82-.72,3.21-.69,7.51-.81,10.83h-.01ZM547.73,342.47h-233.47c1.05,2.47,2.56,4.43,3.43,7.07.3.91.53,3.69.86,3.74h220.4c2.27-.24,2.8-3.76,4.33-5.89,1.3-1.82,3.24-3.05,4.45-4.93h0ZM1331.92,342.47h-761.47c3.34,2.78,5.78,6.47,6.58,10.83l755.2-.29c4.49-1.7,4.35-9.53-.31-10.54h0ZM571.62,362.89c.42-6.99.28-14.56-7.43-17.28-9.11-3.22-18.89,3.51-19.32,13.08-.2,4.51,2.88,8.68,3.74,12.74l-31.56,31.53,14.41,13.33,31.88-31.1c8.77,5.48,19.09,9.78,25.38-1.42,3.37-6,3.69-13.35-2.1-17.97-4.78-3.82-9.48-1.49-15.01-2.88v-.03ZM539.13,359.02l-221.11-.11-3.77,9.95,28.78,28.67c49.57-37.53,120.04-36.66,169.21,1.18l29.55-28.43-2.66-11.27h0ZM410.83,375.98l-.57.57c-26.59,3.58-46.92,12.17-67.6,28.97-7.49,6.08-10.73,9.62-17.04,17.04-6.99,8.22-11.86,14.56-17.04,24.43-3.14,5.98-5.75,11.77-7.95,18.18-3.03,8.82-5.44,17.92-6.24,27.26,13.76-5.06,27.97-8.75,42.27-11.97.83-.56,5.33-12.13,5.44-13.59,2.47-2.78,3.95-6.51,6.01-9.61,1.9-2.84,4.88-7.21,7.05-9.71,6.96-8.01,19.5-17.94,28.97-22.72,22.75-11.49,52.29-12.97,76.12-3.98,9.47,3.57,23.29,11.84,30.67,18.75,5.95,5.56,13.45,14.91,17.61,22.15,1.46,2.54,7.12,17.38,7.96,17.89,14.51,2.79,28.56,7.21,42.6,11.65-1.31-11.21-4.41-21.39-8.52-31.81-1.48-3.75-7.98-19.51-10.79-21.02-3.74-6.78-8.98-12.94-14.2-18.75-4.53-5.04-8.36-8.7-13.63-13.07-28.45-23.55-64.15-34.4-101.11-30.67h0ZM1260.63,423.13c7.35-7.75,15.85-14.99,24.58-21.14,2.18-1.54,18.5-12.42,19.72-11.24l1.71,7.39c.24.19,2.73-2.4,3.13-2.83,2.53-2.78,6.81-7.08,8.81-9.94.34-.48.79-.57.56-1.42-5.5-.34-12.72-4.27-17.89-4.56-.78-.04-1.1-.06-.84.84.45,1.52,2.23,3.34,1.64,5.37-22,6.24-43.39,16.55-60.75,31.57-1.28,1.11-2.29,2.66-3.4,3.7-8.76,8.24-13.71,13.87-19.88,24.43-4.06,6.94-6.6,12.15-9.09,19.88-4.21,13.08-5.18,23.19-5.11,36.92.04,9.07.56,16.08,2.27,24.99,2.27,11.85,5.42,20.56,10.79,31.24,2.84,5.65,4.9,9.02,8.52,14.2,1.35,1.93,2.4,3.93,3.99,5.95,9.8,12.41,22.42,22.47,36.05,30.42.81-2.51,5.41-8.01,4.76-10.39-.29-1.04-7.56-7.59-8.99-9.23-4.5-5.13-8.26-10.86-12.51-16.17-3.17-6.05-6.96-11.88-9.66-18.18-3.72-8.68-6.79-19.11-8.52-28.4-.29-1.53-.91-2.98-1.09-4.31-.62-4.44-.2-9.42-1.18-13.87h34.65v16.47h6.82v-16.47h11.08c1.29-1.07,1.75-3.38,2.56-4.54,4.53-6.51,12.43-16.08,21.21-10.7,5.59,3.43,5.85,10.61,4.92,16.38-2.79,4.15-3.6,10.85-6.81,15.06-.12.85-.07,1.01.8.81,8.36-1.91,12.85-11.02,13.96-18.71,4.17-28.84-27.37-40.06-34.08-9.66h-13.63v-17.04h-6.82v17.04h-34.65c.26-10.11,1.94-20.5,5.11-30.11,2.18-6.59,5.62-13.88,9.09-19.88,4.64-8.03,11.8-17.13,18.18-23.86h-.01ZM613.05,420.29c-2.11-11.66-3.12-24-4.54-35.79-2.92.52-11.99-.92-13.97.53-.8.59-3,4.84-4.48,6.31-4.02,3.99-10.05,6.29-15.64,4.53.65,8.14.38,16.27.56,24.42.12,5.48.46,10.96.57,16.47.15,8.09.5,16.44.57,24.43.07,8.59.19,17.27.02,25.87-.06,3.12-1.08,6.52-.59,9.92.12.85.1,1.12.9,1.64,1.41.93,10.28,3.79,10.47,4.33.44,1.25-.82.72-1.4.86-3.29.81-6.64,1.41-9.89,2.34-.29,6.39.13,12.84-.07,19.24-.32,10.19-1.23,20.89-1.7,31.24-.14,3.04-.57,7.27-.57,9.94v11.93c0,2.76-.37,7.46-.57,10.51-.5,7.67-1.03,22.41-3.39,29.28-.91,2.65-2.78,4.91-3.43,7.65h42.6c-4.15-11.85-3.66-24.59-2.84-36.92.42-6.31.81-12.58,2.3-18.72l5.03.03c.88,5.1,3.05,9.83,4.6,14.71,4.3,13.58,7.83,27.64,12.78,40.9h33.23c-2.24-3.01-2.94-6.88-3.4-10.52-1.14-9.03-1.24-19.99-1.71-29.25-.1-1.98-.57-5.08-.57-6.53v-16.47c0-.77-.53-2.75-.57-4.26-.31-10.89-.52-22.11-.57-32.95-.04-9.9.46-19.71.57-29.54.14-12.17.19-24.23.57-36.36.19-6.04.3-12.15.57-18.18.45-10.19,1.57-20.47,1.7-30.67.01-.93-.09-1.95,0-2.84.27-.06.54-.31.57-.57.71-7.36-1.06-16.51,3.41-22.72h-37.49l.57,25.56c-1.56,9.58-1.04,20.11-6.82,28.4-.37-.04-.76.03-1.14,0-1.44-.61-1.76-1.82-2.29-3.11-1.81-4.45-3.1-10.85-3.96-15.64h.01ZM1002.17,435.06c.3,9.08.38,18.18.57,27.27.22,10.98.47,21.96.57,32.95.1,10.4-.01,20.84,0,31.24.02,15.13.19,30.32,0,45.44-.14,11.04.5,25.21-1.28,35.93-1.13,6.78-6.11,12.69-10.08,18.03l94.86-.56v-32.38c-16.96,13.93-44.55,11.75-55.39-8.51-1.38-2.58-3.66-8.03-4.25-10.8-2.23-10.57-.55-31.7-.55-43.48,0-1.15-.59-2.29-.59-3.1,0-2,.58-3.67.59-5.37.04-5.59-.07-11.19-.02-16.78h11.08c1.37,0,7.02,1.58,8.68,2.11,7.51,2.39,14.16,6.92,20,12.09l.57-34.08c-11.34,9.43-25.62,14.01-40.33,14.2-.02-.76.02-1.52,0-2.27-.22-11.33-.06-22.75,0-34.08.04-7.92-1.1-20.61,0-27.83.69-4.54,7.84-16.27,11.07-19.89,14.5-16.22,34.1-10.53,49.71.57v-30.39l-.85-.85h-94.01l5.6,9.45c4.44,10.1,3.68,29.55,4.06,41.1h0ZM682.92,416.88c.16,3.18.57,7.67.57,10.51v17.61c0,3.4.49,7.47.57,11.08.26,11.35.45,22.73.57,34.08s-.02,22.35,0,33.51c.02,10.02.06,20.08,0,30.11-.07,11.31.36,22.82,0,34.08-.21,6.39-.28,17.48-1.99,23.29-1.52,5.14-6.16,10.55-9.37,14.77l94.86-.56v-32.38c-15.71,13.45-41.95,11.8-53.96-5.68-7.34-10.68-6.1-21.23-6.25-33.51-.12-10.02-.05-20.09,0-30.11.03-6.24-.02-12.51,0-18.75h10.51c.89,0,5.27,1.1,6.54,1.42,8.58,2.14,16.2,6.98,22.71,12.79l.57-34.08c-11.23,9.42-25.64,14.25-40.33,14.2-.01-3.21.02-6.45,0-9.66-.08-11.53-.09-23.12,0-34.65.07-9.99-1.36-17.63,2.92-26.9,1.24-2.67,3.92-7.73,5.6-10.02,1.99-2.72,6.38-6.86,9.26-8.63,14.79-9.06,30.07-2.42,43,6.36v-30.67h-94.3c.61,1.88,2.14,3.31,3.13,5.1,5.24,9.43,4.86,16.27,5.39,26.71v-.02ZM667.59,622.51c1.02.21,1.37-.55,1.99-1.12,12.69-11.48,9.04-38.28,9.34-54.29.79-42.38.23-84.89-1.14-127.2-.44-13.56,1.56-35.54-5.2-47.06-1.87-3.18-4.01-7.14-5.32-1-1.94,9.08-1.42,22.5-1.96,32.12-3.1,54.74-4.11,110.46-1.15,165.33.44,8.14.65,18.2,1.73,26.1.33,2.43,1.01,4.77,1.7,7.11h.01ZM570.45,495.84c-.15-13.91.2-27.85.03-41.77-.21-17.12-.14-35.78-1.17-52.8-.06-1.08-.62-6.83-.82-7.13-.28-.41-3.88-1.76-4.54-1.7l-28.7,28.69c4.13,6.47,8.81,12.52,12.58,19.23,9.21,16.36,15.32,34.91,17.01,53.72l5.61,1.76h0ZM502.85,464.59c.78-.68-8.1-12.18-9.1-13.33-21.16-24.35-53.32-35.37-85.1-28.89-24.57,5.01-46.28,21.14-58.6,42.79,40.94-6.97,83.36-7.95,124.68-3.97,9.39.9,18.72,2.62,28.12,3.4h0ZM506.72,470.96c-6.52-.84-13.03-2.06-19.56-2.88-34.1-4.29-71.89-5-106.15-1.77-8.04.76-25.81,2.26-32.8,4.7-2.99,1.04-3.77,5.49-4.41,8.36,46.34-8.57,95.38-9.8,142.22-4.47,7.9.9,15.74,2.5,23.64,3.33l-2.95-7.27h0ZM569.31,501.53c-33.68-14.09-70.06-20.91-106.51-23.29-39-2.55-80.11-.84-118.54,6.42-20.38,3.85-40.87,9.31-59.54,18.28l47.15,7.1c-.15-5.14,3.06-10.15,7.2-12.97,7.88-5.36,36.08-6.89,46.46-7.5,27.03-1.59,54.25-1.26,81.26.02,13.21.63,27.73.66,40.73,3.01,9.55,1.73,13.65,6.52,14.08,16.31l47.71-7.38ZM361.04,570.62c55.48,56.5,152.18,21.72,154.9-58,.38-11.21-1.52-13.3-12.32-15-30.78-4.82-68.63-3.9-99.87-2.9-15.02.48-44.84.38-58.24,5.38-8.59,3.21-8.44,8.85-7.96,17.03,1.15,19.36,9.95,39.7,23.48,53.49h0ZM1304.37,503.22c-2.85-13.28-13.96-1.9-16.47,5.11l16.47-5.11ZM1303.8,506.64c-.7-.7-17.73,5.62-18.72,6.55-1.1,1.04-4.43,11.16-4,11.62l17.58-4.85c1.25-.94,5.81-12.64,5.14-13.32ZM569.88,507.2l-3.97.57c-.03,30.46-9.75,60.06-27.77,84.45l25.78,22.33c1.12.44,1.31-2.89,1.41-3.69,3.12-26.81,3.99-58.68,4.57-85.75.13-5.96-.14-11.96-.03-17.91h.01ZM557.95,532.19c1.28-7.51,2.43-15.05,2.27-22.72l-39.19,5.12c-.12,1.49.14,3.05,0,4.54-.27.06-.53.3-.57.57-.36,2.52-.11,5.87-.57,8.52-.09.5-.4,1.46-.57,2.27-.1.47-.42,1.08-.57,1.7-3.12,13.35-9.54,26.82-18.18,37.49-2.17,2.68-5.65,6.16-8.22,8.54-7.63,7.06-16.66,12.7-25.91,17.37,1.48,3.68,3.35,8.13,6.29,10.74,6.62,5.89,16.43,10.77,23.67,16.09,19.16-11.26,36.02-28.94,46.87-48.38.72-1.29,1.05-2.71,1.61-3.79,6.69-12.91,10.6-23.59,13.07-38.06h0ZM294.95,528.22c1.45,10.07,3.35,18.42,6.96,27.97.48,1.27.89,3.14,2.13,3.84,1.18,7.22,10.19,21.02,14.77,27.27,10.26,14,23.99,26.94,39.01,35.68l25.45-18.65,5.97-7.66c.21-1.23-.25-.66-.78-.89-6.83-3.01-12.72-6.59-19.09-10.18-1.92-2.5-5-3.86-7.39-5.96-6.29-5.51-14.63-15.73-18.74-23.01-3.82-6.78-8.91-20.8-10.22-28.4-.34-1.95-.48-11.68-1.22-12.42l-38.55-5.19c.08,1.42-.12,2.87-.02,4.29.3,4.48,1.11,9.03,1.73,13.32h-.01ZM1257.79,513.45h-23.86c2.67,26.94,13.6,53.43,32.09,73.29,1.14,1.23,6.4,7.08,7.65,6.22l11.43-28.06c-10.87-7.53-12.23-22.19-10.83-34.4h-16.47v-17.04h-.01ZM1274.83,513.45v12.5l3.98-12.21-3.98-.29ZM1296.41,524.25c-.95-.87-14.36,3.62-16.38,4.63l-.66,12.98c4.09-2.32,8.22-4.94,12.94-5.79l4.09-11.82h.01ZM1298.69,537.87c2.18-1.55,5.27-3.17,6.82-5.39.54-.77,1.02-.87,0-1.72-5.59-.91-6.87,2.1-6.82,7.11ZM1308.17,534.53l-9.23,7.33c-.78,1.22,1.02,3.82,2.04,4.28,1.97.89,10.46-4.82,12.48-6.29.09-.38-4.07-5.92-5.28-5.31h-.01ZM1292.39,539.63c-1.33-.9-10.94,4.37-12.39,6.02.47,3.88,2.05,8.13,4.5,11.25,1.15,1.46,3.75,4.8,4.98,2.73.64-1.07,5.03-10.17,5.14-10.82.32-1.88-2.35-6.73-2.23-9.18ZM1307.28,557.69c1.73,1.1,11.37-4.77,13.32-6.18.5-.81-3.16-9.19-6.14-8.42-2.95.76-7.58,5.77-11.22,6.15l4.04,8.44h0ZM1303.23,563.43c.74-.7-4.31-11.88-6.52-11.36l-4.84,10.79c4.01,1.13,7.25,1.35,11.36.57ZM1322.52,554.93c-1.12-.76-11.05,6.29-13.56,5.72l.53,5.61c1.2,1.16,11.74-4.01,13.64-4.82l-.61-6.51h0ZM1325.32,564.05l-12.99,5.09c1.71,8.73,3.58,2.11,4.89,1.72l3.87,1.67,2.03-4.54,5.1,1.13-2.9-5.07ZM1303.8,569.12l-13.82-.48-3.14,7.78c4.7,3.04,8.64,7.11,12.14,11.45,1.13.25.8-.43,1.11-1.13.93-2.14,4.72-16.6,3.72-17.62h-.01ZM1286.52,597.76c2.15,2.37,3.71,5.16,5.64,7.7l5.85-13.24c-2.26-3.48-4.99-6.74-8.1-9.49-.64-.56-4.35-3.76-4.84-3.39l-4.59,13.24c2.05,1.62,4.29,3.24,6.05,5.18h-.01ZM676.11,631.6h-49.7l-15.05-44.31c-1.45,15.17-1.06,30.19,5.11,44.31h-22.72c-.15.42.57.68.57.85v8.8h73.56l8.24-9.66h-.01ZM1280.52,625.35c.82.18.92-.08,1.39-.59.9-.99,8.22-14.17,8.22-15.03,0-1.32-2.97-6.12-3.95-7.37-1.04-1.33-6.28-6.8-7.64-6.57l-8.21,16.72c4.3,3.4,8.46,7.51,10.19,12.84h0ZM570.45,649.21h9.37c.81,0,4.68-2.36,5.42-3.1,2.93-2.95,5.14-9.88,2.85-13.69l-35.82-.83c1.62-3.09,10.45-8.31,8.81-11.91l-26.7-22.19-1.17.55c-2.53,4.52-8.99,8.85-11.64,12.79-.36.53-.74.91-.47,1.62l26.94,27.68c.98,2.18-3.61,5.77-3.1,8.45,2.96,1.38,24.38,7.98,25.52,6.87v-6.25h-.01ZM464.2,605.45c.82-.95-2.66-7.05-3.74-7.26l-9.26,2.78c-.55.78,1.7,7.03,2.58,7.3l10.41-2.83h.01ZM402.31,600.36l-7.54-1.63c-1.43.84-3.64,3.6-3.3,5.24,1.39.7,7.51,3.86,8.51,3.14l2.33-6.76h0ZM284.16,648.07c-.37,6.84-.27,14.72,7.07,17.64,10.53,4.18,21.21-5.85,19.49-16.65-.38-2.37-3.68-7.43-3.01-8.92l26.45-27-13.94-13.94-26.78,26.63c-5.94-3.13-13.76-7.14-20.53-4.63-7.08,2.63-9.63,10.95-7.81,17.8,2.29,8.62,11.5,9.34,19.05,9.06h.01ZM418.21,603.77l-11.54-1.64-3.22,6.75,13.31,2.21c1.24-.31,1.57-5.93,1.45-7.32ZM447.17,602.06l-10.21,1.71,1.14,7.38,11.36-1.71-2.29-7.38ZM433.55,604.34h-11.36l-1.14,6.8c.55-.14,1.22.58,1.42.58h10.79c2.05-1.99-.02-4.95.28-7.38h0ZM387.47,608.95c-.54-.31-1.11-.02-1.62.23-2.61,1.23-6.28,5.42-9.14,6.84,2.77,5.17,6.04,10.21,6.86,16.16,1.67-1.4,10.05-6.14,10.24-7.66.2-1.64-5.29-14.95-6.33-15.56h0ZM472.74,612.87c-1.67-.2-2.37-2.13-4.14-2.12-1.24,0-12.02,3.5-13.91,4.22-.69.26-1.36.3-1.81,1.02,1.58.99,4.58,3.87,6.38,3.59,3.62-.55,9.19-4.86,13.16-5.55l.33-1.16h0ZM407.42,615.13c-2.24.9-13.66-4.5-14.2-3.98l3.98,11.36,9.27-5.77.94-1.61h.01ZM456.84,624.8l-14.35-9.23-2.12-.43,3.38,12.83c.49.38,10.65-1.69,12.24-2.05.88-.2.99.38.84-1.12h.01ZM1318,625.92l-11.65-10.78c-1.19-.19-.68.17-.9.78-.53,1.43-.83,3.37-1.08,4.9l-11.05-5.13-2.56,4.85,11.92,3.69-1.43,5.66,16.76-3.97h0ZM417.65,628.76h21.3c.52-.41.74-.59.76-1.29.05-2.83-3.03-8.41-2.77-11.74l-16.69-.06-2.6,13.1h0ZM462.52,621.38c-.75,1,5.17,4.46,5.94,4.5,1.41.07,12.77-5.77,12.79-6.49l-5.28-3.58-13.45,5.58h0ZM540.91,641.26l-24.79-25.52-13.83,10.46c.14.66,9.71,6.68,11.18,7.57,1.67,1.02,12.75,7.49,13.52,7.49h13.92,0ZM1265.17,646.94c.95.22,1.15-.3,1.69-.86,1.55-1.59,11.16-14.62,11.37-15.94.51-3.29-2.96-8.38-5.09-10.76-1.11-1.24-4.02-4.96-5.26-2.95-2.74,4.44-5.22,9.04-8.27,13.29,2.23,5.56,5.25,11.09,5.57,17.22h0ZM314.26,641.26h21.87l16.75-13.93c.21-.82-.52-.93-.93-1.32-3.23-3.05-9.54-5.68-12.99-9.04l-24.7,24.29ZM415.37,617.97l-11.89,7.13-1.17,1.95,11.93,1.14,1.13-10.22h0ZM371.64,640.69l8.53-6.52c.21-2.31-4.95-15.1-7.11-15.09l-7.02,5.51c2.48,5.14,4.46,10.48,5.6,16.1h0ZM493.76,627.07l-9.28-5.6c-3.67,2.35-7.62,4.13-11.5,6.1-.59.3-1.07-.29-.8,1.18l9.92,5.65c1.55.08,10.2-4.63,11.12-5.9.35-.49.75-.63.54-1.43h0ZM363.1,627.06l-10.82,7.77,5.43,17.21,10.55-8.31c-.96-5.81-2.81-11.31-5.16-16.67h0ZM466.42,631.13l-4.65-2.2c-21.11,5.88-43.44,5.49-64.87,1.5-1.29.07-7.69,4.11-7.58,5.34s3.7,6.52,4.73,7.78c18.77,22.92,65.31,19.72,72.36-12.41h0ZM485.81,637.27c3.2.56,7.51,5.34,10.5,5.18s7.34-5.2,9.37-7.16l-8.69-5.28c-2.97,2.74-7.29,3.96-10.45,6-.55.36-1.02-.06-.73,1.26h0ZM878.33,629.9c-7.08-.35-14.72,3.17-17.04,10.22l10.7.48,6.34-10.69h0ZM893.1,633.88c-3.63-1.11-6.99-3.6-10.97-3.35l-7.2,11.85,9.29,4.47c.97-.18,9.4-12.3,8.89-12.97h-.01ZM697.69,631.04c-4.23-.21-8.53.41-12.49,1.99-.89.36-10.73,5.8-9.1,7.09l9.83,1.05,11.76-10.13h0ZM1060.67,631.04c-7.66.36-15.91,1.5-21.85,6.83-.46.41-2.65,2.27-2,2.82l16.63,1.03c1.54-.45,7.79-10.18,7.22-10.68h0ZM1078.75,637.95c-4.59-2.45-9.18-5.17-14.34-6.28l-7.7,12.1c1.97,1.16,9.91,7.49,11.51,7.07,1.28-.33,7.27-6.72,8.34-8.18.86-1.18,3.01-3.3,2.18-4.72h0ZM689.74,642.96l10.37,4.45,13.49-11.54c-2.58-1.53-8.59-4.43-11.52-3.58-.77.22-10.09,7.6-11.21,8.68-.61.59-1.33.99-1.13,1.99h0ZM1257.78,633.31c-1.31-.36-.95.32-1.29.72-3.04,3.53-5.52,7.67-8.83,11.01,2.82,6.02,2.67,12.5,2.19,18.95,1.49-.63,2.65-1.94,3.75-3.06,1.53-1.55,8.32-8.52,8.62-9.84,1.19-5.16-2.92-12.86-4.43-17.77h0ZM887.42,649.2l8.68,4.5c1.27-.31,8.62-11.06,8.32-12.07l-8.13-5.43-8.87,13.01h0ZM522.73,644.68l-14.4-7.3-8.87,7.58,11.54,6.4c3.06-1.96,8.01-2.96,10.8-5.07.64-.49,1.16-.59.94-1.61h-.01ZM342.67,665.12l11.26-10.05c.3-1.3-4.4-17.23-5.31-17.2l-9.32,7.75c1.69,6.38,3.38,12.83,3.36,19.51h.01ZM703.38,648.65c-.21.86.13.91.6,1.38.66.66,8.13,4.79,8.68,4.74,2.19-.54,15.14-9.47,15.14-10.39-1.62-1.44-9.27-6.9-10.95-6.46l-13.46,10.73h0ZM481.83,641.26l-4.29-2.83-7.64,2.83h11.93ZM1070.9,653.75c2.68.69,7.4,6.08,9.8,5.61,2.82-.55,8.28-7.86,11.2-9.3l.53-1.6-10.72-7.75c-1.49,2.77-4.06,5.97-6.24,8.25-.8.84-5.35,3.65-4.57,4.79h0ZM899.41,656.53l9.19,5.12c2.2-.55,6.13-9.8,7.17-12.09l-8.68-5.5c-.8,2.12-8.45,11.16-7.68,12.48h0ZM742.57,653.2l-11.65-6.83-14.46,10.52,10.97,6.43c1.04-.06,13.7-7.65,14.6-8.69.43-.49.74-.62.55-1.43h0ZM329.03,646.94h-13.07c.66,3.21.98,6.47,0,9.65,1.57.02,2.85.29,4.29-.53,2.36-1.36,6.43-7.09,8.77-9.12h.01ZM400.04,656.6c-1.13-1.56-3.12-2.42-4.55-3.69-2.4-2.12-4.41-5.69-7.63-6.01-2.49-.25-13.18-.33-15.12.29-2.38.76-9.04,7.51-11.33,9.4h38.63,0ZM455.7,656.6h52.26l-15.37-9.34c-9.06-.67-18.31-.24-27.43-.22l-9.47,9.56h0ZM703.37,656.6c-5.39-4.13-12.15-7.09-18.45-9.67l-93.78.54c-3.33,5.14-8.94,7.53-15.02,7.43v1.7h127.25ZM872.37,646.94h-129.8l10.8,5.95c2.16.89,10.35,3.7,12.2,3.7h123.55l-16.76-9.66h.01ZM1065.22,656.6l-14.49-9.66h-127.53c2.56,2.14,6.53,4.08,9.68,5.38,2.79,1.16,11.32,4.28,13.9,4.28h118.44ZM1237.91,646.94h-137.47l12.52,9.35h114.7l10.25-9.35ZM1265.74,656.6h67.31c.21,0,1.92-1.93,2.12-2.42,1.14-2.76-.11-6.7-3.3-7.21l-56.8-.07-2.56.85-6.78,8.84h.01ZM526,647.61c-.81.16-11.22,5.23-11.21,5.86,2.65,1.6,8.34,6.2,11.32,5.1,1.29-.47,9.34-6.42,9.12-7.36-2.08-1.38-6.89-4.05-9.23-3.59h0ZM1231.09,663.13c.05,5.39-.04,10.8,0,16.19l14.23-10.62c1.78-6.48,2.92-14.48-.32-20.61l-14.47,13.88c.03.55.55.99.55,1.16h0ZM336.41,648.65c-.98-.26-1.14.41-1.7.85-1.33,1.02-10.62,9.57-10.75,10.31l9.34,14.41c.79.19,5.17-4.35,5.37-5.41,1.18-6.19-1.24-14.04-2.26-20.15h0ZM1107.82,660.57c.21-.94-.3-1.15-.86-1.69-.93-.9-10.6-8.02-11.27-7.9l-12.29,11.01,9.93,6.5,14.49-7.92ZM919,651.52l-7.71,12.18,6.06,4.19c.88.14,9.29-10.83,9.3-11.58.01-1.42-6.22-3.9-7.65-4.79h0ZM555.68,657.74l-17.22-5.16c-2.4,3.69-6.54,5.75-10.04,8.27,0,.97,16.36,8.81,17.33,8.79,1.57-.03,10.6-11.16,9.93-11.91h0ZM745.83,656.11l-14.61,9.29c2.47,1.3,6.44,4.83,9.21,4.14,1.84-.46,12.55-8.26,12.91-9.86.29-1.3-6.26-3.8-7.51-3.57ZM929.84,657.81c-.71.24-9.04,11.35-8.87,12.08l10.39,5.93c4.34-3.92,7.83-8.92,10-14.36-.14-.62-10.45-4.03-11.53-3.66h.01ZM550,671.93c2.67.16,9.2,4.67,11.34,3.72,1.77-.79,9.64-11.79,9.09-13.6-.26-.74-.86-.68-1.42-.88-1.7-.6-8.49-2.09-9.91-1.44-1.83.84-6.49,8.95-8.81,10.5l-.28,1.69h-.01ZM774.38,662.28c-5.88.6-11.42-1.03-17.19-1.62-4.27,3.9-8.23,8.32-13.69,10.66l-.35,1.17,17.21,7.31c1.29-.3,11.43-13.05,12.78-15.08.52-.79,1.4-1.4,1.25-2.44h-.01ZM956.72,662.85l-11.86-1.07c-2.14,5.94-6.04,10.98-10.28,15.56,2.2,1.63,9.65,5.35,11.92,3.97,1.02-.62,11.02-17.76,10.22-18.46h0ZM1122.02,667.97l-10.97-6.17c-4.13,3.42-9.48,5.48-13.86,8.3-.55.36-1.02-.06-.73,1.26,3.31.77,9.78,7.02,12.73,6.82,2.36-.16,14.26-8.3,12.82-10.21h.01ZM591.47,662.28h-17.61c-.39,2.09-1.33,4.03-2.39,5.85-.71,1.22-7.13,9.03-6.7,9.48,3.18.32,11.59,3.77,14.19,2.56.97-.45,6.97-9.04,8.09-10.67.55-.8,4.81-6.88,4.42-7.23h0ZM604.53,662.28h-8.8l-12.21,17.33c9.69.55,20.55-7.1,21.01-17.33ZM795.96,662.85l-17.5-.46c-.52,3.06-15.02,18.22-14.31,19.19,14.37,5.03,26.16-6.76,31.81-18.73ZM972.63,662.28l-11.93.24-10.78,20.21c11.24-.92,19.3-10.41,22.72-20.44h0ZM1218.59,662.28h-95.43l15.2,7.24c25.45,9.23,57.63,8.7,80.23-7.24h0ZM1227.68,680.74v-17.33c-6.32,4.51-13.1,8.16-20.17,11.36-.71,2.3-.03,4.76-.29,7.1-.31,2.75-1.85,7.29-1.71,9.66.05.84-.21,1.02.8.8,2.61-.58,8.9-3.61,11.53-4.95,1.93-.98,9.48-4.95,9.84-6.63h0ZM320.43,664.06c-1.45-.84-4.75,3.04-6.21,3.65,3.48,3.98,1.84,15.18,3.6,18.28.36.64,2.81,2.29,3.05,4.17,2.14-1.52,5.46.42,6.17.37.79-.05,2.14-3.23,4.82-1.56-1.25-9.3-6.27-17.34-11.43-24.91h0ZM311.41,670.23c-.3-.23-4.88,2.94-5.31,3.36-.46.45-.53.38-.36,1.18l1.74.31.53,7.65,2.85-.88,2.82,5.99c.17-5.94-.47-11.96-2.27-17.61h0ZM1112.94,679.9c-.72,1.04,4.25,3.48,5.3,4.06,1.96,1.09,9.71,5.12,11.42,5.01,2.19-.14,14.04-9.88,13.94-11.65l-17.89-7.08c-1.57.03-2.56,2.68-3.66,3.7-2.49,2.32-5.98,4.59-9.11,5.95h0ZM1204.39,676.48l-14.83,3.63-5.62,17.95,17.47-4.1,2.97-17.48h.01ZM1161.78,680.46l-14.35-2.19c-3.81,4.76-8.03,8-12.76,11.68-.46.36-1.04-.01-.71,1.29l17.82,5.56c4.7-4.16,10.27-9.58,10.01-16.34h-.01ZM1186.21,680.46l-21.01.57c.03,4.44-2.35,8.4-4.88,11.88-1.26,1.74-3.83,2.82-3.64,5.16,7.62.62,15.12,1.29,22.73.29,3.32-5.5,5.48-11.62,6.81-17.9h-.01Z"/>
    <path class="cls-9" d="M934.57,612.29l-3.98-47.72h-11.93l5.68-31.24h-11.36c-.13-.82.04-1.47.32-2.24.62-1.72,4-7.25,5.18-9,.35-.52.67-.75,1.31-.7l-.28-1.13h-5.96l5.67-12.23c-2.46-3.37-5.55-6.22-7.83-9.75-16.1-24.83-3.17-54.54,22.23-66.17,2.12-.97,8.93-2.17,8.93-5.29,0-1.53-5.9-5.17-7.42-6.8-3.49-3.75-5.27-8.29-6.37-13.23-5.78-2.13-12.63-3.06-18.29-5.28-.59-.23-1.37-.21-1.46-1.09l21.01-4.84c8.57-19.24,32.09-19,40.93-.02l19.85,4.86-18.74,7.09c-1.39,4.9-3.37,9.74-7.1,13.35-1.75,1.69-9.21,5.52-5.14,9.13.76.68,9.35,3.27,11.85,4.62,24.54,13.27,32.05,49.63,13.75,70.9-1.24,1.44-3.06,2.14-3.7,3.66-.06,2.1,4.81,8.05,5.13,10.25s-5.72-.37-5.11,1.69c1.09,3.68,5.31,8.11,5.67,12.23h-12.5l6.82,31.24h-11.93l-3.29,49.59,16.92,12.33.57,5.11c-.81.04-3.01,1.05-4.33,1.07-1.79.03-9.89-.31-11.16-.64-3.78-1-12.26-9.15-16.48-10.78-.79-.31-1.53-.57-2.4-.49-11.72,2.66-23.37,8.34-34.95,11.13-1.23.3-2.4.89-3.69.34-13.66-11.07,16.65-15.22,23.02-19.37l.57-.57h0ZM932.86,463.46c-2.3.74-4.69,3.67-5.92,5.73-5.47,9.16-2.41,20.48,5.92,26.65v-32.38ZM967.52,495.84c.56.63,4.08-3.11,4.55-3.68,7.41-8.76,6.68-22.17-3.15-28.69l-.84.83-.56,31.53h0Z"/>
    <path class="cls-16" d="M1200.41,470.28c-.09,2.21-.44,4.97-.57,7.38-.01.19,0,.38,0,.57h-47.71c2.14-6.14,6.55-11.9,7.32-18.52.62-5.28.48-16.84-.68-21.92-1.4-6.14-4.52-10.63-11.41-10.04-4.76.41-6.58,2.14-8.23,6.53-1.38,3.68-2.15,11.14-2.37,15.24-1.96,36.36-.35,77.47.05,114.22.04,3.92-.51,6.85.82,11.06,1.21,3.86,4.03,6.58,8.1,7.24,6.08.99,9.24-4.15,10.97-9.21,2.76-8.04,3.64-27.5.46-35.18-1.62-3.91-4.63-7.2-6.18-11.15h47.43c.81.5.78,1.13.88,1.96,1.5,12.75-.2,30.9-.05,44.36.1,9.39,1.46,14.39-1.52,24-16.4,52.93-90.51,46.26-101.84-5.85l-.03-164.18c7.02-49.67,72.88-64.27,98.39-19.39,6.21,10.92,5.08,14.29,5.56,26.25.49,12.08,1.1,24.46.59,36.62h.02ZM1102.71,423.7c-2.01,9.98-1.07,20.94-1.14,31.24-.05,7.38.04,14.78,0,22.15-.04,7.94.03,15.91,0,23.86-.03,8.49-.56,17.2-.57,25.56-.02,14.83.21,29.54.57,44.31.38,15.58-1.82,23.15,8.05,36.54,12.56,17.05,32.15,24.43,52.85,18.4,17.1-4.98,30.71-22.47,31.69-40.17.37-6.72.07-14.23,0-21.02v-1.14c0-1.03-.55-2.06-.57-2.84-.16-9.45.12-18.95,0-28.4h-32.38c1.02,3.49,2.83,6.93,3.35,10.57.75,5.23.47,11.43.06,16.7-.54,6.87-1.81,15.99-5.77,21.78-1.22,1.77-3.39,2.75-3.88,4.92-5.51.88-7.29,2.42-13.32.54-6.97-2.18-9.6-9.24-10.54-15.87-1.8-12.69,0-32.39,0-46.01,0-8.13-.04-16.29,0-24.43.05-8.32-.08-16.67,0-24.99.07-8.05-.36-16.43,0-24.43.28-6.35.79-15.63,3.87-21.4.61-1.14,2.59-3.99,3.51-4.73,4.24-3.36,12.22-3.7,16.99-1.36,2.32,1.14,3.34,3.49,5.74,4.21.2,2.65,2.49,6.17,3.14,9.07,1.14,5.04,2.03,16.01,1.4,21.04-.61,4.85-3.53,10.49-4.54,15.34h32.66c.81-.5.78-1.13.88-1.96.53-4.52-.63-9.8-.6-13.95.06-8.6,1.45-17.83.61-26.48-.07-.68,0-1.44-.61-1.92.74-14.83-10.65-30.33-23.28-37.22-27.43-14.96-62.12,2.06-68.18,32.1h.01Z"/>
    <path class="cls-16" d="M844.82,562.3c-.61,10.31-.47,20.61-.54,30.98-.04,5.82-1.2,11.32.11,17.45,1.47,6.88,8.89,13.18,12.36,19.16h-62.49c2.6-5.79,7.75-10.33,9.93-16.48,3.56-10.02,2.2-28.92,2.54-40.06.67-22.09,1.02-44.32,1.75-66.41-1.8-34.37,2.31-71.04,0-105.14-.48-7.05-2.39-11.1-7.4-15.89-2.28-2.18-6.26-4.18-7.39-7.09h71.29c1.74,0,9.21,3.16,11.2,4.14,12.11,5.96,21.15,17.43,24.74,30.36l.16,110.09c-1.62,18.67-23.66,38.89-42.34,38.89h-13.92,0ZM814.14,428.24c.08,10.21.02,20.46,0,30.67v1.7c-.02,11.92.02,23.87,0,35.79l-.59,7.65c-.05,7.29.14,14.61.02,21.89-.07,3.97-.57,8.64-.57,12.21v27.27c0,1.11-.52,3.61-.57,5.4-.38,12.9,1.16,36.46-3.88,47.53-1.05,2.32-2.64,4.13-3.51,6.44h40.33c-1.38-3.29-3.89-5.91-5.21-9.27-3.52-8.94-1.44-34.54-1.03-45.26.08-2.1-.45-12.3.65-12.99,14.44.05,29.74-.45,41.39-10.01,6.16-5.05,13.38-15.5,14.19-23.58.89-8.82-.05-20.37,0-29.54.06-12.3.04-24.63,0-36.92-.03-9.08.1-18.19,0-27.27-.14-13.3,1.22-18.82-7.15-30.06-4.73-6.36-18-15.95-26.08-15.95h-53.68c1.09,3.51,4.53,7.46,5.08,11.11,1.48,9.9.52,22.95.6,33.2h.01Z"/>
    <path class="cls-27" d="M1201.55,470.28s.45.4.39.75c-.36,1.96-.75,5.6-2.09,6.64.13-2.42.48-5.17.57-7.38h1.14-.01Z"/>
    <path class="cls-19" d="M620.44,421.43c-.06.56.05,1.14,0,1.7-1.76.32-.93-.62-1.13-1.7h1.14-.01Z"/>
    <path class="cls-19" d="M1036.25,631.03c.75.03,1.52-.03,2.27,0l-1.13.56-1.14-.57h0Z"/>
    <polygon class="cls-13" points="297.79 671.93 298.93 672.22 297.79 672.5 297.79 671.93"/>
    <path class="cls-19" d="M934,612.86l.57-.57-.57.57Z"/>
    <path class="cls-1" d="M1331.92,342.47c4.66,1,4.8,8.84.31,10.54l-755.2.29c-.8-4.35-3.24-8.04-6.58-10.83h761.47Z"/>
    <path class="cls-28" d="M502.85,464.59c-9.4-.78-18.73-2.5-28.12-3.4-41.33-3.98-83.75-3-124.68,3.97,12.32-21.65,34.03-37.78,58.6-42.79,31.78-6.47,63.94,4.55,85.1,28.89,1,1.15,9.88,12.65,9.1,13.33h0Z"/>
    <path class="cls-21" d="M511.94,406.66c-5.37-2.11-10.76-.66-16.12-.74-44.15-.68-88.55.17-132.41-.42l-20.76.02c20.68-16.8,41.01-25.39,67.6-28.97l.57-.57c36.96-3.72,72.66,7.12,101.11,30.67h.01Z"/>
    <path class="cls-10" d="M569.31,501.53l-47.71,7.38c-.44-9.79-4.53-14.58-14.08-16.31-13-2.36-27.52-2.39-40.73-3.01-27.01-1.28-54.23-1.61-81.26-.02-10.38.61-38.58,2.14-46.46,7.5-4.14,2.82-7.35,7.82-7.2,12.97l-47.15-7.1c18.68-8.97,39.16-14.43,59.54-18.28,38.43-7.26,79.54-8.97,118.54-6.42,36.45,2.38,72.83,9.2,106.51,23.29Z"/>
    <path class="cls-22" d="M1027.16,573.66c.59,2.77,2.87,8.22,4.25,10.8,10.85,20.26,38.44,22.44,55.39,8.51v32.38l-94.86.56c3.97-5.35,8.95-11.25,10.08-18.03,1.78-10.71,1.14-24.89,1.28-35.93,1.47-.09,2.8.55,4.27.61,4.61.18,8.67-.3,13.62,0,1.05.06,2.11-.62,2.89-.58,1.2.06,1.72,1.74,3.08,1.67h0Z"/>
    <path class="cls-30" d="M1002.17,435.06c-.38-11.55.38-31-4.06-41.1l-5.6-9.45h94.01l.85.85v30.39c-15.61-11.1-35.21-16.8-49.71-.57-3.23,3.62-10.38,15.35-11.07,19.89h-24.43,0Z"/>
    <path class="cls-25" d="M657.93,460.05c-.38,12.13-.43,24.18-.57,36.36-2.04-.1-3.25-1.63-5.42-1.73-1.36-.06-2.49.56-3.45.53-5.08-.14-10.26-1.1-15.19-.87-3.2.15-4.68-.3-7.47-.25-2.14.04-4.27,1.32-6.25,1.22-1.52-.08-2.63-1.27-3.99-1.23-1.24.03-2.03,1.16-2.73,1.09s-1.42-1.02-2.37-1.02c-.9,0-1.65.92-2.41.99-2.76.24-6.55.04-9.46.07-4.2.04-11.47-.98-15.34-.51-2.08.25-5.45,2-7.72,2.27-.49-3.39.53-6.8.59-9.92.17-8.6.05-17.28-.02-25.87l81.8-1.14h0Z"/>
    <path class="cls-22" d="M714.17,587.3c12.01,17.48,38.25,19.13,53.96,5.68v32.38l-94.86.56c3.21-4.22,7.85-9.63,9.37-14.77,1.72-5.81,1.79-16.9,1.99-23.29,1.92-.88,4.43-1.57,6.56-1.61.52-.01.94.48,1.11.48h10.22c1.98,0,5.68-.6,7.88-.39,1.18.12,2.42,1.13,3.77.96Z"/>
    <path class="cls-30" d="M511.94,406.66c5.28,4.37,9.11,8.03,13.63,13.07-18.62-1.35-37.3-.44-56.05-.21-2.39.03-5.36-.74-7.89-.4-1.25.17-.7,1.06-1.38,1.75-23.83-8.99-53.37-7.51-76.12,3.98l-.81-2.25-57.7-.03c6.32-7.43,9.55-10.96,17.04-17.04l20.76-.02c43.85.58,88.26-.26,132.41.42,5.35.08,10.75-1.36,16.12.74h-.01Z"/>
    <path class="cls-32" d="M656.79,525.95c.05,10.83.26,22.06.57,32.95-1.62.31-1.02-1.36-1.95-2.3-1.83-1.86-3.07-.54-4.58-.65-16.44-1.24-32.87.21-48.93-.27-7.81-.23-18.6-1.11-26.09-.23-1.15.14-.66,1.47-1.95,1.18.47-10.36,1.39-21.05,1.7-31.24,4.92-2.32,10.46-.6,15.6-.54,17.71.2,35.21-.44,52.75-.24,4.21.05,8.94-.63,12.88,1.35h0Z"/>
    <path class="cls-31" d="M573.86,556.62c1.3.29.81-1.04,1.95-1.18,7.49-.88,18.27,0,26.09.23,16.06.48,32.49-.97,48.93.27,1.51.11,2.76-1.21,4.58.65.92.94.33,2.61,1.95,2.3.04,1.51.57,3.49.57,4.26v16.47c0,1.45.47,4.56.57,6.53-1.82-.05-.83-1.48-3.09-1.74-3.53-.41-8.38.08-11.97.49l-11.36-.91-14.49,1.02c-1.55-4.88-3.72-9.62-4.6-14.71l-5.03-.03c-1.48,6.14-1.87,12.41-2.3,18.72-2.83-.82-4.65-1.29-7.69-1.15-.74.03-1.47.59-1.68.59h-19.31c-.15,0-.52-.47-1.04-.43-.88.07-2.01,1.31-3.22,1,.2-3.05.57-7.75.57-10.51v-11.93c0-2.67.43-6.9.57-9.94h0Z"/>
    <path class="cls-1" d="M547.73,342.47c-1.2,1.88-3.14,3.11-4.45,4.93-1.53,2.13-2.06,5.65-4.33,5.9h-220.4c-.33-.07-.56-2.84-.86-3.75-.88-2.64-2.39-4.61-3.43-7.07h233.47Z"/>
    <path class="cls-21" d="M682.92,416.88c-.53-10.44-.15-17.28-5.39-26.71-1-1.79-2.53-3.23-3.13-5.1h94.3v30.67c-12.93-8.78-28.21-15.42-43-6.36-2.89,1.77-7.27,5.91-9.26,8.63-11.23-1.16-22.38.84-33.51-1.14h0Z"/>
    <path class="cls-17" d="M657.36,496.41c-.11,9.82-.61,19.64-.57,29.54-3.94-1.98-8.66-1.3-12.88-1.35-17.55-.2-35.04.44-52.75.24-5.14-.06-10.68-1.78-15.6.54.2-6.39-.21-12.84.07-19.24,3.25-.93,6.61-1.52,9.89-2.34.57-.14,1.84.39,1.4-.86-.19-.53-9.06-3.39-10.47-4.33-.8-.53-.78-.79-.9-1.64,2.27-.27,5.64-2.02,7.72-2.27,3.87-.47,11.15.56,15.34.51,2.91-.03,6.7.17,9.46-.07.75-.07,1.51-.99,2.41-.99.95,0,1.69.95,2.37,1.02s1.49-1.06,2.73-1.09c1.35-.04,2.47,1.15,3.99,1.23,1.98.1,4.11-1.18,6.25-1.22,2.79-.05,4.27.4,7.47.25,4.93-.23,10.1.73,15.19.87.96.03,2.09-.6,3.45-.53,2.17.1,3.38,1.64,5.42,1.73h.01Z"/>
    <path class="cls-24" d="M544.89,570.25c-.56,1.08-.89,2.5-1.61,3.79-10.84,19.43-27.7,37.11-46.87,48.38-7.24-5.32-17.05-10.2-23.67-16.09-2.94-2.61-4.81-7.06-6.29-10.74,9.24-4.67,18.28-10.3,25.91-17.37,2.57-2.38,6.05-5.86,8.22-8.54l44.31.57Z"/>
    <path class="cls-6" d="M575.56,436.76c1.55-.27,1,1.44,2.54,1.72,1.98.36,5.15-.12,7.4-.01,9.31.44,20.57-1.08,29.56-.02,2.12.25,4.45,3.04,4.25.58.37.03.77-.04,1.14,0,2.51.28,2.65-.57,3.12-.57h30.67c3.9,0,1.96,3.31,4.26,3.41-.27,6.03-.38,12.14-.57,18.18l-81.8,1.14c-.07-7.99-.42-16.34-.57-24.43Z"/>
    <path class="cls-25" d="M1233.36,466.87c-3.18,9.6-4.85,20-5.11,30.11h34.65v-17.04h6.82v17.04h13.63c6.71-30.4,38.25-19.19,34.08,9.66l-4.77-1.18c-.62.09-1.8,3.29-2.21,3.87-.21.3-.94.1-.97.15.93-5.77.67-12.95-4.92-16.38-8.77-5.38-16.68,4.19-21.21,10.7-.59-1.58-.8-2.1-2.52-2.31-3.81-.46-7.65.64-11.4.63-17.53-.05-34.87-.63-52.23-.62-4.46,0-9.01-.28-13.37.59-.07-13.73.9-23.84,5.11-36.92l8.18-.52c4.26,1.49,10.16-.31,14.27.51,1.08.22,1.36.98,1.98,1.71h-.01Z"/>
    <path class="cls-29" d="M518.76,532.19c4.94.73,9.97-.73,14.95-1.12l1.8-2.29c.45,2.36.9,3.81,3.67,3.38l.1-1.56,3.61-1.25.86,2.29c1.9.84,3.18-1.78,4.25-1.72l.28,1.29c2.66,1.98,1.48-3.4,4.04-1.49.25,3.04,3.32,2.48,5.62,2.49-2.47,14.47-6.38,25.15-13.07,38.06l-44.31-.57c8.63-10.67,15.06-24.14,18.18-37.49l.02-.02Z"/>
    <path class="cls-24" d="M369.36,585.59c6.38,3.59,12.26,7.17,19.09,10.18.54.24.99-.33.78.89l-5.97,7.66-25.45,18.65c-15.02-8.74-28.75-21.68-39.01-35.68l1.19-2.21c.22-.24,5.77-.64,6.48-.63,14.19.19,28.67.64,42.89,1.14Z"/>
    <path class="cls-22" d="M617.6,585.02l14.49-1.02,11.36.91c3.58-.42,8.44-.91,11.97-.49,2.26.27,1.26,1.69,3.09,1.74.47,9.26.57,20.22,1.71,29.25.46,3.64,1.16,7.5,3.4,10.52h-33.23c-4.95-13.26-8.48-27.32-12.78-40.9h-.01Z"/>
    <path class="cls-17" d="M707.92,489.59c.02,3.21-.01,6.45,0,9.66,14.69.04,29.1-4.79,40.33-14.2l-.57,34.08c-6.51-5.81-14.13-10.64-22.71-12.79-1.27-.32-5.65-1.42-6.54-1.42h-10.51c-.02,6.24.03,12.51,0,18.75h-23.29c-.02-11.16.11-22.36,0-33.51,7.74-1.46,15.48-.29,23.29-.57h0Z"/>
    <path class="cls-24" d="M605.67,589c-.82,12.33-1.31,25.07,2.84,36.92h-42.6c.65-2.74,2.52-5,3.43-7.65,2.36-6.87,2.89-21.6,3.39-29.28,1.21.31,2.34-.93,3.22-1,.52-.04.89.43,1.04.43h19.31c.21,0,.94-.55,1.68-.59,3.04-.14,4.86.34,7.69,1.15v.02Z"/>
    <path class="cls-31" d="M343.23,556.62c4.11,7.28,12.44,17.51,18.74,23.01,2.39,2.09,5.47,3.46,7.39,5.96-14.22-.49-28.7-.95-42.89-1.14-.71,0-6.26.39-6.48.63l-1.19,2.21c-4.57-6.24-13.59-20.04-14.77-27.27-.03-.19.58-1.92-.57-3.11l4.35-1.29c8.85,1.71,18.26.22,27.21.4,2.56.05,5.44,1.1,8.21.59h0Z"/>
    <path class="cls-2" d="M325.62,422.56l57.7.03.81,2.25c-9.47,4.78-22.01,14.72-28.97,22.72-.96-1.02-2.38-1.07-3.67-1.16-11.42-.79-27.73-.61-39.24,0-1.26.07-2.43.48-3.67.59,5.18-9.86,10.05-16.21,17.04-24.43Z"/>
    <path class="cls-17" d="M1026.59,496.98c.01.76-.02,1.52,0,2.27,14.71-.19,28.98-4.77,40.33-14.2l-.57,34.08c-5.84-5.17-12.49-9.7-20-12.09-1.67-.53-7.31-2.11-8.68-2.11h-11.08c-.05,5.58.06,11.19.02,16.78-.01,1.71-.59,3.38-.59,5.37-1.15-.26-1.84-1.02-3.1-1.17-5.81-.69-13.76.17-19.62.6-.01-10.4.1-20.84,0-31.24,1.01.42,1.77.47,2.85.34,1.2-.14,6.12-1.55,6.5-1.51.3.03.23,1.04.7,1.16,3.19.78,7.11.41,10.15.64,1.01.08,1.84,1.36,3.1,1.07h-.01Z"/>
    <path class="cls-27" d="M872.37,646.94l16.76,9.66h-123.55c-1.85,0-10.04-2.82-12.2-3.7l-10.8-5.95h129.8-.01Z"/>
    <polygon class="cls-27" points="1237.91 646.94 1227.65 656.29 1112.96 656.29 1100.44 646.94 1237.91 646.94"/>
    <path class="cls-27" d="M1065.22,656.6h-118.44c-2.58,0-11.11-3.12-13.9-4.28-3.14-1.3-7.11-3.24-9.68-5.38h127.53l14.49,9.66h0Z"/>
    <path class="cls-23" d="M506.72,470.96l2.95,7.27c-7.91-.83-15.74-2.43-23.64-3.33-46.84-5.33-95.88-4.1-142.22,4.47.64-2.88,1.42-7.32,4.41-8.36,6.99-2.44,24.76-3.94,32.8-4.7,34.26-3.23,72.04-2.52,106.15,1.77,6.53.82,13.04,2.04,19.56,2.88h-.01Z"/>
    <path class="cls-32" d="M333.01,528.22c1.31,7.6,6.4,21.62,10.22,28.4-2.77.51-5.65-.54-8.21-.59-8.95-.18-18.35,1.3-27.21-.4l-4.35,1.29c1.15,1.19.54,2.92.57,3.11-1.24-.7-1.65-2.57-2.13-3.84-3.61-9.55-5.51-17.9-6.96-27.97,2.63-1.91,4.75-.7,7.2-.78,7.34-.25,15.33-.66,22.65-.38,2.71.11,5.64.42,8.21,1.16h0Z"/>
    <path class="cls-17" d="M1283.35,503.79c-.81,1.16-1.27,3.48-2.56,4.54h-11.08v16.47h-6.82v-16.47h-34.65c.97,4.45.56,9.43,1.18,13.87.18,1.32.81,2.77,1.09,4.31l-24.43.57c-1.71-8.92-2.23-15.92-2.27-24.99,4.37-.87,8.91-.59,13.37-.59,17.36,0,34.7.58,52.23.62,3.76.01,7.59-1.1,11.4-.63,1.73.21,1.93.73,2.52,2.31h.02Z"/>
    <path class="cls-29" d="M1026.02,527.08c0,.8.59,1.94.59,3.1,0,11.78-1.68,32.92.55,43.48-1.36.08-1.88-1.6-3.08-1.67-.78-.04-1.84.65-2.89.58-4.95-.31-9.01.17-13.62,0-1.46-.06-2.79-.7-4.27-.61.19-15.13.02-30.31,0-45.44,5.87-.43,13.82-1.29,19.62-.6,1.26.15,1.95.91,3.1,1.17h0Z"/>
    <path class="cls-2" d="M525.57,419.72c5.22,5.81,10.46,11.97,14.2,18.75-4.18-2.25-9-.63-13.35-.68-5.6-.07-11.44-.48-17.02-.48s-12.07-.36-17.65.02c-1.62.11-.59,1.4-.83,2.28-7.39-6.9-21.2-15.17-30.67-18.75.69-.69.13-1.58,1.38-1.75,2.53-.34,5.5.43,7.89.4,18.75-.22,37.43-1.13,56.05.21h0Z"/>
    <path class="cls-25" d="M550.57,459.48c4.11,10.42,7.21,20.6,8.52,31.81-14.04-4.44-28.09-8.86-42.6-11.65-.84-.51-6.5-15.35-7.96-17.89-.47-2.08.98-2.07,2.55-2.27h39.49,0Z"/>
    <path class="cls-27" d="M703.37,656.6h-127.24v-1.7c6.08.1,11.69-2.28,15.01-7.43l93.78-.54c6.3,2.58,13.05,5.54,18.45,9.67h0Z"/>
    <path class="cls-30" d="M574.99,420.29c-.18-8.15.08-16.28-.56-24.42,5.59,1.77,11.62-.54,15.64-4.53,1.48-1.47,3.68-5.73,4.48-6.31,1.97-1.44,11.05,0,13.97-.53,1.42,11.79,2.43,24.13,4.54,35.79-1.39-.03-1.81-1.44-3.13-1.7-4.05-.79-8.65.3-12.46.58-6.08.44-13.38-1.67-19.36-.6-1.51.27-1.07,2.32-3.1,1.72h-.02Z"/>
    <path class="cls-6" d="M539.78,438.47c2.81,1.51,9.31,17.27,10.79,21.02h-39.49c-1.57.21-3.01.2-2.55,2.27-4.16-7.25-11.66-16.59-17.61-22.15.24-.87-.79-2.17.83-2.28,5.58-.38,11.97-.02,17.65-.02s11.42.41,17.02.48c4.35.05,9.17-1.56,13.35.68h.01Z"/>
    <path class="cls-2" d="M660.2,411.2c-.14,10.2-1.26,20.48-1.7,30.67-2.3-.1-.36-3.41-4.26-3.41h-30.67c-.48,0-.62.85-3.12.57,5.78-8.3,5.25-18.82,6.82-28.4,8.2-3.1,17.21-1.02,25.84-1.14.93-.01,1.88-.6,2.82-.55,1.86.11,2.54,2.06,4.29,2.25h-.02Z"/>
    <path class="cls-2" d="M716.44,418.02c-1.68,2.29-4.36,7.35-5.6,10.02-4.29,9.27-2.85,16.91-2.92,26.9-6.62.53-14.27-.71-20.76-.03-1.26.13-1.95.92-3.1,1.17-.08-3.61-.57-7.68-.57-11.08v-17.61c0-2.84-.41-7.33-.57-10.51,11.14,1.98,22.28-.02,33.51,1.14h0Z"/>
    <path class="cls-30" d="M1237.91,420.86c1.11-1.04,2.12-2.59,3.4-3.7,17.35-15.02,38.75-25.33,60.75-31.57.58-2.03-1.2-3.85-1.64-5.37-.26-.9.06-.89.84-.84,5.17.3,12.39,4.23,17.89,4.56.23.86-.22.94-.56,1.42-2,2.86-6.27,7.16-8.81,9.94-.4.44-2.89,3.02-3.13,2.83l-1.71-7.39c-1.22-1.18-17.54,9.7-19.72,11.24-8.73,6.16-17.24,13.39-24.58,21.14.07-.92.04-2.21-1.28-2.16-2.03.07-4.12.48-6.41.48-3.65,0-6.79-.24-10.34-.46-1.54-.1-3.11,1.09-4.69-.13h-.01Z"/>
    <path class="cls-25" d="M300.63,465.16c2.05-.15,3.9-1.05,5.97-1.18,3.35-.21,8.36.66,11.9.65,7.92-.04,15.77-.78,23.6-.03-.03.75.05,1.52,0,2.27-.11,1.46-4.61,13.03-5.44,13.59-14.31,3.22-28.51,6.9-42.27,11.97.8-9.34,3.21-18.44,6.24-27.26h0Z"/>
    <path class="cls-21" d="M627.25,410.63l-.57-25.56h37.49c-4.47,6.21-2.7,15.36-3.41,22.72-.27.06-.54.31-.57.57-.09.89.01,1.91,0,2.84-1.75-.19-2.43-2.14-4.29-2.25-.94-.06-1.89.53-2.82.55-8.62.12-17.64-1.96-25.84,1.14h.01Z"/>
    <path class="cls-25" d="M707.92,454.94c-.09,11.53-.08,23.12,0,34.65-7.81.28-15.55-.89-23.29.57-.11-11.35-.31-22.73-.57-34.08,1.15-.25,1.84-1.03,3.1-1.17,6.49-.68,14.14.56,20.76.03Z"/>
    <path class="cls-15" d="M355.16,447.56c-2.17,2.5-5.15,6.86-7.05,9.71-2.06,3.09-3.54,6.83-6.01,9.61.06-.75-.02-1.52,0-2.27-7.83-.75-15.68-.01-23.6.03-3.54.02-8.56-.86-11.9-.65-2.07.13-3.92,1.03-5.97,1.18,2.2-6.4,4.81-12.2,7.95-18.18,1.24-.11,2.41-.53,3.67-.59,11.51-.61,27.82-.79,39.24,0,1.3.09,2.72.14,3.67,1.16h0Z"/>
    <path class="cls-31" d="M707.92,553.78c.15,12.28-1.09,22.84,6.25,33.51-1.35.17-2.59-.84-3.77-.96-2.19-.21-5.9.39-7.88.39h-10.22c-.17,0-.59-.49-1.11-.48-2.13.05-4.63.74-6.56,1.61.36-11.26-.07-22.77,0-34.08h23.29Z"/>
    <path class="cls-25" d="M1026.59,462.89c-.06,11.33-.22,22.75,0,34.08-1.25.29-2.08-1-3.1-1.07-3.05-.23-6.97.14-10.15-.64-.47-.11-.39-1.13-.7-1.16-.37-.04-5.3,1.37-6.5,1.51-1.08.13-1.84.08-2.85-.34-.1-10.99-.34-21.96-.57-32.95,1.66.26,3.21-.6,4.83-.62,2.25-.02,4.51.03,6.79.02,4.15-.01,8.39-.13,12.24,1.16h.01Z"/>
    <path class="cls-2" d="M613.05,420.29c.87,4.78,2.15,11.18,3.96,15.64.53,1.29.85,2.51,2.29,3.11.21,2.46-2.12-.33-4.25-.58-8.99-1.06-20.25.46-29.56.02-2.25-.11-5.42.37-7.4.01-1.54-.28-.99-1.99-2.54-1.72-.1-5.51-.44-10.99-.57-16.47,2.03.6,1.59-1.45,3.1-1.72,5.97-1.06,13.27,1.04,19.36.6,3.81-.28,8.41-1.37,12.46-.58,1.32.26,1.74,1.67,3.13,1.7h.02Z"/>
    <path class="cls-17" d="M521.03,519.13c.14-1.49-.12-3.05,0-4.54l39.19-5.12c.16,7.67-.99,15.22-2.27,22.72-2.3,0-5.38.55-5.62-2.49-2.56-1.9-1.38,3.47-4.04,1.49l-.28-1.29c-1.07-.07-2.36,2.55-4.25,1.72l-.86-2.29-3.61,1.25-.1,1.56c-2.77.43-3.23-1.02-3.67-3.38l-1.8,2.29c-4.98.39-10.01,1.85-14.95,1.12.14-.62.47-1.23.57-1.7l3.97-.86v-.84l-3.4-.57c.45-2.65.21-6,.57-8.52.27-.06.54-.31.57-.57l-.02.02Z"/>
    <path class="cls-32" d="M707.92,523.67c-.05,10.02-.12,20.09,0,30.11h-23.29c.06-10.02.02-20.08,0-30.11h23.29Z"/>
    <path class="cls-24" d="M1248.7,573.09c4.25,5.31,8.02,11.05,12.51,16.17,1.43,1.64,8.71,8.19,8.99,9.23.66,2.39-3.95,7.88-4.76,10.39-13.63-7.94-26.25-18-36.05-30.42-1.59-2.02-2.64-4.02-3.99-5.95,2.33-1.31,4.52.01,6.53,0,4.02-.01,9-.81,13.08-.64,1.56.07,2.33.74,3.68,1.2v.02Z"/>
    <path class="cls-32" d="M1230.52,526.51c1.74,9.29,4.8,19.73,8.52,28.4-.91,1.09-2.23-.58-3.67-.59-3.1-.02-7.58.88-10.91.94-1.59.03-5.73-1.17-6.73.2l-.84,2.85c-5.38-10.68-8.52-19.39-10.79-31.24l24.43-.57h-.01Z"/>
    <path class="cls-6" d="M1026.59,435.06c-1.1,7.22.04,19.92,0,27.83-3.85-1.29-8.09-1.17-12.24-1.16-2.28,0-4.54-.05-6.79-.02-1.62.02-3.17.88-4.83.62-.18-9.09-.27-18.18-.57-27.27h24.43Z"/>
    <path class="cls-27" d="M1265.74,656.6l6.78-8.84,2.56-.85,56.8.07c3.19.5,4.44,4.45,3.3,7.21-.2.48-1.91,2.42-2.12,2.42h-67.32Z"/>
    <path class="cls-2" d="M1260.63,423.13c-6.38,6.73-13.54,15.83-18.18,23.86l-1.99-2.28c-7.47.28-15.07-.62-22.44.57,6.17-10.55,11.12-16.19,19.88-24.43,1.58,1.21,3.15.03,4.69.13,3.55.23,6.69.47,10.34.46,2.29,0,4.38-.41,6.41-.48,1.32-.05,1.36,1.24,1.28,2.16h.01Z"/>
    <path class="cls-17" d="M294.95,528.22c-.62-4.29-1.43-8.84-1.73-13.32-.09-1.42.1-2.87.02-4.29l38.55,5.19c.74.74.88,10.46,1.22,12.42-2.58-.74-5.51-1.05-8.21-1.16-7.32-.29-15.31.12-22.65.38-2.44.08-4.57-1.12-7.2.78h0Z"/>
    <path class="cls-15" d="M1242.45,446.99c-3.47,6.01-6.91,13.3-9.09,19.88-.62-.72-.91-1.49-1.98-1.71-4.11-.82-10.01.98-14.27-.51l-8.18.52c2.49-7.73,5.03-12.94,9.09-19.88,7.37-1.19,14.97-.29,22.44-.57l1.99,2.28h0Z"/>
    <path class="cls-31" d="M1239.04,554.92c2.7,6.29,6.49,12.13,9.66,18.18-1.35-.46-2.12-1.14-3.68-1.2-4.08-.18-9.06.62-13.08.64-2.01,0-4.2-1.32-6.53,0-3.62-5.18-5.68-8.55-8.52-14.2l.84-2.85c1-1.37,5.14-.17,6.73-.2,3.33-.06,7.81-.96,10.91-.94,1.44,0,2.76,1.67,3.67.59v-.02Z"/>
    <path class="cls-12" d="M1186.21,680.46c-1.32,6.27-3.49,12.39-6.81,17.9-7.61,1-15.11.33-22.73-.29-.19-2.34,2.38-3.42,3.64-5.16,2.53-3.48,4.91-7.44,4.88-11.88l21.01-.57h.01Z"/>
    <path class="cls-27" d="M455.7,656.6l9.47-9.56c9.12-.02,18.37-.44,27.43.22l15.37,9.34h-52.27Z"/>
    <path class="cls-12" d="M1227.68,680.74c-.36,1.69-7.91,5.65-9.84,6.63-2.63,1.34-8.92,4.37-11.53,4.95-1.01.22-.75.04-.8-.8-.13-2.36,1.4-6.9,1.71-9.66.26-2.33-.42-4.79.29-7.1,7.07-3.19,13.85-6.85,20.17-11.36v17.33h0Z"/>
    <path class="cls-12" d="M795.96,662.85c-5.65,11.98-17.44,23.76-31.81,18.73-.71-.97,13.79-16.13,14.31-19.19l17.5.46Z"/>
    <path class="cls-12" d="M774.38,662.28c.14,1.03-.73,1.65-1.25,2.44-1.35,2.04-11.49,14.78-12.78,15.08l-17.21-7.31.35-1.17c5.46-2.34,9.42-6.76,13.69-10.66,5.78.59,11.31,2.22,17.19,1.62h.01Z"/>
    <path class="cls-12" d="M1265.17,646.94c-.32-6.14-3.33-11.66-5.57-17.22,3.05-4.24,5.52-8.85,8.27-13.29,1.25-2.02,4.16,1.71,5.26,2.95,2.13,2.38,5.61,7.48,5.09,10.76-.21,1.32-9.82,14.35-11.37,15.94-.54.56-.74,1.08-1.69.86h0Z"/>
    <path class="cls-12" d="M1280.52,625.35c-1.72-5.33-5.88-9.44-10.19-12.84l8.21-16.72c1.35-.23,6.6,5.24,7.64,6.57.98,1.25,3.94,6.05,3.95,7.37,0,.86-7.31,14.04-8.22,15.03-.47.51-.57.77-1.39.59h0Z"/>
    <path class="cls-12" d="M1112.94,679.9c3.12-1.36,6.62-3.63,9.11-5.95,1.1-1.02,2.08-3.67,3.66-3.7l17.89,7.08c.1,1.76-11.75,11.51-13.94,11.65-1.71.11-9.46-3.92-11.42-5.01-1.04-.58-6.01-3.02-5.3-4.06h0Z"/>
    <path class="cls-12" d="M1161.78,680.46c.26,6.76-5.31,12.18-10.01,16.34l-17.82-5.56c-.33-1.3.25-.93.71-1.29,4.73-3.69,8.95-6.92,12.76-11.68l14.35,2.19h.01Z"/>
    <path class="cls-12" d="M1231.09,663.13c0-.17-.52-.61-.55-1.16l14.47-13.88c3.24,6.13,2.1,14.13.32,20.61l-14.23,10.62c-.04-5.39.05-10.79,0-16.19h0Z"/>
    <path class="cls-12" d="M591.47,662.28c.4.34-3.87,6.43-4.42,7.23-1.12,1.63-7.12,10.22-8.09,10.67-2.6,1.2-11.01-2.25-14.19-2.56-.43-.45,6-8.26,6.7-9.48,1.05-1.82,2-3.76,2.39-5.85h17.61Z"/>
    <polygon class="cls-12" points="1204.39 676.48 1201.42 693.96 1183.94 698.06 1189.56 680.11 1204.39 676.48"/>
    <path class="cls-27" d="M400.04,656.6h-38.63c2.29-1.89,8.95-8.65,11.33-9.4,1.94-.62,12.63-.53,15.12-.29,3.22.32,5.22,3.89,7.63,6.01,1.43,1.26,3.42,2.13,4.55,3.69h0Z"/>
    <path class="cls-12" d="M320.43,664.06c5.16,7.57,10.18,15.61,11.43,24.91-2.68-1.68-4.02,1.5-4.82,1.56-.72.05-4.04-1.89-6.17-.37-.24-1.88-2.69-3.53-3.05-4.17-1.76-3.1-.12-14.3-3.6-18.28,1.45-.61,4.75-4.49,6.21-3.65h0Z"/>
    <path class="cls-12" d="M1257.78,633.31c1.52,4.91,5.62,12.61,4.43,17.77-.3,1.32-7.09,8.29-8.62,9.84-1.1,1.11-2.26,2.42-3.75,3.06.48-6.45.63-12.93-2.19-18.95,3.31-3.34,5.79-7.48,8.83-11.01.35-.4-.02-1.08,1.29-.72h0Z"/>
    <path class="cls-12" d="M555.68,657.74c.67.75-8.35,11.88-9.93,11.91-.97.02-17.34-7.82-17.33-8.79,3.49-2.53,7.64-4.58,10.04-8.27l17.22,5.16h0Z"/>
    <path class="cls-12" d="M1078.75,637.95c.83,1.41-1.32,3.54-2.18,4.72-1.07,1.46-7.06,7.85-8.34,8.18-1.61.42-9.54-5.91-11.51-7.07l7.7-12.1c5.17,1.11,9.75,3.82,14.34,6.28h0Z"/>
    <path class="cls-12" d="M1286.52,597.76c-1.76-1.94-3.99-3.56-6.05-5.18l4.59-13.24c.48-.37,4.2,2.83,4.84,3.39,3.12,2.75,5.85,6.01,8.1,9.49l-5.85,13.24c-1.92-2.53-3.49-5.33-5.64-7.7h.01Z"/>
    <path class="cls-12" d="M956.72,662.85c.79.7-9.21,17.84-10.22,18.46-2.27,1.38-9.72-2.35-11.92-3.97,4.25-4.58,8.14-9.62,10.28-15.56l11.86,1.07h0Z"/>
    <path class="cls-12" d="M363.1,627.06c2.35,5.36,4.2,10.86,5.16,16.67l-10.55,8.31-5.43-17.21,10.82-7.77h0Z"/>
    <path class="cls-12" d="M342.67,665.12c.03-6.68-1.66-13.13-3.36-19.51l9.32-7.75c.9-.02,5.61,15.9,5.31,17.2l-11.26,10.05h-.01Z"/>
    <path class="cls-12" d="M742.57,653.2c.19.8-.13.93-.55,1.43-.89,1.04-13.56,8.63-14.6,8.69l-10.97-6.43,14.46-10.52,11.65,6.83h0Z"/>
    <path class="cls-12" d="M1122.02,667.97c1.44,1.91-10.46,10.05-12.82,10.21-2.96.19-9.43-6.05-12.73-6.82-.29-1.32.17-.91.73-1.26,4.38-2.82,9.73-4.88,13.86-8.3l10.97,6.17h-.01Z"/>
    <path class="cls-12" d="M1107.82,660.57l-14.49,7.92-9.93-6.5,12.29-11.01c.68-.12,10.35,7,11.27,7.9.55.54,1.07.75.86,1.69Z"/>
    <path class="cls-12" d="M387.47,608.95c1.04.61,6.53,13.91,6.33,15.56-.18,1.52-8.56,6.26-10.24,7.66-.81-5.95-4.09-10.99-6.86-16.16,2.86-1.42,6.53-5.6,9.14-6.84.51-.24,1.09-.54,1.62-.23h0Z"/>
    <path class="cls-12" d="M336.41,648.65c1.02,6.11,3.44,13.96,2.26,20.15-.2,1.06-4.58,5.6-5.37,5.41l-9.34-14.41c.13-.73,9.42-9.28,10.75-10.31.57-.44.72-1.1,1.7-.85h0Z"/>
    <path class="cls-12" d="M1303.8,506.64c.67.67-3.89,12.38-5.14,13.32l-17.58,4.85c-.43-.46,2.89-10.58,4-11.62.99-.93,18.02-7.26,18.72-6.55Z"/>
    <path class="cls-12" d="M703.38,648.65l13.46-10.73c1.68-.44,9.33,5.02,10.95,6.46,0,.92-12.95,9.85-15.14,10.39-.55.05-8.02-4.08-8.68-4.74-.47-.47-.81-.52-.6-1.38h0Z"/>
    <path class="cls-12" d="M929.84,657.81c1.08-.37,11.39,3.04,11.53,3.66-2.17,5.44-5.66,10.44-10,14.36l-10.39-5.93c-.17-.73,8.16-11.84,8.87-12.08h-.01Z"/>
    <path class="cls-12" d="M1070.9,653.75c-.78-1.14,3.77-3.95,4.57-4.79,2.18-2.29,4.76-5.48,6.24-8.25l10.72,7.75-.53,1.6c-2.93,1.45-8.38,8.75-11.2,9.3-2.4.47-7.12-4.92-9.8-5.61h0Z"/>
    <path class="cls-12" d="M972.63,662.28c-3.42,10.04-11.48,19.52-22.72,20.44l10.78-20.21,11.93-.24h0Z"/>
    <path class="cls-12" d="M1303.8,569.12c1,1.02-2.78,15.47-3.72,17.62-.31.7.02,1.38-1.11,1.13-3.5-4.34-7.44-8.42-12.14-11.45l3.14-7.78,13.82.48h.01Z"/>
    <path class="cls-12" d="M550,671.93l.28-1.69c2.32-1.56,6.98-9.66,8.81-10.5,1.41-.65,8.2.84,9.91,1.44.57.2,1.17.14,1.42.88.55,1.81-7.32,12.8-9.09,13.6-2.13.95-8.67-3.56-11.34-3.72h.01Z"/>
    <path class="cls-12" d="M689.74,642.96c-.2-.99.52-1.4,1.13-1.99,1.12-1.08,10.44-8.45,11.21-8.68,2.93-.85,8.94,2.05,11.52,3.58l-13.49,11.54-10.37-4.45h0Z"/>
    <path class="cls-12" d="M1292.39,539.63c-.12,2.45,2.55,7.3,2.23,9.18-.11.65-4.5,9.75-5.14,10.82-1.23,2.06-3.83-1.27-4.98-2.73-2.45-3.11-4.03-7.37-4.5-11.25,1.44-1.65,11.06-6.92,12.39-6.02Z"/>
    <path class="cls-12" d="M604.53,662.28c-.47,10.23-11.33,17.88-21.01,17.33l12.21-17.33h8.8Z"/>
    <path class="cls-12" d="M371.64,640.69c-1.13-5.63-3.11-10.96-5.6-16.1l7.02-5.51c2.17-.01,7.32,12.78,7.11,15.09l-8.53,6.52h0Z"/>
    <path class="cls-12" d="M893.1,633.88c.51.68-7.92,12.79-8.89,12.97l-9.29-4.47,7.2-11.85c3.98-.25,7.35,2.24,10.97,3.35h.01Z"/>
    <path class="cls-12" d="M1296.41,524.25l-4.09,11.82c-4.72.85-8.86,3.47-12.94,5.79l.66-12.98c2.02-1.01,15.43-5.5,16.38-4.63h-.01Z"/>
    <path class="cls-12" d="M522.73,644.68c.22,1.01-.3,1.12-.94,1.61-2.78,2.12-7.74,3.11-10.8,5.07l-11.54-6.4,8.87-7.58,14.4,7.3h.01Z"/>
    <path class="cls-12" d="M899.41,656.53c-.77-1.32,6.88-10.35,7.68-12.48l8.68,5.5c-1.04,2.3-4.97,11.55-7.17,12.09l-9.19-5.12h0Z"/>
    <path class="cls-12" d="M887.42,649.2l8.87-13.01,8.13,5.43c.3,1.01-7.05,11.76-8.32,12.07l-8.68-4.5h0Z"/>
    <path class="cls-12" d="M1060.67,631.04c.57.5-5.68,10.23-7.22,10.68l-16.63-1.03c-.65-.55,1.55-2.41,2-2.82,5.94-5.33,14.19-6.47,21.85-6.83h0Z"/>
    <path class="cls-12" d="M745.83,656.11c1.25-.23,7.8,2.27,7.51,3.57-.36,1.6-11.07,9.4-12.91,9.86-2.77.69-6.74-2.84-9.21-4.14l14.61-9.29Z"/>
    <path class="cls-12" d="M1307.28,557.69l-4.04-8.44c3.64-.39,8.27-5.39,11.22-6.15,2.98-.77,6.64,7.61,6.14,8.42-1.94,1.41-11.59,7.28-13.32,6.18h0Z"/>
    <path class="cls-12" d="M493.76,627.07c.21.8-.19.94-.54,1.43-.92,1.27-9.57,5.98-11.12,5.9l-9.92-5.65c-.27-1.47.21-.87.8-1.18,3.88-1.97,7.83-3.75,11.5-6.1l9.28,5.6h0Z"/>
    <path class="cls-12" d="M485.81,637.27c-.29-1.33.18-.91.73-1.26,3.16-2.04,7.48-3.26,10.45-6l8.69,5.28c-2.03,1.96-6.48,7.01-9.37,7.16s-7.3-4.62-10.5-5.18h0Z"/>
    <path class="cls-12" d="M526,647.61c2.34-.46,7.15,2.21,9.23,3.59.22.94-7.83,6.89-9.12,7.36-2.98,1.1-8.67-3.5-11.32-5.1-.01-.63,10.39-5.7,11.21-5.86h0Z"/>
    <path class="cls-17" d="M1317.43,506.63c-1.11,7.69-5.6,16.8-13.96,18.71-.87.2-.93.04-.8-.81,3.2-4.22,4.02-10.92,6.81-15.06.04-.05.76.15.97-.15.41-.58,1.59-3.79,2.21-3.87l4.77,1.18h0Z"/>
    <path class="cls-12" d="M919,651.52c1.43.88,7.66,3.37,7.65,4.79,0,.75-8.43,11.72-9.3,11.58l-6.06-4.19,7.71-12.18h0Z"/>
    <path class="cls-12" d="M697.69,631.04l-11.76,10.13-9.83-1.05c-1.63-1.29,8.2-6.73,9.1-7.09,3.95-1.58,8.25-2.2,12.49-1.99h0Z"/>
    <path class="cls-12" d="M878.33,629.9l-6.34,10.69-10.7-.48c2.32-7.05,9.96-10.56,17.04-10.22h0Z"/>
    <path class="cls-12" d="M462.52,621.38l13.45-5.58,5.28,3.58c-.01.72-11.38,6.56-12.79,6.49-.78-.04-6.7-3.49-5.94-4.5h0Z"/>
    <path class="cls-12" d="M1322.52,554.93l.61,6.51c-1.9.82-12.44,5.98-13.64,4.82l-.53-5.61c2.51.57,12.44-6.47,13.56-5.72h0Z"/>
    <path class="cls-12" d="M1304.37,503.22l-16.47,5.11c2.51-7.02,13.62-18.39,16.47-5.11Z"/>
    <path class="cls-12" d="M1308.17,534.53c1.21-.61,5.38,4.94,5.28,5.31-2.01,1.47-10.51,7.18-12.48,6.29-1.02-.46-2.82-3.06-2.04-4.28l9.23-7.33h.01Z"/>
    <path class="cls-12" d="M472.74,612.87l-.33,1.16c-3.96.69-9.54,4.99-13.16,5.55-1.8.27-4.8-2.61-6.38-3.59.45-.72,1.12-.76,1.81-1.02,1.89-.72,12.67-4.21,13.91-4.22,1.77,0,2.48,1.93,4.14,2.12h0Z"/>
    <path class="cls-12" d="M1303.23,563.43c-4.12.78-7.35.56-11.36-.57l4.84-10.79c2.21-.52,7.27,10.66,6.52,11.36Z"/>
    <path class="cls-27" d="M329.03,646.94c-2.34,2.03-6.41,7.76-8.77,9.12-1.44.83-2.72.55-4.29.53.98-3.18.65-6.45,0-9.65h13.07-.01Z"/>
    <path class="cls-12" d="M407.42,615.13l-.94,1.61-9.27,5.77-3.98-11.36c.54-.52,11.95,4.87,14.2,3.98h-.01Z"/>
    <path class="cls-12" d="M311.41,670.23c1.8,5.65,2.45,11.66,2.27,17.61l-2.82-5.99-2.85.88-.53-7.65-1.74-.31c-.16-.8-.1-.73.36-1.18.43-.42,5.01-3.59,5.31-3.36h0Z"/>
    <path class="cls-12" d="M1325.32,564.05l2.9,5.07-5.1-1.13-2.03,4.54-3.87-1.67c-1.32.39-3.18,7.01-4.89-1.72l12.99-5.09Z"/>
    <path class="cls-12" d="M1298.69,537.87c-.05-5.01,1.23-8.02,6.82-7.11,1.02.85.54.95,0,1.72-1.55,2.22-4.64,3.84-6.82,5.39Z"/>
    <polygon class="cls-7" points="1274.83 513.45 1278.81 513.74 1274.83 525.95 1274.83 513.45"/>
    <path class="cls-29" d="M519.89,528.22l3.41.57v.84l-3.97.86c.16-.81.48-1.77.57-2.27h-.01Z"/>
    <path class="cls-17" d="M410.26,376.55l.57-.57-.57.57Z"/>
    <path class="cls-17" d="M660.2,408.36c.03-.26.3-.51.57-.57-.02.26-.3.51-.57.57Z"/>
    <path class="cls-27" d="M1318,625.92l-16.76,3.97,1.43-5.66-11.92-3.69,2.56-4.85,11.05,5.13c.25-1.53.55-3.47,1.08-4.9.23-.61-.29-.96.9-.78l11.65,10.78h0Z"/>
    <path class="cls-27" d="M520.46,519.7c.04-.27.3-.51.57-.57-.02.26-.3.51-.57.57Z"/>
    <path class="cls-22" d="M1131.11,570.82c.94,6.64,3.57,13.7,10.54,15.87,6.03,1.88,7.8.34,13.32-.54,3.41-.54,5.65-.57,8.8-.57h24.99c.17,0,.59-.47,1.11-.48,1.26-.01,2.83.86,4.28.48-.98,17.7-14.59,35.19-31.69,40.17-20.7,6.03-40.29-1.35-52.85-18.4-9.87-13.4-7.67-20.97-8.05-36.54h29.55Z"/>
    <path class="cls-30" d="M1194.17,428.81c-.16-.13-1.04.14-1.13,0-.25-.36.44-2.54-.53-3.17-1.93-.02-4.22-.85-6.01-.86-4.32-.02-8.98.57-13.61.59-3.89.02-7.79.04-11.67.02.03.75-.05,1.52,0,2.27-2.4-.72-3.42-3.07-5.74-4.21-4.76-2.34-12.75-2-16.99,1.36-.41-1.39-1.52-1.02-2.54-1.15-8.34-1.03-18.24-.6-26.74-.58-1.98,0-4.53.28-6.51.6,6.06-30.04,40.75-47.06,68.18-32.1,12.63,6.89,24.02,22.39,23.28,37.22h.01Z"/>
    <path class="cls-29" d="M1131.11,524.81c0,13.62-1.8,33.32,0,46.01h-29.54c-.36-14.77-.59-29.48-.57-44.31,1.84,0,3.65-1.08,5.43-1.16,2.07-.09,4.75.02,6.79.02h11.36c.28,0,1.17.65,2.25.63,1.52-.04,2.7-1.35,4.28-1.19h0Z"/>
    <path class="cls-4" d="M1161.22,427.67c-.06-.75.03-1.52,0-2.27,3.88.02,7.78,0,11.67-.02,4.63-.02,9.29-.62,13.61-.59,1.79.01,4.08.84,6.01.86.97.63.29,2.81.53,3.17.1.14.97-.13,1.13,0,.61.48.54,1.24.61,1.92.84,8.66-.55,17.88-.61,26.48-2.82-1.21-4.57-.52-7.08-.54-5.56-.04-12.92-.61-18.23-.05-1.26.13-1.95.92-3.1,1.17.63-5.03-.26-16-1.4-21.04-.66-2.9-2.95-6.42-3.14-9.07v-.02Z"/>
    <path class="cls-2" d="M1138.5,424.83c-.92.73-2.9,3.58-3.51,4.73-3.08,5.77-3.59,15.05-3.87,21.4-8.68-1.21-17.62-.29-26.4-.55-.7.09-1.41.47-1.72,1.11-.67,1.38.61,3.72-1.42,3.41.07-10.31-.88-21.27,1.14-31.24,1.98-.32,4.52-.59,6.51-.6,8.5-.02,18.4-.45,26.74.58,1.02.13,2.13-.24,2.54,1.15h-.01Z"/>
    <path class="cls-31" d="M1193.6,560.6c.01.78.56,1.81.57,2.84h-1.7v.85l1.71.29c.07,6.79.37,14.3,0,21.02-1.46.38-3.02-.49-4.28-.48-.52,0-.94.48-1.11.48h-24.99c-3.16,0-5.39.02-8.8.57.49-2.17,2.67-3.15,3.88-4.92,3.97-5.78,5.24-14.91,5.77-21.78,1.12.38,2.06-.95,2.67-1.04.72-.1,1.27.93,2.13.99,6.42.42,14.56-.87,21,.05,1.04.15,1.89,1.41,3.17,1.14h-.02Z"/>
    <path class="cls-32" d="M1164.63,559.46c.41-5.27.69-11.47-.06-16.7-.52-3.64-2.32-7.08-3.35-10.57h32.38c.12,9.46-.16,18.95,0,28.4-1.28.27-2.13-.99-3.17-1.14-6.44-.92-14.59.37-21-.05-.86-.06-1.41-1.09-2.13-.99-.6.09-1.55,1.42-2.67,1.04h0Z"/>
    <path class="cls-17" d="M1131.11,500.38c-.04,8.13,0,16.29,0,24.43-1.58-.16-2.76,1.16-4.28,1.19-1.08.03-1.97-.63-2.25-.63h-11.36c-2.04,0-4.72-.11-6.79-.02-1.78.07-3.59,1.16-5.43,1.16.01-8.37.54-17.07.57-25.56,4.38-2.05,9.71-1.04,14.46-1.11,2.27-.03,5.51-.66,7.92-.53,2.16.12,4.98.68,7.16,1.08h0Z"/>
    <path class="cls-15" d="M1131.11,450.96c-.36,7.99.07,16.38,0,24.43-8.22,2.36-19.23-1.43-27-.01-1.54.28-.99,1.99-2.54,1.72.04-7.38-.05-14.78,0-22.15,2.03.31.74-2.03,1.42-3.41.32-.65,1.02-1.02,1.72-1.11,8.78.26,17.72-.66,26.4.55v-.02Z"/>
    <path class="cls-25" d="M1131.11,475.39c-.08,8.32.05,16.67,0,24.99-2.18-.39-5-.96-7.16-1.08-2.41-.13-5.65.5-7.92.53-4.74.07-10.08-.94-14.46,1.11.03-7.94-.04-15.91,0-23.86,1.55.27,1-1.44,2.54-1.72,7.77-1.42,18.78,2.38,27,.01v.02Z"/>
    <path class="cls-25" d="M1194.17,457.21c-.03,4.15,1.13,9.42.6,13.95-.1.83-.07,1.46-.88,1.96h-32.66c1.01-4.85,3.94-10.49,4.54-15.34,1.15-.25,1.84-1.03,3.1-1.17,5.31-.56,12.67.01,18.23.05,2.51.02,4.26-.67,7.08.54h0Z"/>
    <path class="cls-32" d="M1194.17,563.44v1.14l-1.71-.29v-.84h1.71Z"/>
    <path class="cls-30" d="M895.37,429.95c-6.75,1.69-13.81-.79-20.45,1.14-.68-11.01-4.78-18.1-14.96-22.82-2.28-1.06-10.46-3.88-12.59-3.88h-9.37c-.02,8.13.02,16.29,0,24.43-4.28-1.99-8.05-.68-12.21-.68-3.78,0-7.63-.97-11.64.11-.08-10.25.88-23.3-.6-33.2-.55-3.66-3.98-7.6-5.08-11.11h53.68c8.08,0,21.35,9.6,26.08,15.95,8.37,11.24,7,16.76,7.15,30.06h0Z"/>
    <path class="cls-29" d="M895.37,523.67c-.82,8.08-8.04,18.53-14.19,23.58-11.65,9.56-26.95,10.06-41.39,10.01-1.1.69-.57,10.89-.65,12.99l-26.7.57c.05-1.78.57-4.28.57-5.4v-27.27c0-3.58.5-8.24.57-12.21h24.43c.02,4.92,0,9.86,0,14.77,10.8.31,23.8-1.99,30.97-10.79,1.13-1.39,3.66-5.29,4.25-6.82l22.15.57h0Z"/>
    <path class="cls-24" d="M839.14,570.25c-.4,10.73-2.48,36.33,1.03,45.26,1.32,3.36,3.84,5.98,5.21,9.27h-40.33c.86-2.31,2.45-4.12,3.51-6.44,5.03-11.07,3.5-34.63,3.88-47.53l26.7-.57h0Z"/>
    <path class="cls-25" d="M838,460.62c-.02,11.73-.58,23.56-.57,35.22-6.15.67-12.42,1.39-18.46-.05l-4.83.61c.02-11.92-.02-23.87,0-35.79h23.86Z"/>
    <path class="cls-25" d="M895.37,457.21c.04,12.3.06,24.63,0,36.92l-2.03,2.78c-5.84-.66-12.84-1.33-18.42.63.14-13.42.09-26.91,0-40.33,2.74-.06,5.51.08,8.26.03,1.21-.02,2.31-.59,3.39-.59,2.54,0,5.94,1.14,8.8.57h0Z"/>
    <path class="cls-4" d="M838,428.81c-.03,9.84.02,19.7,0,29.54-5.9-.39-11.46-.43-17.33-.11-.73.04-1.55-.51-2.29-.48-1.59.06-2.64,1.27-4.24,1.15.02-10.21.08-20.46,0-30.67,4.01-1.08,7.87-.12,11.64-.11,4.16,0,7.94-1.31,12.21.68h0Z"/>
    <path class="cls-17" d="M837.43,495.84c.01,9.83.54,20.11.57,30.11h-24.43c.12-7.29-.07-14.6-.02-21.89l.59-7.65,4.83-.61c6.04,1.44,12.31.71,18.46.05h0Z"/>
    <path class="cls-17" d="M895.37,494.14c-.05,9.17.89,20.72,0,29.54l-22.15-.57c2.72-7.07,1.63-17.86,1.7-25.56,5.58-1.96,12.58-1.29,18.42-.63l2.03-2.78h0Z"/>
    <path class="cls-4" d="M895.37,429.95c.1,9.08-.03,18.19,0,27.27-2.86.58-6.27-.57-8.8-.57-1.08,0-2.17.57-3.39.59-2.75.05-5.51-.09-8.26-.03-.06-8.5.52-17.75,0-26.13,6.64-1.93,13.7.56,20.45-1.14h0Z"/>
    <path class="cls-17" d="M838,458.35v2.27h-23.86v-1.7c1.61.12,2.65-1.09,4.24-1.15.74-.03,1.56.52,2.29.48,5.87-.32,11.42-.28,17.33.11h0Z"/>
    <path class="cls-3" d="M464.68,509.64c36.67-3.38,44.31,51.01,8.67,58.09-40.22,7.99-48.83-54.38-8.67-58.09h0Z"/>
    <path class="cls-3" d="M384.01,509.64c36.44-3.14,43.6,51.89,7.64,58.2-40.04,7.03-48.13-54.71-7.64-58.2Z"/>
    <path class="cls-16" d="M426.06,562.43c16.93-1.21,15.88,26.23-1.63,22.9-13.15-2.5-11.45-21.96,1.63-22.9Z"/>
    <path class="cls-14" d="M874.92,431.08c.52,8.38-.06,17.63,0,26.13.09,13.42.14,26.91,0,40.33-.08,7.7,1.01,18.49-1.7,25.56-.59,1.54-3.12,5.44-4.25,6.82-7.16,8.8-20.17,11.1-30.97,10.79,0-4.92.02-9.86,0-14.77-.03-10-.56-20.27-.57-30.11-.01-11.66.55-23.49.57-35.22v-2.27c.02-9.84-.03-19.7,0-29.54.02-8.13-.02-16.29,0-24.43h9.37c2.14,0,10.31,2.82,12.59,3.88,10.18,4.72,14.28,11.81,14.96,22.82h0ZM843.68,535.03c12.91-.46,24.62-6.75,25.59-20.71,1.96-28.18-1.31-58.83-.28-87.25-1.83-11.63-14.88-16.82-25.31-17.01v124.97Z"/>
  </g>
</svg>