<?xml version="1.0" encoding="UTF-8"?>
<svg id="Calque_1" data-name="Calque 1" xmlns="http://www.w3.org/2000/svg" viewBox="0 0 1600 1000">
  <defs>
    <style>
      .cls-1 {
        fill: #010101;
      }

      .cls-2 {
        fill: #ff5f57;
      }

      .cls-3 {
        fill: #fcfcfc;
      }

      .cls-4 {
        opacity: .6;
      }

      .cls-5 {
        fill: #080808;
      }

      .cls-6 {
        fill: #28c840;
      }

      .cls-7 {
        fill: #020202;
      }

      .cls-8 {
        fill: #090909;
      }

      .cls-9 {
        fill: #e9e9e9;
      }

      .cls-10 {
        fill: #050505;
      }

      .cls-11 {
        fill: #060606;
      }

      .cls-12 {
        fill: #e5e5e5;
      }

      .cls-13 {
        fill: #fbfbfb;
      }

      .cls-14 {
        fill: #f9f9f9;
      }

      .cls-15 {
        fill: #232323;
        opacity: .39;
      }

      .cls-16 {
        fill: #febc2e;
      }

      .cls-17 {
        fill: #faf9fa;
      }

      .cls-18 {
        fill: #d3d3d3;
      }

      .cls-19 {
        fill: #030303;
      }

      .cls-20 {
        fill: #0d0d0d;
      }

      .cls-21 {
        fill: #fbfafb;
      }

      .cls-22 {
        fill: #0f0f0f;
      }

      .cls-23 {
        fill: #0b0b0b;
      }

      .cls-24 {
        fill: #ebebeb;
      }

      .cls-25 {
        fill: #f4f4f4;
      }

      .cls-26 {
        fill: #c1c1c1;
      }

      .cls-27 {
        fill: #3f3d3d;
        opacity: .89;
      }

      .cls-28 {
        fill: #0a0a0a;
      }

      .cls-29 {
        fill: #fefefe;
      }

      .cls-30 {
        fill: #040404;
      }

      .cls-31 {
        fill: #fafafa;
      }

      .cls-32 {
        fill: #070707;
      }

      .cls-33 {
        fill: #eaeaea;
      }

      .cls-34 {
        fill: #f8f8f8;
      }

      .cls-35 {
        fill: #f7f7f7;
      }

      .cls-36 {
        fill: #fdfdfd;
      }

      .cls-37 {
        fill: #e8e8e8;
      }

      .cls-38 {
        fill: #e6e6e6;
      }
    </style>
  </defs>
  <rect class="cls-15" width="1600" height="1000"/>
  <g class="cls-4">
    <circle class="cls-2" cx="140" cy="110" r="10"/>
    <circle class="cls-16" cx="170" cy="110" r="10"/>
    <circle class="cls-6" cx="200" cy="110" r="10"/>
    <rect class="cls-27" x="120" y="150" width="1360" height="740" rx="24" ry="24"/>
  </g>
  <g>
    <path class="cls-29" d="M682.95,317.68c2.45,5.52,5.56,4.26,10.65,4.26,26.78-.02,42.98-3.81,70.27,6.39,4.5,1.68,9.41,6.13,14.9,6.42l-6.38,17c-1.87.31-2.59-.97-4.42,1.32-5.36,6.71-10.14,26-14.75,33.26-2.05,3.23-5.34,2.94-8.51,3.75-.7-.06-1.42.03-2.13,0-14.88-.65-33.35,3.61-50.12,2.21-20.64-1.72-15.94-11.73-23.99-27.12-4.81-9.19-10.22-18.05-15.28-27.1,1.5-6.54,23.33-7.86,23.38-16.13.72-.09,1.49.14,2.13,0l4.26-2.13c.31-.18-.31-1.94,0-2.13h-.01Z"/>
    <path class="cls-10" d="M751.09,428.41c-.36,4.57-2.46,24.58-2.23,26.34.19,1.42,3.94,1.15,4.34,2.78,2.43,9.97-5.98,25.72,12.79,24.11-2.03-18.13-3.71-39.26-2.12-57.48l6.36-2.15c-.46,2.38,1.94,4.82,2.16,6.4,1.13,8.26-1.97,57.98,5.62,59.73,3.9.2,6.24.83,9.29-2.24l4.26,4.26c-4.21,3.99-12.43,13.03-9.66,19.1,2.55,5.61,38.9,26.9,45.86,29.88v8.52l-28.06-13.01-26.3-19.05c-2.67-.98-7.02,7.08-7.03,7.59-.12,6.03,51.88,34.34,59.94,37.62,8.13,3.31,23.04,8.6,31.26,10.26l-2.13,6.39c-35.95-9.98-63.89-21.39-93.67-44.72-13.47,28.4-17.15,63.17-8.55,93.7l-6.39,4.26c-4.14-13.89-5.72-30.21-6.4-44.72-17.56,2.8-38.53,2.95-56-.48-2.92-.57-5.43-3.11-7.88-3.77l2.13-4.26c2.28,1.28,46.83,2.78,52.21,2.17,16.29-1.86,11.2-16.03,14.85-29.87,1.72-6.49,11.45-25.69,11.23-28.37-1.03-12.8-15-13.54-25.06-14.2-2.14-2.79-2.17-5.68,0-8.52.7.04,1.42,0,2.13,0l1.49,1.71c2.84.42,6.4.98,9.15.42,1.67-.34,3.19-1.5,3.84-3.12,1.45-14.87-29.7-9-40.04-9.65-.28-.02-2.43-1.96-5.16-2.22-5.31-.51-10.82.46-16.14.09.1-1.89-.34-4.15,0-8.52h57.5c-1.49-15.82-5.26-40.43,0-55.37.19-.55,2.75-2.19,2.18-4.23l2.05-.02,2.16,10.63h.02ZM757.49,490.18c-4.7,12.85,14.35,20.96,12.89,7.44-.6-5.52-7.98-6.72-12.89-7.44ZM746.82,502.97h-6.37v2.09h6.37v-2.09Z"/>
    <path class="cls-10" d="M672.3,407.12c1.39.72,5.06-1.35,4.3,4.24h2.07c.64-3.72,1.34-7.97,4.29-10.62-.95,14.29,6.44,12.18,17.04,12.78l-.23,4.02c-3.43-.6-5.93,1.68-8.29,2.36-1.64.47-4.43-.38-6.39,0,3.01,18.26,3.57,38.99,2.13,57.49-.34,4.37.1,6.63,0,8.52-.18,3.3-8.33,6.77-2.13,17.04.51.84,1.39,1.49,2.13,2.13-.78.32-6.01,7.02-10.11,6.94-1.2,11.11-21.92,39.03-21.79,47.43.11,7.41,15.96,10.91,21.74,13.91,2.33,1.21,1.45,4.02,1.64,4.13l-2.13,4.26c-27.5-7.44-47.71-22.51-66.01-44.72.54-3.17,2.71-7.59,2.13-10.65,3.9,3.2,5.61,1.13,9.11-.35,9.45-4.01,27.42-13.9,27.08-25.19-.97-.88-17.19,3.28-19.16,4.25l4.26-10.65c4.78-2.3,17.44-5.56,19.23-7.39,6.11-6.22,5.76-65.43.94-73.5-1.92-2.13-4.78-3.34-7.4-4.29,5.06-.88,3.89-8.15,4.26-8.52s4.63-1.67,8.52-4.26c2.93,8.49,6.65,7.45,12.78,10.65h-.01ZM676.08,418.22l-12.28-2.57c2.25,21.68,4.23,44.46,0,65.99,9.76.04,12.82-.41,14.3-10.07,1.12-7.28,2.08-50.44-2.01-53.34h0ZM676.56,490.19c-12.41-.54-19.43,3.91-19.15,17,12.96-.24,15.36-6.36,19.15-17ZM657.39,534.89c2.8-6.05,7.26-10.19,4.25-17.04l-12.76,2.21c2.24,4.12-.34,6.98-2.13,10.58-2.92,5.87-6.6,11.03-10.36,16.36,7.84,17.91,17.07-3.61,21.01-12.11h-.01Z"/>
    <path class="cls-10" d="M983.2,628.58l2.13,3.22c-4.29.82-3.78,4.79-4.26,5.29-2.45,2.57-9.34.73-6.4,12.78,6.45-1.16,12.27,1.66,18.27,2.22,2.75.26,4.89-2.22,5.17-2.22,1.85,0,5.12,2.62,6.39,4.26-2.66,4.52-.48,5.08-6.39,10.65-.87.82-7.53,2.18-8.52,8.52-.55-.16-1.4.02-2.13,0l2.19-13.9-19.04-3.01c-3.84,14.21-18.18,28.62-21.48,42.46-.16.67.14,1.45,0,2.13s.11,1.44,0,2.13h-2.13c-.88-1.66-5.8-5.13-6.39-8.52,7.55-12.05,13.54-25.26,19.16-38.31l-12.44.33c-.5,6.71-6.63,10.85-8.85,14.56l-6.39-2.13c2.3-4.4,2.99-10.65,6.39-14.88l-17.03-2.15-6.39-6.39c1.78-.25,4.21-1.79,7.33-2.15,9.57-1.1,19.22,4.23,22.48-8.5,1.77.53,1.49,4.4,3.2,4.29l3.17-4.27,2.16,6.37c-.26,1.85.25,3.43,2.13,4.26.46.2,1.37-.07,2.13,0,1.58.15,5.35.51,6.11-.23.63-3.5,1.69-6.95,2.4-10.42.14-.68-.11-1.44,0-2.13.06-.37,2.12-.95,0-2.13v-2.13h4.26c1.52,1.13,1.74,4.27,3.12,4.16,4.4-.34,5.03-3.08,5.4-6.29,1.6-.17,3.59,2.04,4.26,2.13h0Z"/>
    <path class="cls-10" d="M676.56,321.94c-.05,8.28-21.88,9.59-23.38,16.13,5.06,9.04,10.47,17.91,15.28,27.1,8.05,15.39,3.35,25.4,23.99,27.12,16.77,1.4,35.24-2.87,50.12-2.21,1.45,3.32,1.25,7.45,2.13,10.65-.71-.05-1.43.07-2.13,0-13.67-1.3-29.66.42-43.74.1-6.37-.14-11.08-4.44-15.89-.1-2.95,2.66-3.64,6.91-4.29,10.63h-2.07c.77-5.59-2.91-3.52-4.3-4.24,2.83-5.75-4.08-10.06-4.26-10.65-.85-2.87.98-11.42-.01-12.79-.3-.42-3.27.26-4.25.01,3.23-6.35-13.7-35.42-17.1-37.28-2.46-1.35-4.96-.53-6.32-1.05-2.93-1.1-6.56-.54-8.52-4.26,19.35-15.38,20.46-16.14,44.72-19.17h.02Z"/>
    <path class="cls-3" d="M855.43,664.78c.4.05,1.32,1.73,2.13,2.13-1.42.58-14.28,22.42-17.04,25.55-10.09,11.49-12.15,9.08-23.42,12.78-1.08-1.41-2.6-1.84-4.26-2.13-.68-.74-1.41-1.43-2.13-2.13-2.81-2.73-4.61-5.18-8.52-2.13-.11-.44-5.12-4-6.39-6.39-3.06-5.78-1.59-7.6-2.13-10.65,8.99-.38,18.35-8.24,25.55-10.65,3.62-1.21,7.33-1.26,10.65-2.13,7.99-2.1,17.23-5.29,25.55-4.26h.01Z"/>
    <path class="cls-1" d="M981.07,492.3c21.49,22.64,36.73,44.21,40.2,77.99,1.31,12.7-.4,26.32.26,39.13-.07-.53-2.02-2.25-2.22-5.15-.57-8.42.44-17.25.09-25.75-.11-2.58,1.61-7.92-2.11-7.42-.59,11.52.87,23.41-.28,34.9-.31,3.12-.61,11.36-6.13,9.81,1.34-17.79,4.58-36,.05-53.98l-10.7-1.39c1.28-.96,2.57-2.26,4.24-2.16v-2.08l-6.36-.03v6.39c-.53.32-1.61-.31-2.14,0l-1.06-2.09-3.2,4.22c-1.46.91-3.47,1.56-4.26,2.13v-2.13l2.13-2.11c-1.3-.32-3.45.38-4.26-.02s-1.41-1.56-2.13-2.13h2.13l4.26-2.13c4.63-1.54,16.89-6.84,16.97-11.59l-2.16-7.51c-1.43-1.02-12.64,3.06-14.81,4.19l-4.26-6.39c5.71-1.66,9.97-2.83,12.85-9.38-1.5-11.99-12.42-17.86-18.06-24.89-1.66-2.06-2.22-4.86-3.31-6.19.75-.67,1.43-1.41,2.13-2.13s1.38-1.46,2.13-2.13v.02Z"/>
    <path class="cls-30" d="M908.67,451.84c11.29.85,21.6,4.38,31.94,8.52l-.18,10.43-6.2,2.35c-7.55-8.78-11.6-9.81-23.38-11.74,1.09,7.28,10.27,11.75,12.06,14.33,14.85,21.36,21.86,40.76,30.49,65.55-1.12,3.47-4.02,4.46-6.39,6.39-3.7-12.92-7.87-26.13-14.07-38.1-5.09-9.81-23-35.63-30.65-42.82l4.25-12.76-10.63-2.12c4.21.18,8.56-.34,12.77-.02h0Z"/>
    <path class="cls-30" d="M908.67,451.84c-4.2-.32-8.55.2-12.77.02l10.63,2.12-4.25,12.76c-.44-.42-3.52-.54-5.32-2.05-2.88-2.41-5.54-7.15-8.95-8.16-9.14-2.71-21.13,1.16-30.44,1.71,2.62,3.04,4.06,7.57,6.39,10.63l-4.26,6.39c-8.26-9.09-13.01-16.7-25.55-10.65-.65-1.3.94-5.22-2.13-6.39.33-.13.82-2.54,2.25-3.1,4.61-1.81,10.45.05,12.42-4.64,1.87-5.3-4.04-32.23-6.14-39.11,3.65-2.31,4.34-6.63,4.26-10.65,3.13,8.28,6.56,16.17,7.97,25.03.92,5.81-.93,20.6,2.53,23.01,17.61.98,35.91-3.87,53.38,3.07h-.02Z"/>
    <path class="cls-11" d="M878.86,688.21c-.48.77.16,4.23-2.02,7.47-4.91,7.27-13.17,14.78-19.23,21.28-.09,4.36,17.56,3.44,21.25,3.19l-2.13,8.52c-24.05-.87-45.61-5.65-66.01-19.17,3.71,1.49,5.22-3.88,6.39-4.26,11.28-3.7,13.34-1.28,23.42-12.78l4.26,6.39c-3.41,4.06-6.51,8.25-10.61,11.71l13.36,5.44c6.76-9.9,18.55-20.54,24.93-29.93l6.39,2.13h0Z"/>
    <path class="cls-10" d="M614.8,715.89l-2.12-6.37,4.25-.02c16.63,3.88,37.68-.45,49.81-13.01,14.26-14.76,15.05-32.43,7.69-50.87,4.78-1.41,4.63-6.57,4.26-10.65,26.83,45.83-14.38,98.5-63.88,80.92h-.01Z"/>
    <path class="cls-11" d="M753.22,626.45c1.01,3.57,14.43,31.81,16.21,32.11,22.66-8.49,45.13-16.75,68.52-23.09,3.15-.85,6.79.05,8.97-.51l2.13,2.13c-1.74.64-1.41,1.17-2.13,2.13-.46.62,1.25,3.09-1.39,4.32-15.54,7.25-43.58,8.71-61.11,19.41-9.34,5.7-3.72,15.17,7.14,10.34-.67,3.16,1.71,6.16,2.13,8.52.54,3.05-.93,4.87,2.13,10.65-3.31,1.62-3.32,5.02-7.45,2.28-14.83-9.82-36.4-46.87-41.52-64.04l6.39-4.26h-.02Z"/>
    <path class="cls-34" d="M987.46,673.3c-9.31-.31-5.51,3.3-10.49,7.56-5.8,4.96-15.55,8.76-15.06,17.99-1.8.35-3.92,1.74-6.39,2.13l-4.26-2.13h-2.13c3.3-13.84,17.64-28.25,21.48-42.46l19.04,3.01-2.19,13.9h0Z"/>
    <path class="cls-32" d="M793.68,336.85c15.99,10.49,22.5,15.83,34.07,31.94-2.64,1.91-3.04,6.84-4.26,8.52-5.37-9.73-11.29-6.15-19.17-2.13.78-3.08-1.86-6.4-2.13-8.52-.03-.23,2.08-.65,2.1-1.06l-2.1-1.07-12.78,2.12v-4.25c.84-1.49,5.9-11.69,6.09-12.35.91-3.14-1.79-4.3-1.83-4.68-.26-2.35-2.47-7.48,0-8.52h.01Z"/>
    <path class="cls-32" d="M766,321.94l-2.13,6.39c-27.29-10.2-43.49-6.41-70.27-6.39l2.13-6.39,1.27-4.37c21.42.11,43.48-1.27,63.91,6.35,3.34,1.24,4.7,4.24,5.09,4.4h0Z"/>
    <path class="cls-11" d="M612.68,373.05c.02,1.36-3.14,4-4.22,5.33l2.17,2.03c11.68,6.51,23.44,19.91,38.25,18.2.29.86,1.37,1.59,2.13,2.13-.37.36.81,7.63-4.26,8.52-18.63-6.78-27.7-12.65-44.72-21.29-1.72-.87-3.64-3.95-6.39-4.26,2.38-9.53,8.81-11.73,12.78-17.04.71,1.33,4.25,6,4.26,6.39h0Z"/>
    <path d="M633.97,494.43l-4.26,10.65c-1.19.59-21.2,14.64-21.26,15.97-.02.53,3.86,3.42,4.22,5.33.58,3.06-1.59,7.48-2.13,10.65-14.59-17.71-25.98-38.85-29.81-61.75l4.27-3.19,2.1,7.44c-.8-12.35-3.54-24.99-2.25-37.48.44-4.3,1.96-5.74,2.27-7.23-.29,16.58.75,35.47,4.84,51.59,1.51,5.95,7.22,26.28,14.4,24.24,4.3-1.22,20.45-12.76,27.6-16.2v-.02Z"/>
    <path class="cls-10" d="M640.36,345.37c-4.41,1.88-3.39,3.33-4.26,6.39-2.28,8.05-1.47.94-4.34,3.2l-4.08,8.58c8.49,1.17,14.1,10.59,2.04,13.78-4.32-2.33-13.6-9.09-17.04-4.26,0-.39-3.55-5.06-4.26-6.39,9.62-12.87,10.21-15.05,23.42-25.55,1.95,3.72,5.59,3.16,8.52,4.26h0Z"/>
    <path class="cls-5" d="M593.51,639.23c-9.96,17.18-8.5,40.06,4.26,55.37-1.22-.8-6.1,1.98-7.45-4.31l-3.2,2.18c-12.83-22.1-11.66-36.98,2.13-57.5l4.26,4.26Z"/>
    <path class="cls-8" d="M593.51,411.38c-2.25,7.46-4.8,15.86-6.39,23.42-.31,1.49-1.83,2.93-2.27,7.23-1.29,12.49,1.45,25.13,2.25,37.48l-2.1-7.44-4.27,3.19c-3.32-19.84-3.16-42.32,2.13-61.75l4.23,4.24,2.18-10.62,4.23,4.25h.01Z"/>
    <path class="cls-10" d="M940.61,460.36c17.99,7.2,19.1,12,31.94,23.42-2.39.71-3.41,2.04-4.26,4.26-2.69-1.62-5.86-2.6-8.52-4.26.12-2.6-1.76-1.86-2.13-2.13-1.64-1.22-3.58-1.61-4.26-2.13-2.32-1.79-4.43-5.91-8.5-6.39l1.77,8.27-3.92,2.38c-.73-1.15-7.07-8.96-8.52-10.65l6.2-2.35.18-10.43h.02Z"/>
    <path class="cls-1" d="M940.61,694.6c.59,3.38,5.51,6.86,6.39,8.52.64,1.21-.83,5.15,2.13,6.39-2.37,6.65-8.58,2.68-12.27,4.81-10.17,5.87-10.78,9.28-26.06,12.23-.57-2.87-1.5-5.66-2.13-8.52,4.03-.94,16.73-2.44,19.17-4.26l2.09-1.06-2.09-1.06c3.89-4.42,9.63-12.01,12.78-17.04h-.01Z"/>
    <path class="cls-11" d="M844.79,400.73c.08,4.02-.61,8.34-4.26,10.65-1.73-5.67-7.97-23.04-13.78-23.39-2.27-.13-3.98,1.79-5.39,2.09-.35-.93-1.16-1.94-2.13-2.13-.6-.12-1.51-.07-2.13,0l2.07-3.2-2.07-1.05c.85-.61,5.73-5.49,6.39-6.39,1.21-1.67,1.62-6.6,4.26-8.52,8.36,11.64,12.02,18.66,17.04,31.94h0Z"/>
    <path class="cls-19" d="M1013.01,634.97c-3.27,7.74-3.59,10.77-8.52,19.17-1.27-1.64-4.54-4.25-6.39-4.26,2.03-3.03,3.61-7.11.01-9.59l-17.05-3.18c.48-.51-.03-4.48,4.26-5.29l-2.13-3.22c7.15.93,22.66,4.68,25.55-2.13.06.99,3.23,6.91,4.26,8.52v-.02Z"/>
    <path class="cls-1" d="M906.54,709.5l2.13,2.13c-3.49,3.53-.29,5.08,0,6.39.63,2.85,1.56,5.65,2.13,8.52-11.95,2.31-21.84,2.57-34.07,2.13l2.13-8.52c18.44-1.2,13.16-8.97,27.68-10.65Z"/>
    <path class="cls-11" d="M793.68,336.85c-2.47,1.04-.26,6.16,0,8.52l-7.3-4.22c-1.56.35-6.34,8.36-7.61,10.61-2.06.22-4.43-.32-6.39,0l6.38-17c-5.49-.29-10.4-4.74-14.9-6.42l2.13-6.39c12.08,5.17,17.01,7.9,27.68,14.91h.01Z"/>
    <path d="M668.04,622.2l-4.26,6.39c-9.45-7.57-26.56-9.67-38.33-8.52v-6.39c16.94-.43,27.41-1.87,42.59,8.52Z"/>
    <path class="cls-1" d="M625.45,613.68v6.39c-11.78,1.15-25.99,8.89-31.94,19.17l-4.26-4.26c.28-.42-.32-2.23.71-3.51,5.29-6.58,20.33-18.24,28.62-19.5,3.68-.56,5.96,1.74,6.87,1.72h0Z"/>
    <path class="cls-7" d="M987.46,673.3c.73.02,1.58-.16,2.13,0,.52.15,1.3,1.71,2.13,2.13-4.77,6.54-18.03,23.2-25.05,25.29-2.76.82-4.51-1.91-4.76-1.87-.49-9.24,9.26-13.03,15.06-17.99,4.98-4.26,1.18-7.87,10.49-7.56Z"/>
    <path class="cls-32" d="M1021.53,609.42c1.64,11.76-3.76,14.28-8.52,25.55-1.03-1.61-4.2-7.52-4.26-8.52-.14-2.31,1.87-7.16,2.13-10.65,5.52,1.55,5.81-6.7,6.13-9.81,1.15-11.49-.31-23.38.28-34.9,3.72-.5,2,4.84,2.11,7.42.35,8.51-.66,17.34-.09,25.75.2,2.9,2.15,4.61,2.22,5.15h0Z"/>
    <path d="M587.12,692.47l3.2-2.18c1.35,6.3,6.23,3.52,7.45,4.31,4.29,2.8,14.4,13.8,19.17,14.91l-4.25.02,2.12,6.37c-13.81-4.91-20.4-10.88-27.68-23.42h-.01Z"/>
    <path class="cls-1" d="M597.77,394.34h2.13c-2.43,6.08-4.42,10.51-6.39,17.04l-4.23-4.25-2.18,10.62-4.23-4.24c2.14-7.88,5.94-18.52,12.78-23.42.33,1.71-.48,3.88,2.13,4.26h-.01Z"/>
    <path class="cls-32" d="M668.04,622.2c4.76,3.26,7.9,8.08,10.65,12.78.37,4.08.52,9.23-4.26,10.65-2.03-5.1-6.58-13.78-10.65-17.04l4.26-6.39h0Z"/>
    <path class="cls-1" d="M810.72,700.99v2.13l1.06,2.09c1.37-.06.95-2.11,1.06-2.09,1.66.29,3.18.72,4.26,2.13-1.17.38-2.68,5.75-6.39,4.26-2.75-1.82-4.42-4.79-6.39-6.39l4.25-.02v-2.09c-2.29-.29-4.4-.41-4.25,2.11-.51-.41-3.21.64-4.09-.18-.17-1.44,2.09-3.59,1.96-4.08,3.91-3.05,5.71-.6,8.52,2.13h.01Z"/>
    <path class="cls-1" d="M974.68,485.91c.38.35,1.76-.35,2.13,0l2.13,2.13c1.48,1.45,1.67,3.77,2.13,4.26-.75.67-1.43,1.41-2.13,2.13h-2.13c-2.99-4.3-4.77-4.12-8.52-6.39.85-2.22,1.87-3.55,4.26-4.26.14-.04,1.29,1.77,2.13,2.13Z"/>
    <path class="cls-1" d="M695.72,315.55l-2.13,6.39c-5.09,0-8.19,1.26-10.65-4.26.32-.19.02-1.64,3.12-2.19s6.55.3,9.66.06h0ZM689.34,319.81c2.75,0,2.75-2.13,0-2.13s-2.75,2.13,0,2.13Z"/>
    <path d="M602.03,387.95c-1.39,1.88-1.35,4.44-2.13,6.39h-2.13l-2.13-6.39c.03-1.36-.27-3.17,0-4.26,2.75.31,4.67,3.39,6.39,4.26Z"/>
    <path d="M998.11,664.78v2.13l-2.13,2.13c-1.46,2.09-2.76,4.33-4.26,6.39-.83-.42-1.61-1.98-2.13-2.13.99-6.34,7.65-7.7,8.52-8.52Z"/>
    <path class="cls-5" d="M949.13,705.24c-.22,1.35.35,3.27,0,4.26-2.96-1.24-1.49-5.18-2.13-6.39h2.13c-.11.69.11,1.44,0,2.13Z"/>
    <path class="cls-5" d="M597.77,394.34c-2.61-.38-1.8-2.55-2.13-4.26-.12-.64-.01-1.46,0-2.13l2.13,6.39Z"/>
    <path class="cls-32" d="M682.95,319.81l-4.26,2.13c.23-.05,3.76-1.84,4.26-2.13Z"/>
    <path class="cls-20" d="M955.52,700.99c-.73.11-1.52-.17-2.13,0-1.39.4-2.82,1.61-4.26,2.13.11-.69-.14-1.45,0-2.13l2.13-2.13,4.26,2.13Z"/>
    <path d="M949.13,705.24c.11-.69-.11-1.44,0-2.13,1.44-.52,2.86-1.73,4.26-2.13l-4.26,4.26Z"/>
    <path class="cls-10" d="M995.98,669.04l2.13-2.13c-.2,1.19-1.77,1.61-2.13,2.13Z"/>
    <path class="cls-8" d="M974.68,485.91c-.84-.35-1.99-2.17-2.13-2.13.75.67,1.4,1.45,2.13,2.13Z"/>
    <path d="M978.94,488.04l-2.13-2.13c.74.7,1.41,1.43,2.13,2.13Z"/>
    <path class="cls-1" d="M772.38,351.75c1.96-.32,4.33.22,6.39,0-4.82,8.56-10.99,21.55-12.79,30.86l8.54-1.05c-1.94,3.3-2.91,8.04-2.13,10.65-2.9-.2-14.15,2.79-14.91,4.26l-.02-4.26c-4.58,3.42-10.48-1.94-12.76-2.13,3.16-.82,6.45-.52,8.51-3.75,4.61-7.26,9.39-26.55,14.75-33.26,1.83-2.29,2.56-1.01,4.42-1.32h0Z"/>
    <path class="cls-11" d="M744.7,390.08c2.28.19,8.17,5.55,12.76,2.13l.02,4.26c-.72,1.39-.69,9.96-2.12,12.77.63.62,6.98-1.5,8.51-2.12l3.79,2.49-1.67,3.87c3.24-.45,7.79.72,10.66.02.02,5.14-.33,11.09-4.26,14.91-.22-1.58-2.62-4.03-2.16-6.4l-6.36,2.15c.21-2.4,1.51-4.18,2.13-6.37-5.63-.17-10.3-1.63-12.78,4.24.17-2.15-2.13-5.53,0-8.45-3.11,1.36-7.39-2.13-8.52-2.2,1.06-1.96,2.02-4.13,2.13-6.39.03-.71-.02-1.42,0-2.13l-2.13-2.13c-.88-3.2-.68-7.33-2.13-10.65.71.03,1.43-.06,2.13,0h0Z"/>
    <path class="cls-29" d="M855.43,577.48c6.95,1.93,12.48,3.91,19.17,6.39,1.45,9.3-1.59,17.85-2.3,26.65-.68,8.33,5.72,14.32-6.21,18.07-6.45,1.49-13.8,5.01-19.17,6.39-2.19.56-5.82-.34-8.97.51-23.39,6.34-45.85,14.6-68.52,23.09-1.77-.3-15.2-28.55-16.21-32.11-8.6-30.53-4.93-65.3,8.55-93.7,29.77,23.33,57.71,34.74,93.67,44.72h0Z"/>
    <path class="cls-29" d="M693.59,505.07c13.69,1.61,24.73,1.24,38.33,2.13,10.06.66,24.03,1.4,25.06,14.2.22,2.69-9.51,21.88-11.23,28.37-3.66,13.84,1.43,28.01-14.85,29.87-5.38.61-49.93-.88-52.21-2.17-.19-.11.69-2.91-1.64-4.13-5.78-3.01-21.62-6.5-21.74-13.91-.13-8.4,20.59-36.31,21.79-47.43,4.1.09,9.33-6.61,10.11-6.94s5-.16,6.39,0h-.01Z"/>
    <path class="cls-36" d="M840.53,411.38c2.1,6.87,8.01,33.8,6.14,39.11-1.97,4.69-7.8,2.82-12.42,4.64-1.42.56-1.91,2.97-2.25,3.1-16.45,6.58-27.27,9.12-41.95,22-1.75,1.53-1.89,4.8-2.77,5.69-3.05,3.07-5.39,2.44-9.29,2.24-7.59-1.75-4.49-51.48-5.62-59.73,3.93-3.82,4.28-9.77,4.26-14.91.46-.11,5.63-3.13,8.52-4.26,8.63-3.37,17.34-8.44,25.55-12.78,2.56-1.35,3.58-3.86,4.26-4.26l4.26-2.13c.54-.22,1.4.16,2.13,0,1.41-.3,3.12-2.23,5.39-2.09,5.81.35,12.04,17.72,13.78,23.39h0Z"/>
    <path class="cls-7" d="M844.79,477.39c2.15,2.63,6.6,5.67,8.43,8.05,14.61,19,25.01,41.18,30.91,64.41l11.76,2.06c1.12-4.21-1.26-7.29-2.12-10.64l4.26-3.18,2.15,9.56,4.23-6.38c.86,3.59-.42,8.8,2.6,12.34,8.31,2.57,16.53,2.35,25.09,2.56.81,9.46-22.21,5.17-23.43,6.38l.02,12.78c6.95-2.1,14.27-1.33,21.28-2.12l-2.14,6.36,6.4,2.16c-8.47,1.1-16.92,2.85-25.56,2.12l-1.91,39.09c2.3,6.95,37.22,2.96,44.51,1.38.23.39,3.51-1.88,4.26,4.26.16,1.34.02,2.88,0,4.26,0,.71.02,1.42,0,2.13-.14,4.66-2.08,6.06-2.13,6.39l-2.16-6.37-3.17,4.27c-1.71.11-1.42-3.75-3.2-4.29-2.06-.62-36.54-.7-39.04-.09l-3.55,10.74c-.5.12-8.39,5.18-8.7,5.59-2.64,3.49.87,6.57-6.2,7.18-9.38.81-12.75-2.95-19.17,6.39l-1.6-1.58c-.59,6.35-6.56,2.69-9.05,3.71-.81-.4-1.73-2.08-2.13-2.13h4.25l-2.12-10.65c7.45-1.92,10.31-3.54,12.7-11.82,1.48-5.12-7.27-3-10.57-3.09-1.4-3.03-5.78-2.28-8.52-2.13-.74.04-1.64-.18-2.13,0l-2.13-2.13c5.36-1.38,12.71-4.9,19.17-6.39,3.31-.76,8.77,1.69,10.3-3.55l4.68-40c-.6-2.62-4.85-.57-6.46-1.17-6.68-2.47-12.21-4.46-19.17-6.39l2.13-6.39c3.08.62,11.25,1.86,14.15,2.02,9.05.48,7.41-9.91,4.72-12.4-1.28-1.19-6.01.15-8.23-.26-.14-3.01-.09-8.61,2.13-10.65.51-.47,4.16,1.23,4.36-1.18-.64-23.83-30.39-51.07-32.05-64.84-.23-1.9,1.22-4.62,2.13-6.39l.02.02ZM900.16,562.56h-12.8l2.01,11.86,10.78.94v-12.8h0ZM900.16,583.85h-10.67c.29,10.13-1.11,20.39-2.64,30.36-.65,4.23-6.14,10.38-.31,12.02,18.73,5.28,12.37-30.97,13.62-42.39h0ZM893.77,634.98c-13.58-1.94-16.87,2.61-17.03,14.88l14.42-2.56,2.61-12.32h0Z"/>
    <path class="cls-36" d="M842.66,483.78c1.65,13.77,31.41,41,32.05,64.84-.2,2.4-3.86.71-4.36,1.18-13.27-1.06-30.35-5.41-42.59-10.65-6.96-2.98-43.31-24.27-45.86-29.88-2.76-6.07,5.45-15.11,9.66-19.1,3.69-3.49,25.18-18.81,28.95-19.18,11.44-1.11,11.92,10.88,22.15,12.79h0Z"/>
    <path class="cls-36" d="M691.47,419.9c16.53,5.38,36.24.11,53.24,2.13-5.25,14.94-1.49,39.54,0,55.36h-57.5c1.44-18.49.88-39.21-2.13-57.48,1.96-.39,4.75.46,6.39,0h0Z"/>
    <path class="cls-14" d="M857.56,571.09c-8.23-1.66-23.13-6.95-31.26-10.26-8.06-3.28-60.06-31.59-59.94-37.62.01-.52,4.35-8.58,7.03-7.59l26.3,19.05,28.06,13.01c13.91,5,25.75,10.06,40.46,12.78,2.21.41,6.95-.93,8.23.26,2.69,2.5,4.32,12.88-4.72,12.4-2.9-.15-11.07-1.39-14.15-2.02h-.01Z"/>
    <path class="cls-34" d="M753.22,422.03c2.48-5.87,7.14-4.41,12.78-4.24-.62,2.19-1.92,3.96-2.13,6.37-1.59,18.22.09,39.35,2.12,57.48-18.77,1.61-10.36-14.14-12.79-24.11-.4-1.63-4.15-1.36-4.34-2.78-.23-1.76,1.87-21.78,2.23-26.34.03-.38,1.86-2.92,2.13-6.39h0Z"/>
    <path class="cls-11" d="M832.01,458.23c3.07,1.16,1.48,5.09,2.13,6.39,2.08,4.15,7.47,8.88,10.65,12.78-.91,1.77-2.36,4.49-2.13,6.39-10.23-1.91-10.71-13.9-22.15-12.79-3.77.37-25.26,15.68-28.95,19.18l-4.26-4.26c.88-.89,1.03-4.15,2.77-5.69,14.68-12.88,25.5-15.41,41.95-22h-.01Z"/>
    <path class="cls-1" d="M744.7,411.38c1.14.07,5.41,3.55,8.52,2.2-2.13,2.92.16,6.3,0,8.45-.27,3.47-2.1,6.01-2.13,6.39l-2.16-10.63-2.05.02c.57,2.04-1.98,3.68-2.18,4.23-17-2.02-36.7,3.25-53.24-2.13,2.36-.68,4.86-2.96,8.29-2.36l.23-4.02c14.91.83,32.09-2.86,44.72-2.13v-.02Z"/>
    <path class="cls-29" d="M708.5,488.04c-1.86,5.55,9.45,6.01,12.07,6.19,6.42.45,12.19-1.46,18.47-1.68,3.8,1.26,2.62,4.02,3.53,6.13-2.84,0-5.68-.01-8.52,0-.71,0-1.43.04-2.13,0-14.15-.74-22.81-1.2-37.33.03-4.05.34-8.57-2.42-7.39,4.23h-2.13c-6.2-10.27,1.95-13.74,2.13-17.04,5.32.37,10.82-.59,16.14-.09,2.73.26,4.88,2.2,5.16,2.22h0Z"/>
    <path class="cls-11" d="M870.34,549.79c-2.22,2.03-2.27,7.63-2.13,10.65-14.71-2.71-26.55-7.77-40.46-12.78v-8.52c12.24,5.23,29.32,9.59,42.59,10.65Z"/>
    <path d="M731.93,498.69c-2.17,2.83-2.14,5.72,0,8.52-13.6-.89-24.64-.52-38.33-2.13l4.24-.02v-2.09l-10.63-.02c-1.18-6.65,3.33-3.89,7.39-4.23,14.52-1.23,23.18-.77,37.33-.03Z"/>
    <path class="cls-21" d="M744.7,500.82c-.48-.81-1.85-1.49-2.13-2.13-.91-2.11.27-4.87-3.53-6.13-6.28.21-12.05,2.13-18.47,1.68-2.62-.18-13.93-.65-12.07-6.19,10.34.65,41.49-5.22,40.04,9.65-.65,1.62-2.17,2.78-3.84,3.12h0Z"/>
    <path class="cls-24" d="M757.49,490.18c4.9.72,12.29,1.92,12.89,7.44,1.47,13.53-17.58,5.42-12.89-7.44Z"/>
    <path class="cls-23" d="M742.57,498.69c.28.64,1.65,1.32,2.13,2.13-2.75.57-6.31,0-9.15-.42l-1.49-1.71c2.84-.01,5.68,0,8.52,0h-.01Z"/>
    <rect class="cls-11" x="740.45" y="502.97" width="6.37" height="2.09"/>
    <path class="cls-29" d="M602.03,387.95c17.02,8.64,26.09,14.52,44.72,21.29,2.62.95,5.47,2.16,7.4,4.29,4.81,8.08,5.17,67.28-.94,73.5-1.79,1.83-14.46,5.08-19.23,7.39-7.15,3.45-23.3,14.98-27.6,16.2-7.18,2.04-12.89-18.29-14.4-24.24-4.1-16.12-5.13-35.01-4.84-51.59,1.59-7.56,4.13-15.97,6.39-23.42,1.97-6.52,3.96-10.95,6.39-17.04.78-1.95.74-4.51,2.13-6.39h-.02Z"/>
    <path class="cls-14" d="M676.08,418.22c4.09,2.9,3.13,46.07,2.01,53.34-1.48,9.66-4.55,10.11-14.3,10.07,4.24-21.53,2.25-44.31,0-65.99l12.28,2.57h0Z"/>
    <path class="cls-21" d="M742.57,400.73v4.26h4.26c-.11,2.26-1.07,4.43-2.13,6.39-12.63-.73-29.81,2.96-44.72,2.13-10.6-.59-17.99,1.51-17.04-12.78,4.81-4.34,9.52-.05,15.89.1,14.08.32,30.07-1.4,43.74-.1h0Z"/>
    <path class="cls-14" d="M629.71,505.07c1.97-.97,18.19-5.13,19.16-4.25.34,11.28-17.63,21.18-27.08,25.19-3.5,1.49-5.22,3.56-9.11.35-.37-1.91-4.24-4.79-4.22-5.33.05-1.33,20.06-15.38,21.26-15.97h-.01Z"/>
    <path class="cls-1" d="M663.78,383.7c.98.25,3.95-.43,4.25-.01.99,1.37-.84,9.92.01,12.79-4.5-3.05-4.99-2.35-8.52,0-3.88,2.58-8.15,3.89-8.52,4.26-.76-.54-1.84-1.27-2.13-2.13-1.33-3.87-1.34-8.56-4.17-11.88-2.44-2.86-5.36-2.22-6.48-3.03,3-4.97,7.95-.47,10.65-6.39,2.93,4.38,10.58,5.28,14.91,6.39Z"/>
    <path class="cls-34" d="M657.39,534.89c-3.94,8.5-13.17,30.01-21.01,12.11,3.76-5.34,7.43-10.5,10.36-16.36l10.65,4.26h0Z"/>
    <path class="cls-37" d="M676.56,490.19c-3.79,10.65-6.19,16.77-19.15,17-.27-13.09,6.75-17.54,19.15-17Z"/>
    <path class="cls-29" d="M646.75,530.63c1.79-3.6,4.38-6.45,2.13-10.58l12.76-2.21c3.02,6.86-1.44,11-4.25,17.04l-10.65-4.26h.01Z"/>
    <path class="cls-34" d="M668.04,396.47c.18.59,7.09,4.9,4.26,10.65-6.13-3.19-9.85-2.15-12.78-10.65,3.53-2.35,4.02-3.05,8.52,0Z"/>
    <path class="cls-5" d="M687.21,502.95l10.64.02v2.09l-4.25.02c-1.39-.16-5.61-.32-6.39,0-.74-.64-1.62-1.29-2.13-2.13h2.13Z"/>
    <path class="cls-3" d="M921.45,652.01l17.03,2.15c-3.4,4.23-4.09,10.48-6.39,14.88-4.68,8.97-13.2,18.16-17.04,27.68-.58,1.45-1.63,2.78-2.13,4.26-2.3-.29-3.23,0-4.26,2.13-.63,1.31.6,4.99-2.13,6.39-14.52,1.68-9.24,9.44-27.68,10.65-3.69.24-21.34,1.17-21.25-3.19,6.06-6.5,14.32-14.01,19.23-21.28,2.19-3.24,1.55-6.7,2.02-7.47,1.79-2.9,4.66-5.61,6.75-9.22s9.78-21.51,10.78-22.24c4.92-3.54,19.45-.45,25.06-4.75h0Z"/>
    <path class="cls-36" d="M1000.24,560.44l10.7,1.39c4.53,17.98,1.28,36.19-.05,53.98-.26,3.49-2.27,8.34-2.13,10.65-2.9,6.81-18.41,3.06-25.55,2.13-.67-.09-2.66-2.3-4.26-2.13.73-6.32,1.89-14.11,2.22-20.15.72-13.18-4.71-31.49,6.3-39.48.79-.57,2.8-1.22,4.26-2.13,1.1-.68,2.76-1.24,4.26-2.13.52-.31,1.61.32,2.13,0,.79-.48,1.37-1.56,2.13-2.13h-.01Z"/>
    <path class="cls-10" d="M959.78,498.69c8.17,11.7,11.71,26.65,14.92,40.46,3.68.12,7.18-1.13,10.63-2.13l4.26,6.39c-8.23,4.3-16.09,9.29-6.39,17.04.72.57,1.3,1.71,2.13,2.13l2.13,2.13v2.13c-11.01,7.99-5.59,26.3-6.3,39.48-.33,6.04-1.49,13.83-2.22,20.15-.37,3.21-.99,5.95-5.4,6.29-1.38.11-1.6-3.04-3.12-4.16-3.19-2.37-2.69-1.74-6.39-2.13,2.8-2.38,5.51-3.32,6.39-7.45,1.38-6.45,4.2-39.86.11-42.76l-10.76,1.24c0-.6-1.91-2.05-1.62-3.27,4.59-1.33,5.54-7.01,5.88-7.38,3.43-3.6,10.79-1.27,5.3-14.94l-11.56,2.27-.13,12.66c-.95.46-1.75,4.59-4.24,4.26l-.04-21.28c-1.79-.29-4.23,10.06-4.24,10.64l-10.65-4.26c1.4-.13,2.85.08,4.26,0l2.09-1.06-2.09-1.06c-1.42.04-2.84-.06-4.26,0,3.65-1.53,5.82-4.19,8.52-6.39,2.36-1.93,5.27-2.92,6.39-6.39.39,1.12,2.76,6.41,3.23,6.43,3.86-.66,9.33-2.96,9.47-7.31.24-7.5-10.88-31.64-14.82-39.58l10.65,4.24-2.13-6.37v-.02Z"/>
    <path class="cls-35" d="M938.48,671.17c2.23-3.71,8.36-7.85,8.85-14.56l12.44-.33c-5.63,13.05-11.61,26.26-19.16,38.31-3.15,5.02-8.89,12.62-12.78,17.04-.35.39.36,1.86,0,2.13-2.44,1.82-15.13,3.32-19.17,4.26-.29-1.31-3.49-2.85,0-6.39h2.13c2.51.13,1.84-2.64,2.13-4.26.75-.67,1.42-1.42,2.13-2.13l2.13-2.13c.71-.71,1.43-1.41,2.13-2.13.67-.73,1.55-1.34,2.13-2.13,7.68-10.45,10.8-17.3,17.04-27.68h0Z"/>
    <path class="cls-30" d="M915.06,645.62l6.39,6.39c-5.61,4.3-20.14,1.2-25.06,4.75-1,.72-8.64,18.55-10.78,22.24s-4.96,6.32-6.75,9.22l-6.39-2.13c5.12-7.54,9.65-19.65,14.91-27.68,7.07-.61,3.57-3.69,6.2-7.18.31-.41,8.2-5.47,8.7-5.59,3.37-.83,8.91.54,12.78,0v-.02Z"/>
    <path class="cls-21" d="M944.87,634.97c-3.26,12.73-12.91,7.39-22.48,8.5-3.12.36-5.56,1.9-7.33,2.15-3.87.54-9.41-.83-12.78,0l3.55-10.74c2.51-.6,36.98-.53,39.04.09h0Z"/>
    <path class="cls-31" d="M981.07,637.1l17.05,3.18c3.6,2.48,2.01,6.56-.01,9.59-.28,0-2.42,2.48-5.17,2.22-6-.56-11.82-3.38-18.27-2.22-2.94-12.04,3.95-10.21,6.4-12.78h0Z"/>
    <path class="cls-32" d="M938.48,671.17c-6.23,10.38-9.36,17.24-17.04,27.68-.83.59-1.43,1.41-2.13,2.13s-1.42,1.42-2.13,2.13h-2.13l1.48-5.36-1.48-1.03c3.84-9.53,12.36-18.71,17.04-27.68l6.39,2.13Z"/>
    <path class="cls-25" d="M966.17,634.97c-.71,3.47-1.78,6.92-2.4,10.42-.77.74-4.53.38-6.11.23l-1.06-2.09-1.06,2.09c-1.88-.83-2.39-2.41-2.13-4.26.05-.33,1.99-1.73,2.13-6.39h10.65-.02Z"/>
    <path class="cls-1" d="M966.17,630.71c2.12,1.18.06,1.76,0,2.13h-10.65c.02-1.38.16-2.92,0-4.26h2.13l8.52,2.13Z"/>
    <path d="M964.04,626.45c3.7.39,3.19-.24,6.39,2.13h-12.78c-.09-.7.12-1.44,0-2.13,2.1.15,4.3-.22,6.39,0Z"/>
    <path class="cls-12" d="M966.17,632.84c-.11.69.14,1.45,0,2.13h-10.65c.02-.71,0-1.42,0-2.13h10.65Z"/>
    <path class="cls-8" d="M966.17,628.58v2.13l-8.52-2.13h8.52Z"/>
    <path class="cls-12" d="M957.65,645.62c-.76-.07-1.67.2-2.13,0l1.06-2.09,1.06,2.09h.01Z"/>
    <path class="cls-29" d="M949.13,700.99c.14-.68-.16-1.46,0-2.13h2.13l-2.13,2.13Z"/>
    <path class="cls-14" d="M663.78,383.7c-4.33-1.11-11.98-2.01-14.91-6.39-3.36-5.03-5.24-20.41-12.78-25.55.87-3.06-.15-4.51,4.26-6.39,1.36.51,3.86-.3,6.32,1.05,3.4,1.86,20.33,30.94,17.1,37.28h.01Z"/>
    <path class="cls-17" d="M746.83,402.86c-.02.71.03,1.42,0,2.13h-4.26v-4.26c.7.07,1.42-.05,2.13,0,.26.93,1.24,1.71,2.13,2.13Z"/>
    <path class="cls-30" d="M868.21,664.78c-8.29,12.07-13.81,22.62-23.42,34.07l-4.26-6.39c2.75-3.14,15.61-24.97,17.04-25.55,2.49-1.01,8.46,2.64,9.05-3.71l1.6,1.58h0Z"/>
    <path class="cls-30" d="M857.56,654.14l2.12,10.65h-4.25c-8.32-1.03-17.56,2.16-25.55,4.26v-4.26c1.39-1.15,4.31-2.06,4.28-3.19l-4.28-1.06c10.73-4,17.88-3.87,27.68-6.39h0Z"/>
    <path class="cls-5" d="M817.1,664.78l2.13,6.39c-7.21,2.41-16.56,10.27-25.55,10.65-.42-2.35-2.8-5.36-2.13-8.52,8.41-3.74,15.48-7.6,25.55-8.52Z"/>
    <path class="cls-1" d="M829.88,660.53l4.28,1.06c.03,1.13-2.89,2.04-4.28,3.19-.28.23-1.75-.37-2.09,1.06l2.09,1.06v2.13c-3.32.87-7.02.92-10.65,2.13l-2.13-6.39c.7-.06,1.42.05,2.13,0l1.08,2.09c.66-.55.63-1.83,1.05-2.09,3.03-1.91,5.14-3,8.52-4.26v.02Z"/>
    <path d="M812.84,703.11h-2.13v-2.13c.72.7,1.45,1.39,2.13,2.13Z"/>
    <path class="cls-3" d="M968.3,488.04c3.75,2.26,5.53,2.09,8.52,6.39.34.48-.35,1.71,0,2.13,1.09,1.33,1.65,4.12,3.31,6.19,5.65,7.03,16.57,12.9,18.06,24.89-2.88,6.55-7.14,7.72-12.85,9.38-3.46,1-6.95,2.26-10.63,2.13-3.21-13.81-6.74-28.76-14.92-40.46-.54-.77-1.46-1.42-2.13-2.13-1.12-3.42-1.3-7.23-2.13-10.65l4.26-2.13c2.66,1.66,5.83,2.64,8.52,4.26h-.01Z"/>
    <path class="cls-35" d="M989.59,543.41c2.17-1.13,13.38-5.22,14.81-4.19l2.16,7.51c-.09,4.75-12.34,10.05-16.97,11.59-1.5.5-3.44-.09-4.26,2.13h-2.13c-9.7-7.74-1.85-12.73,6.39-17.04h0Z"/>
    <path class="cls-10" d="M998.11,562.57v-6.39l6.38.03v2.08c-1.68-.11-2.97,1.2-4.25,2.16-.76.57-1.34,1.65-2.13,2.13h0Z"/>
    <path class="cls-10" d="M995.98,562.57c-1.5.89-3.16,1.45-4.26,2.13l3.2-4.22,1.06,2.09h0Z"/>
    <path class="cls-28" d="M985.33,562.57c.81.41,2.96-.3,4.26.02l-2.13,2.11-2.13-2.13Z"/>
    <path class="cls-28" d="M989.59,558.31l-4.26,2.13c.82-2.22,2.76-1.63,4.26-2.13Z"/>
    <path d="M976.81,496.56c-.35-.42.34-1.65,0-2.13h2.13c-.7.72-1.38,1.46-2.13,2.13Z"/>
    <path class="cls-36" d="M902.28,466.74c7.65,7.19,25.56,33.01,30.65,42.82,6.2,11.97,10.37,25.18,14.07,38.1-2.7,2.2-4.86,4.85-8.52,6.39-.73.03-1.55-.15-2.13,0-1.01.25-1.79,1.14-2.13,2.13-.71.01-1.42.02-2.13,0-8.56-.22-16.78.01-25.09-2.56-3.02-3.55-1.74-8.75-2.6-12.34-.32-1.33.25-3.19-.39-5-.93-2.63-3.25-2.73-3.87-3.52-5.04-22.52-18.25-42.6-31.99-60.72-1.26-1.67-3.63-2.41-4.21-3.17-2.33-3.06-3.76-7.59-6.39-10.63,9.31-.56,21.31-4.43,30.44-1.71,3.41,1.01,6.07,5.75,8.95,8.16,1.8,1.5,4.88,1.63,5.32,2.05h.02Z"/>
    <path class="cls-17" d="M934.22,473.13c1.45,1.69,7.79,9.5,8.52,10.65,2.19,3.44,6.31,12.61,8.52,17.04,3.95,7.93,15.06,32.08,14.82,39.58-.14,4.35-5.61,6.65-9.47,7.31-.47-.02-2.84-5.31-3.23-6.43-8.62-24.79-15.64-44.19-30.49-65.55-1.79-2.57-10.97-7.05-12.06-14.33,11.78,1.93,15.83,2.96,23.38,11.74h0Z"/>
    <path class="cls-14" d="M834.14,464.62c12.54-6.05,17.29,1.56,25.55,10.65,14.25,15.68,23.02,33.57,29.81,53.24,1.52,4.39,3.07,8.16,4.26,12.78.86,3.35,3.24,6.43,2.12,10.64l-11.76-2.06c-5.9-23.23-16.3-45.41-30.91-64.41-1.83-2.38-6.28-5.41-8.43-8.05-3.18-3.9-8.56-8.62-10.65-12.78h.01Z"/>
    <path class="cls-1" d="M900.15,532.76c-3.68-4.67-4.23-7.31-10.65-4.26-6.79-19.66-15.56-37.55-29.81-53.24l4.26-6.39c.57.75,2.94,1.5,4.21,3.17,13.74,18.12,26.96,38.2,31.99,60.72Z"/>
    <path class="cls-35" d="M887.38,658.4c-5.26,8.03-9.79,20.14-14.91,27.68-6.37,9.39-18.17,20.02-24.93,29.93l-13.36-5.44c4.1-3.46,7.2-7.66,10.61-11.71,9.61-11.45,15.14-22,23.42-34.07,6.41-9.34,9.79-5.58,19.17-6.39h0Z"/>
    <path class="cls-29" d="M625.45,620.07c11.77-1.15,28.88.95,38.33,8.52,4.06,3.26,8.61,11.94,10.65,17.04,7.36,18.45,6.57,36.11-7.69,50.87-12.13,12.55-33.18,16.89-49.81,13.01-4.76-1.11-14.87-12.1-19.17-14.91-12.76-15.31-14.22-38.19-4.26-55.37,5.96-10.27,20.16-18.01,31.94-19.17h0Z"/>
    <path class="cls-31" d="M853.3,639.23c2.11-.09,4.28-.06,6.39,0,3.29.09,12.05-2.03,10.57,3.09-2.39,8.28-5.25,9.9-12.7,11.82-9.8,2.52-16.95,2.39-27.68,6.39-3.38,1.26-5.49,2.35-8.52,4.26h-2.13c-.71.05-1.43-.06-2.13,0-10.08.92-17.14,4.77-25.55,8.52-10.86,4.83-16.48-4.64-7.14-10.34,17.54-10.7,45.57-12.16,61.11-19.41,2.64-1.23.92-3.7,1.39-4.32,2.58,2.12,5.18.05,6.39,0h0Z"/>
    <path d="M789.42,362.4v4.25l12.78-2.12v2.13c.27,2.12,2.91,5.44,2.13,8.52-5.74,2.93-4.32,3.86-7.67,6.09-9.3,6.18-9.6.28-13.63,13.08-.2.64.18,1.46,0,2.13-.07.26-3.26.62-2.13,4.26-.36-.36-7.63.8-8.52-4.26.87-3.67.91-1.21,0-4.26-.78-2.6.19-7.35,2.13-10.65,3.01-5.13,12.24-14.44,14.91-19.17h0Z"/>
    <path class="cls-25" d="M793.68,345.37c.04.38,2.74,1.54,1.83,4.68-.19.66-5.25,10.86-6.09,12.35-2.66,4.73-11.9,14.04-14.91,19.17l-8.54,1.05c1.81-9.31,7.98-22.3,12.79-30.86,1.27-2.26,6.05-10.26,7.61-10.61l7.3,4.22h.01Z"/>
    <path class="cls-34" d="M823.49,377.31c-.66.9-5.54,5.78-6.39,6.39-4.95,3.57-23.28,12.14-29.81,14.91v-4.26h-4.26c4.03-12.8,4.33-6.9,13.63-13.08,3.35-2.22,1.93-3.15,7.67-6.09,7.87-4.02,13.79-7.6,19.17,2.13h0Z"/>
    <path class="cls-18" d="M802.2,366.66v-2.13l2.1,1.07c-.01.41-2.12.83-2.1,1.06Z"/>
    <path class="cls-34" d="M629.71,377.31c1.98,1.07,6.09,4.63,8.52,6.39,1.11.81,4.04.17,6.48,3.03,2.83,3.32,2.84,8.02,4.17,11.88-14.82,1.71-26.57-11.68-38.25-18.2l-2.17-2.03c1.08-1.32,4.24-3.97,4.22-5.33,3.44-4.83,12.72,1.93,17.04,4.26h0Z"/>
    <path d="M648.88,377.31c-2.7,5.91-7.65,1.42-10.65,6.39-2.43-1.76-6.54-5.32-8.52-6.39,12.06-3.18,6.46-12.6-2.04-13.78l4.08-8.58c2.87-2.25,2.06,4.85,4.34-3.2,7.54,5.14,9.42,20.53,12.78,25.55h0Z"/>
    <path class="cls-1" d="M953.39,479.52v2.13c.14,1.12,2.07,1.88,2.13,2.13.17.67-.16,1.46,0,2.13.83,3.42,1.01,7.22,2.13,10.65-1.03-1.1-2.21-2.68-2.16-4.24h-2.08v6.36s4.24-2.12,4.24-2.12c.67.71,1.59,1.36,2.13,2.13l2.13,6.37-10.65-4.24c-2.2-4.43-6.33-13.59-8.52-17.04l3.92-2.38-1.77-8.27c4.07.48,6.18,4.6,8.5,6.39h0Z"/>
    <path class="cls-35" d="M957.65,481.65c.65.73,1.3,1.61,2.13,2.13l-4.26,2.13c-.16-.67.17-1.46,0-2.13l-2.13-2.13v-2.13c.68.52,2.62.91,4.26,2.13Z"/>
    <path class="cls-29" d="M959.78,483.78c-.83-.52-1.48-1.4-2.13-2.13.37.27,2.25-.47,2.13,2.13Z"/>
    <path d="M927.84,713.76c.36-.27-.35-1.74,0-2.13l2.09,1.06-2.09,1.06h0Z"/>
    <path class="cls-5" d="M817.1,387.95c.62-.07,1.53-.12,2.13,0v2.13c-2.04.84-2.42,1.05-4.26,2.13-.68.4-1.7,2.91-4.26,4.26,1.6-6.27.09-7.86,6.39-8.52h0Z"/>
    <path class="cls-1" d="M817.1,387.95c-6.3.66-4.78,2.24-6.39,8.52-8.21,4.34-16.93,9.41-25.55,12.78-5.06-.89-3.89-8.15-4.26-8.52,3.9,1.14,3.84-1.98,4.26-2.13.64-.23,1.54.25,2.13,0,6.53-2.77,24.86-11.34,29.81-14.91l2.07,1.05-2.07,3.2h0Z"/>
    <path d="M821.36,390.08c-.73.16-1.59-.22-2.13,0v-2.13c.97.19,1.78,1.2,2.13,2.13Z"/>
    <path class="cls-5" d="M910.8,709.5l-2.13,2.13-2.13-2.13c2.73-1.4,1.5-5.08,2.13-6.39l2.13,6.39Z"/>
    <path class="cls-22" d="M804.33,703.11c-.15-2.52,1.96-2.4,4.25-2.11v2.09l-4.25.02h0Z"/>
    <path class="cls-22" d="M810.72,703.11h2.13c-.12-.02.31,2.03-1.06,2.09l-1.06-2.09h-.01Z"/>
    <path class="cls-32" d="M689.34,319.81v-2.13c2.75,0,2.75,2.13,0,2.13Z"/>
    <path class="cls-32" d="M689.34,319.81c-2.75,0-2.75-2.13,0-2.13v2.13Z"/>
    <path class="cls-12" d="M772.38,392.21c.91,3.05.87.58,0,4.26-1.86,7.89-1.47,7.8-8.52,10.65-1.53.62-7.88,2.74-8.51,2.12,1.43-2.8,1.4-11.37,2.12-12.77.76-1.47,12.01-4.46,14.91-4.26h0Z"/>
    <path class="cls-1" d="M772.38,396.47c.89,5.06,8.15,3.89,8.52,4.26s-.8,7.63,4.26,8.52c-2.89,1.13-8.06,4.15-8.52,4.26-2.87.7-7.42-.47-10.66-.02l1.67-3.87-3.79-2.49c7.05-2.85,6.66-2.76,8.52-10.65h0Z"/>
    <path class="cls-29" d="M746.83,402.86c-.88-.42-1.87-1.2-2.13-2.13l2.13,2.13Z"/>
    <path class="cls-36" d="M874.6,583.86c1.62.6,5.86-1.45,6.46,1.17l-4.68,40c-1.53,5.24-6.99,2.79-10.3,3.55,11.93-3.75,5.54-9.74,6.21-18.07.72-8.8,3.75-17.35,2.3-26.65h0Z"/>
    <path class="cls-1" d="M819.23,390.08l-4.26,2.13c1.83-1.08,2.22-1.29,4.26-2.13Z"/>
    <path class="cls-36" d="M951.26,579.61c.2,8.49-.27,17.07,0,25.55.12,3.73-.69,18.01,0,19.17-7.28,1.58-42.21,5.57-44.51-1.38l1.91-39.09c8.65.73,17.1-1.02,25.56-2.12,5.67-.74,11.33-1.72,17.04-2.13h0Z"/>
    <path class="cls-34" d="M936.35,556.18c.71-.03,1.43.06,2.13,0l10.65,4.26c-.01,2.45,1.62,5.84,2.13,8.52-6.77,2.91-14.07,3.45-21.29,4.26s-14.33.02-21.28,2.12l-.02-12.78c1.22-1.21,24.24,3.08,23.43-6.38.71.02,1.42.01,2.13,0s1.42.03,2.13,0h-.01Z"/>
    <path class="cls-31" d="M900.16,583.85c-1.25,11.42,5.1,47.67-13.62,42.39-5.83-1.64-.34-7.8.31-12.02,1.53-9.97,2.93-20.23,2.64-30.36h10.67Z"/>
    <path class="cls-38" d="M893.77,634.98l-2.61,12.32-14.42,2.56c.16-12.28,3.45-16.83,17.03-14.88h0Z"/>
    <path class="cls-10" d="M951.26,568.96c.37,1.94.85,3.81,2.03,5.44l-4.08,1.94c.36,1.11,2.03,2.52,2.04,3.27-5.71.41-11.36,1.39-17.04,2.13l-6.4-2.16,2.14-6.36c7.22-.81,14.53-1.35,21.29-4.26h.02Z"/>
    <polygon class="cls-33" points="900.16 562.56 900.15 575.36 889.37 574.41 887.37 562.57 900.16 562.56"/>
    <path class="cls-8" d="M900.15,532.76c.62.78,2.95.89,3.87,3.52.64,1.81.07,3.67.39,5l-4.23,6.38-2.15-9.56-4.26,3.18c-1.19-4.62-2.74-8.39-4.26-12.78,6.42-3.06,6.96-.41,10.65,4.26h-.01Z"/>
    <path class="cls-30" d="M953.39,609.42c.46,3.96-1.86,10.71,2.13,12.78h2.13c.02,1.38-.22,3.01,0,4.26.12.69-.09,1.43,0,2.13h-2.13c-.75-6.14-4.02-3.86-4.26-4.26-.69-1.15.12-15.44,0-19.17,1.79.99,1.53,2.92,2.13,4.26h0Z"/>
    <path class="cls-1" d="M859.69,639.23c-2.11-.06-4.28-.09-6.39,0l-2.13-2.13c2.74-.15,7.12-.9,8.52,2.13Z"/>
    <path class="cls-23" d="M851.17,637.1l2.13,2.13c-1.21.05-3.81,2.12-6.39,0,.72-.96.39-1.49,2.13-2.13.49-.18,1.39.04,2.13,0Z"/>
    <path class="cls-7" d="M912.93,700.99c-.5,1.49.34,4.46,0,6.39-.29,1.62.38,4.39-2.13,4.26v-2.13l-2.13-6.39c1.03-2.13,1.96-2.42,4.26-2.13Z"/>
    <path class="cls-5" d="M915.06,703.11v2.13c-.71.71-1.38,1.46-2.13,2.13.34-1.93-.5-4.9,0-6.39s1.55-2.81,2.13-4.26l1.48,1.03-1.48,5.36Z"/>
    <path class="cls-13" d="M964.04,626.45c-2.09-.22-4.28.15-6.39,0-.22-1.25.02-2.88,0-4.26-.24-14.2,2.32-29.43,2.13-44.72l10.76-1.24c4.09,2.9,1.27,36.31-.11,42.76-.88,4.13-3.59,5.08-6.39,7.45h0Z"/>
    <path d="M949.13,560.44c0-.57,2.45-10.93,4.24-10.64l.04,21.28c2.49.33,3.29-3.79,4.24-4.26,1.14-.56,4.62.38,6.39,0-.35.36-1.3,6.04-5.88,7.38-.29,1.22,1.62,2.67,1.62,3.27.19,15.28-2.36,30.52-2.13,44.72h-2.13c.98-5.58-.1-8.23-2.13-12.78-.6-1.34-.34-3.27-2.13-4.26-.27-8.49.2-17.06,0-25.55-.02-.75-1.68-2.16-2.04-3.27l4.08-1.94c-1.18-1.63-1.66-3.5-2.03-5.44-.51-2.67-2.14-6.07-2.13-8.52h0Z"/>
    <path class="cls-9" d="M957.65,566.83l.13-12.66,11.56-2.27c5.49,13.67-1.87,11.34-5.3,14.94-1.77.38-5.25-.56-6.39,0h0Z"/>
    <path class="cls-8" d="M942.74,554.05v2.13c-1.41.08-2.86-.13-4.26,0-.7.06-1.42-.03-2.13,0v-2.13c.58-.15,1.4.03,2.13,0,1.42-.06,2.84.04,4.26,0Z"/>
    <polygon class="cls-32" points="942.74 556.18 942.74 554.05 944.83 555.12 942.74 556.18"/>
    <path class="cls-1" d="M915.06,705.24v-2.13h2.13l-2.13,2.13Z"/>
    <polygon points="910.8 711.63 908.67 711.63 910.8 709.5 910.8 711.63"/>
    <path class="cls-5" d="M919.32,700.99c.7-.72,1.3-1.54,2.13-2.13-.58.79-1.46,1.4-2.13,2.13Z"/>
    <path class="cls-23" d="M829.88,666.91l-2.09-1.06c.34-1.43,1.81-.84,2.09-1.06v2.13h0Z"/>
    <path class="cls-5" d="M819.23,664.78h2.13c-.42.26-.39,1.54-1.05,2.09l-1.08-2.09Z"/>
    <path class="cls-32" d="M936.35,556.18c-.71.03-1.42-.01-2.13,0,.34-.99,1.11-1.87,2.13-2.13v2.13Z"/>
    <path class="cls-34" d="M783.03,394.34h4.26v4.26c-.58.25-1.48-.23-2.13,0l-2.13-2.13c.18-.67-.2-1.49,0-2.13Z"/>
    <path class="cls-26" d="M785.16,398.6c-.42.15-.36,3.27-4.26,2.13-1.13-3.64,2.06-4,2.13-4.26l2.13,2.13Z"/>
    <path class="cls-10" d="M957.65,496.56l-4.25,2.12v-6.37h2.09c-.05,1.56,1.13,3.14,2.16,4.24h0Z"/>
    <path class="cls-29" d="M955.52,483.78c-.06-.24-1.99-1.01-2.13-2.13l2.13,2.13Z"/>
    <path class="cls-32" d="M955.52,622.2c-3.99-2.06-1.67-8.82-2.13-12.78,2.03,4.55,3.11,7.2,2.13,12.78Z"/>
    <path class="cls-29" d="M785.16,398.6l-2.13-2.13,2.13,2.13Z"/>
  </g>
</svg>