<?xml version="1.0" encoding="UTF-8"?>
<svg id="Calque_1" data-name="Calque 1" xmlns="http://www.w3.org/2000/svg" xmlns:xlink="http://www.w3.org/1999/xlink" viewBox="0 0 1600 1000">
  <defs>
    <style>
      .cls-1 {
        fill: #465468;
      }

      .cls-2 {
        fill: #2f4b77;
      }

      .cls-3 {
        fill: #ff5f57;
      }

      .cls-4 {
        fill: #ecc84d;
      }

      .cls-5 {
        opacity: .6;
      }

      .cls-6 {
        fill: #28c840;
      }

      .cls-7 {
        fill: #303b4c;
      }

      .cls-8 {
        fill: url(#Dégradé_sans_nom);
        opacity: .39;
      }

      .cls-9 {
        fill: #febc2e;
      }

      .cls-10 {
        opacity: .89;
      }

      .cls-11 {
        fill: #4d6fc3;
      }

      .cls-12 {
        fill: #bed8da;
      }

      .cls-13 {
        fill: #3d5ea2;
      }

      .cls-14 {
        fill: #3d5fa2;
      }
    </style>
    <linearGradient id="Dégradé_sans_nom" data-name="Dégradé sans nom" x1="501.69" y1="919.97" x2="502.69" y2="918.97" gradientTransform="translate(-802698 919968.01) scale(1600 -1000)" gradientUnits="userSpaceOnUse">
      <stop offset="0" stop-color="#1c1c1e"/>
      <stop offset="1" stop-color="#3a3a3c"/>
    </linearGradient>
  </defs>
  <rect class="cls-8" width="1600" height="1000"/>
  <g class="cls-5">
    <circle class="cls-3" cx="140" cy="110" r="10"/>
    <circle class="cls-9" cx="170" cy="110" r="10"/>
    <circle class="cls-6" cx="200" cy="110" r="10"/>
    <rect class="cls-10" x="120" y="150" width="1360" height="740" rx="24" ry="24"/>
  </g>
  <g>
    <path class="cls-1" d="M956.7,350.77c1.78,2.87,6.43,1.76,9.45,2.33,15.4,2.92,39.25,5.37,52.69,11.83,5.93,2.85,10.64,7.9,16.72,10.42.47,2.87,9.53,13.51,11.8,18.41,9.04,19.5,5.49,49.85,5.61,71.71l-58.37,1.02c-64.32-106.16-220.53-106.08-284.7,0l-162.83-1.02c.12-21.53-3.39-52.98,5.27-72.05,9.41-20.73,29.18-33.01,51.59-35.46l160.59-6.12c13.26-26.93,15.16-65.75,52.37-69.71,28.83,1.93,60.71-2.45,89.17,0,35.1,3.02,39.82,42.53,50.66,68.65ZM824.29,325.39c-10.72,4.74-8.83,16.54,2.95,18.13,13.78,1.86,52.23,1.51,66.46.08,14.56-1.47,14.24-16.63,3.02-18.35l-72.43.15ZM614.38,396.08c-14.81,2.49-21.24,20.35-7.86,29.9,16.84,12.03,44.9-2.88,33.56-21.27-5.25-8.52-16.49-10.18-25.7-8.63ZM998.39,396.05c-8.42,1.88-8,21.83-1.5,24.61,16.53,7.09,19.09-28.54,1.5-24.61Z"/>
    <path class="cls-7" d="M709.89,466.5c-48.77,80.61-18.74,189.85,64.52,233.5-1.06,1.7-3.89,1.02-5.62,1.04-63.82.67-127.69-.53-191.51-.03-15.73-1.83-28.39-14.47-30.26-30.16.37-68.45-.34-136.94.04-205.38l162.83,1.02Z"/>
    <path class="cls-12" d="M994.59,466.5c49.14,81.1,19.37,189.78-64.52,233.5-47.56,24.78-108.08,24.95-155.66,0-83.26-43.65-113.29-152.89-64.52-233.5,64.17-106.08,220.38-106.16,284.7,0ZM844.86,421.74c-92,5.56-150.3,102.21-111.27,186.45,41.73,90.06,166.77,102.16,224.97,21.46,64.44-89.35-4-214.55-113.7-207.91Z"/>
    <path class="cls-7" d="M1052.96,465.47c.37,68.44-.31,136.92.04,205.38-1.36,14.85-14.59,28.34-29.34,30.06-24.72,2.88-61.99.4-87.98.13-1.73-.02-4.55.65-5.62-1.04,83.89-43.72,113.66-152.4,64.52-233.5l58.37-1.02Z"/>
    <path class="cls-7" d="M1035.55,375.35c-6.08-2.52-10.79-7.57-16.72-10.42-13.44-6.46-37.29-8.91-52.69-11.83-3.01-.57-7.67.55-9.45-2.33,1.98-3.28.68-7.39,1.48-11.32,1.86-9.11,11.43-18.03,20.63-19.31,7.73-1.08,36.5,2.16,43.33,5.65,20.36,10.39,10.67,32.76,13.42,49.57Z"/>
    <path class="cls-4" d="M824.29,325.39l72.43-.15c11.22,1.72,11.54,16.88-3.02,18.35-14.24,1.44-52.69,1.79-66.46-.08-11.77-1.59-13.67-13.38-2.95-18.13Z"/>
    <path class="cls-7" d="M614.38,396.08c9.21-1.55,20.45.12,25.7,8.63,11.34,18.39-16.72,33.3-33.56,21.27-13.38-9.56-6.95-27.41,7.86-29.9Z"/>
    <path class="cls-7" d="M998.39,396.05c17.59-3.93,15.03,31.7-1.5,24.61-6.49-2.79-6.92-22.73,1.5-24.61Z"/>
    <path class="cls-11" d="M844.86,421.74c109.7-6.63,178.14,118.57,113.7,207.91-58.2,80.69-183.24,68.6-224.97-21.46-39.03-84.24,19.27-180.89,111.27-186.45ZM847.93,456.56c-78.8,3.67-120.18,97.05-69.4,157.89,42.13,50.47,122.15,44.21,156.06-11.83,39.87-65.88-10.21-149.62-86.67-146.06Z"/>
    <path class="cls-14" d="M847.93,456.56c76.46-3.56,126.53,80.18,86.67,146.06-33.91,56.04-113.93,62.3-156.06,11.83-50.78-60.84-9.4-154.23,69.4-157.89ZM851.9,491.46c-81.86.54-78.53,127.03,3.96,122.54,77.87-4.23,75.39-123.07-3.96-122.54Z"/>
    <path class="cls-2" d="M851.9,491.46c79.36-.52,81.83,118.31,3.96,122.54-82.5,4.49-85.83-122.01-3.96-122.54ZM847.92,518c-15.8,1.75-30.3,16.94-30.57,32.99-.13,7.56,6.57,13.59,13.35,9.17,5.78-3.78,3.18-13.11,9.21-19.45,6.43-6.76,21.86-4.09,21.51-14.19-.27-7.78-7.14-9.22-13.49-8.52Z"/>
    <path class="cls-13" d="M847.92,518c6.36-.7,13.22.74,13.49,8.52.36,10.1-15.08,7.43-21.51,14.19-6.03,6.34-3.43,15.68-9.21,19.45-6.78,4.43-13.48-1.6-13.35-9.17.28-16.06,14.77-31.24,30.57-32.99Z"/>
  </g>
</svg>