<?xml version="1.0" encoding="UTF-8"?>
<svg id="Calque_1" data-name="Calque 1" xmlns="http://www.w3.org/2000/svg" viewBox="0 0 1600 1000">
  <defs>
    <style>
      .cls-1 {
        fill: #ff5f57;
      }

      .cls-2 {
        fill: #fde901;
      }

      .cls-3 {
        opacity: .6;
      }

      .cls-4 {
        fill: #28c840;
      }

      .cls-5 {
        fill: #d27726;
      }

      .cls-6 {
        fill: #232323;
        opacity: .39;
      }

      .cls-7 {
        fill: #8e1d12;
      }

      .cls-8 {
        fill: #a41d15;
      }

      .cls-9 {
        fill: #febc2e;
      }

      .cls-10 {
        fill: #ae3533;
      }

      .cls-11 {
        fill: #3f3d3d;
        opacity: .89;
      }

      .cls-12 {
        fill: #d07222;
      }

      .cls-13 {
        fill: #aa5c1a;
      }
    </style>
  </defs>
  <rect class="cls-6" width="1600" height="1000"/>
  <g class="cls-3">
    <circle class="cls-1" cx="140" cy="110" r="10"/>
    <circle class="cls-9" cx="170" cy="110" r="10"/>
    <circle class="cls-4" cx="200" cy="110" r="10"/>
    <rect class="cls-11" x="120" y="150" width="1360" height="740" rx="24" ry="24"/>
  </g>
  <g>
    <path class="cls-13" d="M956.27,330.05c49.83,18.36,105.65,35.34,126.59,89.35-27.26-12.25-27.77,8.17-40.95,22.34-37.62-38.01-78.29-69.87-134.03-74.46,8.5-12.99,7.27-30.8,29.78-37.23h18.62-.01Z"/>
    <path class="cls-2" d="M1041.9,441.75c-15.23,16.36-27.86,14.69-44.68,22.34,8.96-19.03-4.26-36.03-24.25-37.45-36.77-2.62-57.29,43.25-16.7,56.07-15.67,8.78-12.95,7.59-18.62,22.34-2.97,7.72-3.51,23.05-13.75,25.62-9.04,2.27-16.41-7.11-23.48-10.72-15.49-7.92-20.02-10.95-38.98-3.61-14.47,5.6-9.99,7.06-13.14,18.5-2.87,10.44-5.52,18.39-3.72,29.78-.2.5-5.07,1.33-3.72,3.72l-14.75,3.63c-4.55-7.67-2.11-19.59-3.87-25.97-.92-3.35-4.77-11.47-7.38-13.05-12.4-5.67-22.88-1.19-25.62,12.29-1.71,8.38,2.67,9.4,3.21,11.93.49,2.3-.71,6.11,0,7.45,9.94,18.84,26.36,13.42,26.37,50.26,0,63.61-69.87,63.92-63.21-3.28,1.39-14.05,10.22-26.17,10.78-39.54,1.16-27.6-21.78-48.53-5.28-77.88,10.72-19.07,74.02-65.19,94.64-82.21-5.13,33.54,50.75,32.19,55.79,5.44,3.65-19.35-5.08-24.73-18.56-35.23,1.36-7.11,12.84-11.75,14.89-14.89,55.74,4.6,96.41,36.45,134.03,74.46h0ZM824.9,453.71c-30.57,6.94-19.83,55.92,20.73,46.81,30.86-6.93,23.4-56.83-20.73-46.81Z"/>
    <path class="cls-10" d="M636.08,527.38c25.8,4.71,63.04-8.63,83.84,11.11,16.78,15.92,9.86,44.33-9.36,54.03,38.06,16.2,21.1,76.34-16.77,76.34h-57.71v-141.48ZM680.76,590.71c52.11-13.03,25.66-70.83-26.09-55.91.84,15.47-1.06,31.3-.17,46.77.39,6.73,5.66,11.61,5.78,14.65.4,9.61-4.88,62.22-1.89,65.2,29.58,2.7,52.5-.82,52.45-35.41-.03-27.4-15.16-20.75-30.09-35.3h.01Z"/>
    <path class="cls-12" d="M1082.85,419.41c2.83,7.31,9.94,13.78,6.01,22.45-2.38,7.62-12.95,14.21-19.72,17.82-36.26,19.38-92.45,29.24-131.49,45.35,5.67-14.75,2.94-13.56,18.62-22.34,12.77-7.15,27.53-12.51,40.95-18.62,16.81-7.65,29.45-5.98,44.68-22.34,13.19-14.17,13.7-34.59,40.95-22.34v.02Z"/>
    <polygon class="cls-10" points="408.97 527.38 408.97 661.41 464.82 661.41 464.82 668.86 386.63 668.86 386.63 527.38 408.97 527.38"/>
    <path class="cls-10" d="M792.45,564.61c76.58,10.52,46.22,129.74-27.56,100.15-38.26-15.35-37.48-81.71,1.49-92.7-.56,13.37-9.39,25.49-10.78,39.54-6.65,67.2,63.22,66.89,63.21,3.28,0-36.84-16.43-31.42-26.37-50.26h.01Z"/>
    <path class="cls-10" d="M509.49,668.86c-19.58,1.88-41.5-5.26-41.25-28.01.29-27.24,41.4-25.52,59.89-24.09l-.75-34.66-17.87-13.72c58.28-10.49,30.9,51.29,37.67,87l14.44,6.08c-1.95,21.52-30.14-5.4-40.96-3.77,14.66-27.95,10.56-45.16-23.33-32.62-12.13,4.48-12.6,17.45-7.45,28.04,6.82,14.03,21.22,1.75,19.61,15.75Z"/>
    <path class="cls-10" d="M1153.59,579.5c-1.71,6.72-9.7,13.35-7.43,22.32h48.39c1.22-16.8-6.85-32.38-26.05-29.8-1.27-4.92,8.23-5.68,11.15-5.75,23.66-.55,35.46,21.54,33.51,43.02h-70.74c-2.28,24.39,5.76,39.54,22.34,55.81-41.17,3.9-49.84-58.24-29.39-83.32,5.81-7.13,11.66-6.19,18.22-9.72-.35,2.37.53,5.38,0,7.45h0Z"/>
    <path class="cls-10" d="M844.57,564.61c2.56-6.58,3.98-12.09,5.82-18.73l16.54.1-.04,18.66h29.78c13.97,10.64-28.6,6.22-29.78,7.41,3.5,21.27-11.94,91.22,20.67,93.04l5.37-7.37.06,11.13c-66.93,10.13-38.34-51.85-44.75-91.27-1.28-7.86-6.87-8.3-7.4-9.23-1.35-2.4,3.53-3.22,3.72-3.72v-.02Z"/>
    <path class="cls-10" d="M933.95,545.97l-.04,18.66h29.78c13.97,10.64-28.6,6.22-29.78,7.41,3.5,21.27-11.94,91.22,20.67,93.04l5.37-7.37.06,11.13c-12.5-.35-29.78,3.17-38.99-7.55-11.49-13.39-4.74-92.48-5.65-115.24l18.58-.08h0Z"/>
    <path class="cls-10" d="M1023.28,564.61c16.41-3.8,18.95,5.38,29.95,13.13-15.28,24.69-3.96,57.05-8.13,85.01-2.84,8.62-14.58,5.97-21.82,6.1v-104.25h0Z"/>
    <path class="cls-10" d="M1120.06,661.48l-1.85,7.4c-48.79,6.48-26.51-61.53-32.15-90.72-4.39-13.39-28.58,2.17-25.52-13.53,74.17-9.87,37.52,56.93,48.89,90.8,1.52,4.54,6.5,5.54,10.64,6.05h-.01Z"/>
    <path class="cls-8" d="M855.74,411.96c9.47-7.82,18.63-19.18,29.78-26.06,1.48-.92,2.65-2.37,3.72-3.72h3.72c13.48,10.5,22.2,15.88,18.56,35.23-5.04,26.75-60.92,28.1-55.79-5.44h.01Z"/>
    <path class="cls-10" d="M997.22,564.61v87.49c0,12.89,18.09,4.78,14.87,16.73-9.5,1.59-33.49-.41-33.49-13.01v-91.22h18.62Z"/>
    <path class="cls-5" d="M900.42,519.93l-52.12,14.89c3.15-11.44-1.33-12.9,13.14-18.5,18.96-7.34,23.5-4.31,38.98,3.61Z"/>
    <path class="cls-12" d="M822.23,546l-29.78,11.17c-.54-2.53-4.92-3.55-3.21-11.93,2.74-13.48,13.22-17.97,25.62-12.29,2.61,1.59,6.45,9.7,7.38,13.05h0Z"/>
    <path class="cls-2" d="M885.53,385.9l3.72-3.72c-1.07,1.35-2.24,2.81-3.72,3.72Z"/>
    <path class="cls-7" d="M997.22,464.09c-13.43,6.11-28.18,11.46-40.95,18.62-40.59-12.82-20.07-58.69,16.7-56.07,20,1.43,33.22,18.42,24.25,37.45Z"/>
    <path class="cls-8" d="M824.9,453.71c44.14-10.02,51.59,39.87,20.73,46.81-40.56,9.11-51.31-39.86-20.73-46.81Z"/>
  </g>
</svg>