<?xml version="1.0" encoding="UTF-8"?>
<svg id="Calque_1" data-name="Calque 1" xmlns="http://www.w3.org/2000/svg" viewBox="0 0 1600 1000">
  <defs>
    <style>
      .cls-1 {
        fill: #d4533d;
      }

      .cls-1, .cls-2, .cls-3, .cls-4 {
        fill-rule: evenodd;
      }

      .cls-2 {
        fill: #d1533d;
      }

      .cls-5 {
        fill: #ff5f57;
      }

      .cls-3 {
        fill: #588a7f;
      }

      .cls-6 {
        opacity: .6;
      }

      .cls-7 {
        fill: #28c840;
      }

      .cls-8 {
        fill: #232323;
        opacity: .39;
      }

      .cls-9 {
        fill: #febc2e;
      }

      .cls-10 {
        stroke: #221f1a;
      }

      .cls-10, .cls-11 {
        fill: none;
        stroke-miterlimit: 10;
      }

      .cls-4 {
        fill: #221e1a;
      }

      .cls-12 {
        fill: #3f3d3d;
        opacity: .89;
      }

      .cls-11 {
        stroke: #221f19;
      }
    </style>
  </defs>
  <rect class="cls-8" width="1600" height="1000"/>
  <g class="cls-6">
    <circle class="cls-5" cx="140" cy="110" r="10"/>
    <circle class="cls-9" cx="170" cy="110" r="10"/>
    <circle class="cls-7" cx="200" cy="110" r="10"/>
    <rect class="cls-12" x="120" y="150" width="1360" height="740" rx="24" ry="24"/>
  </g>
  <g>
    <path class="cls-3" d="M578.58,581.73l468.48,2.47c-.47,5.03-7.97,16.54-7.97,16.54-19.83-11.16-54.32,1-54.32,1-40.93-17.36-82.53.23-82.53.23-47.63-17.83-85.23,2.49-85.23,2.49-49.58-25.78-84.53,0-84.53,0-52.05-23.55-79.53,0-79.53,0-45.1-17.85-67.2-4.46-67.2-4.46-2.23-1.23-7.16-18.26-7.16-18.26h-.01Z"/>
    <path class="cls-4" d="M680.96,539.84c7.24,0,13.14,5.87,13.14,13.13s-5.89,13.14-13.14,13.14-13.15-5.87-13.15-13.14,5.89-13.13,13.15-13.13Z"/>
    <path class="cls-11" d="M681.31,525.86c15.68,0,28.38,12.02,28.38,26.86"/>
    <path class="cls-4" d="M915.38,540.47c7.26,0,13.14,5.87,13.14,13.13s-5.87,13.14-13.14,13.14-13.14-5.89-13.14-13.14,5.87-13.13,13.14-13.13Z"/>
    <path class="cls-11" d="M887.36,553.35c0-14.84,12.7-26.88,28.38-26.88"/>
    <line class="cls-10" x1="652.95" y1="552.72" x2="620.22" y2="552.72"/>
    <path class="cls-11" d="M684.19,506.62c28.07,0,50.8,22.28,50.8,46.98"/>
    <line class="cls-11" x1="792.93" y1="439.16" x2="793.34" y2="553.6"/>
    <path class="cls-11" d="M712.4,493.49h272.37"/>
    <path class="cls-11" d="M726.28,493.49s.65,33.12-1.98,30.4"/>
    <path class="cls-11" d="M741.16,482.84h37.92"/>
    <line class="cls-11" x1="649.37" y1="498.2" x2="697.78" y2="498.2"/>
    <path class="cls-4" d="M806.52,407.78c92.59-.22,156.33,12.1,156.33,12.1-127.16,36.68-297.21-1.74-297.21-1.74,50.74-7.6,98.8-10.28,140.88-10.36h0Z"/>
    <path class="cls-3" d="M1014.84,604.44c3.84-.04,19.32.1,21.71,4.64,0,0-3.72,13.04-6.21,16.85,0,0-67.93,21.08-78.83,3.48,0,0-28.5-12.9-68.16,5.7,0,0-35.94-22.32-66.18-.49,0,0-59.24-19.34-76.09-1.49,0,0-64.21-18.11-85.78,0,0,0-49.31-13.14-59.72-6.95,0,0-6.54-8.01-8.18-17.11,0,0,91.22,17.48,101.64-4.62,0,0,45.1,25.37,84.53,0,0,0,34.69,24.88,80.3,0,0,0,44.87,17.54,79.83,0,0,0,11.45,17.79,80.3,0,0,0,.31,0,.86-.02h-.02Z"/>
    <path class="cls-3" d="M622.37,635c20.91.57,37.64,8.79,37.64,8.79,28.27-18.6,82.55-.25,82.55-.25,5.7-10.16,34.45-7.81,34.45-7.81,25.04,15.25,43.38,9.55,43.38,9.55,17.34-15.37,47.84-6.19,47.84-6.19,7.67,7.42,21.55,5.44,21.55,5.44,16.62-15.62,55.77-5.7,55.77-5.7,15.39,17.34,77.11-1.23,77.11-1.23l-14.13,20.59c-5.83,3.27-37.43,8.69-37.43,8.69-29.75-24.49-80.57,0-80.57,0-24.53-24.23-86.76,0-86.76,0-21.06-24.98-76.46,0-76.46,0-27.64-19.28-60.61-6.24-60.61-6.24-18.6,15.62-54.28-2.98-54.28-2.98l-11.9-20.06c7.44-2.11,14.88-2.78,21.85-2.6h0Z"/>
    <path class="cls-3" d="M688.36,666.88s33.69.57,38,10.88c0,0,24.49-.2,39.99-10.88,0,0,32.06,1.9,33.4,10.88,0,0,35.35.72,50.23-8.87,0,0,28.76,18.85,40.97,10.59,0,0,28.11-17.85,40.66-10.92,0,0,41.5,15.44,60.51,6.24l3.5-2.25-24.68,26.76s-26.11-17.19-39.66-12.23c0,0-33.38,22.14-60.47,6.93,0,0-22.16-14.45-49.25,5.34,0,0-18.52,4.58-50.56-11.61-2,.65-23.8,3.58-39.01,12.2,0,0-28.74-2.96-34.2-9.55,0,0-21.98-6.95-43.12,11.24l-32.06-29.75v-1.31s14.88,18.44,65.77-3.68h-.02Z"/>
    <path class="cls-3" d="M772.24,699.32c10.86.12,22.08,2.96,31.79,10.9,0,0,50.99-21.16,74.9-2.31,0,0,32.51,5.62,44.42-6.28,0,0,25.06-4.31,36,6.93l-49.88,35.04h-196.32l-49.9-34.37s22.1-23.14,63.11,2.64c0,0,22.02-12.8,45.88-12.55h0Z"/>
    <path class="cls-1" d="M818.19,296.4c48.63-.12,102.85,15.46,155.23,63.17,0,0-166.35-31.4-320.47-5.62,0,0,72.39-57.36,165.24-57.55h0Z"/>
    <path class="cls-2" d="M821.65,353.89c56.22.43,115.94,4.15,163.12,14.94l16.07,16.19h-28.42s-22.81-14.74-55.18,7.83c0,0-80.98-56.42-210.87-3.19l-86.15-1.66,23.69-26.43s84.02-8.4,177.74-7.67h0Z"/>
    <path class="cls-2" d="M616.81,394.61l82.61,2.64c-59.49,1.64-50.05,24.51-50.05,24.51h-49.43c1-5.91,16.87-27.15,16.87-27.15h0Z"/>
    <path class="cls-2" d="M812.31,377.03c56.87-.65,89.93,21.55,89.93,21.55l-181.33-2.33c34.81-13.94,65.56-18.93,91.4-19.22Z"/>
    <path class="cls-2" d="M971.44,394.61h37.33l14.88,27.15h-45.61v-7.65c0-3.31-16.85-9.4-16.85-9.4,2.31.51,10.26-10.1,10.26-10.1h-.01Z"/>
    <path class="cls-2" d="M991.27,432.94h38.66l11.9,31.73h-43.14c4.15-25.78-7.42-31.73-7.42-31.73h0Z"/>
    <polygon class="cls-2" points="998.69 472.93 1044.81 472.93 1049.43 503.08 1000.84 503.08 998.69 472.93"/>
    <polygon class="cls-2" points="1006.13 514.26 1051.41 514.26 1051.41 545.32 1007.46 545.32 1006.13 514.26"/>
    <path class="cls-2" d="M1006.13,555.3l43.3.67s-.76,13.15-2.37,13.47l-62.29-1.31s17.74-2.82,21.36-12.82h0Z"/>
    <path class="cls-2" d="M594.65,432.94h68.59s-19.34,26.45-21.32,31.73h-60.82l13.55-31.73h0Z"/>
    <path class="cls-2" d="M578.58,472.93l54.11,2c-16.5,2.98-20.85,29.4-20.85,29.4h-38.95l5.7-31.4h-.01Z"/>
    <polygon class="cls-2" points="570.89 514.26 611.51 514.26 611.51 543.66 572.89 543.66 570.89 514.26"/>
    <path class="cls-2" d="M607.89,555.3s7.26,11.02,19.16,11.43h-52.23l-1.94-10.77,35-.67h.01Z"/>
    <line class="cls-11" x1="709.7" y1="552.72" x2="734.99" y2="553.6"/>
    <line class="cls-11" x1="868.18" y1="554.07" x2="887.23" y2="554.33"/>
    <line class="cls-11" x1="959.34" y1="555.3" x2="944.37" y2="555.09"/>
  </g>
</svg>